<?xml version="1.0" encoding="utf-8"?>
<!-- Generator: Adobe Illustrator 25.4.1, SVG Export Plug-In . SVG Version: 6.00 Build 0)  -->
<svg version="1.1" id="PRINT" xmlns="http://www.w3.org/2000/svg" xmlns:xlink="http://www.w3.org/1999/xlink" x="0px" y="0px"
	 viewBox="0 0 595.3 595.3" style="enable-background:new 0 0 595.3 595.3;" xml:space="preserve">
<style type="text/css">
	.st0{fill:#F26641;}
	.st1{fill:#383F50;}
	.st2{fill:#FFFFFF;}
	.st3{fill:#2B343A;}
	.st4{enable-background:new    ;}
</style>
<g>
	<rect x="-14.4" y="-14.4" class="st0" width="624" height="624"/>
	<g>
		<g>
			<path class="st1" d="M244.2,561.2c0,2.2-1.7,3.9-3.9,3.9s-3.9-1.7-3.9-3.9s1.7-3.9,3.9-3.9C242.5,557.3,244.2,559,244.2,561.2z"
				/>
			<path class="st1" d="M282.4,561.2c0,2.2-1.7,3.9-3.9,3.9c-2.1,0-3.9-1.7-3.9-3.9s1.7-3.9,3.9-3.9
				C280.7,557.3,282.4,559,282.4,561.2z"/>
			<path class="st1" d="M320.6,561.2c0,2.2-1.7,3.9-3.9,3.9c-2.1,0-3.9-1.7-3.9-3.9s1.7-3.9,3.9-3.9
				C318.9,557.3,320.6,559,320.6,561.2z"/>
			<path class="st1" d="M358.8,561.2c0,2.2-1.7,3.9-3.9,3.9c-2.1,0-3.9-1.7-3.9-3.9s1.7-3.9,3.9-3.9
				C357.1,557.3,358.8,559,358.8,561.2z"/>
		</g>
	</g>
	<g>
		<g>
			<path class="st2" d="M481.4,94.6c-7.2,9.6-14.5,19.2-21.7,28.8c-2.2,2.9,2.7,5.7,4.9,2.8c7.2-9.6,14.5-19.2,21.7-28.8
				C488.5,94.6,483.6,91.8,481.4,94.6z"/>
			<path class="st2" d="M494,126.9c-6.1,2.4-11.5,5.8-16.4,10.3c-2.7,2.5,1.3,6.4,4,4c4.1-3.8,8.7-6.8,13.9-8.8
				C498.8,131,497.3,125.6,494,126.9z"/>
			<path class="st2" d="M506.9,140.8c-0.7-1.2-2.6-1.9-3.9-1c-2.1,1.5-4.4,2.7-6.8,3.5c-3.4,1.1-2,6.6,1.5,5.4c2.9-1,5.7-2.3,8.2-4
				C507.1,143.8,507.7,142.2,506.9,140.8z"/>
			<path class="st2" d="M367.3,77.3c0.2-3.6-5.5-3.6-5.6,0c-0.4,9.3-0.2,18.5,0.7,27.8c0.3,3.6,6,3.6,5.6,0
				C367.1,95.8,366.9,86.6,367.3,77.3z"/>
			<path class="st2" d="M348.7,100.1c-1.5-0.4-3,0.5-3.5,2c-0.7,2.2-1,4.5-0.9,6.7c0.1,3.6,5.8,3.6,5.6,0c-0.1-1.8,0.2-3.5,0.7-5.2
				C351.1,102.2,350.1,100.5,348.7,100.1z"/>
			<path class="st2" d="M322.6,97.7c-1.5-3.9-2.6-7.9-3.2-12c-0.5-3.6-6.1-3.6-5.6,0c0.6,4.7,1.6,9.1,3.4,13.5
				C318.5,102.5,324,101,322.6,97.7z"/>
		</g>
		<g>
			<path class="st2" d="M349.7,475.7c-7.2-9.6-14.5-19.2-21.7-28.8c-2.2-2.9,2.7-5.7,4.9-2.8c7.2,9.6,14.5,19.2,21.7,28.8
				C356.7,475.8,351.8,478.6,349.7,475.7z"/>
			<path class="st2" d="M362.2,443.5c-6.1-2.4-11.5-5.8-16.4-10.3c-2.7-2.5,1.3-6.5,4-4c4.1,3.8,8.7,6.8,13.9,8.8
				C367,439.4,365.6,444.8,362.2,443.5z"/>
			<path class="st2" d="M375.1,429.5c-0.7,1.2-2.6,1.9-3.9,1c-2.1-1.5-4.4-2.7-6.8-3.5c-3.4-1.1-2-6.6,1.5-5.4c2.9,1,5.7,2.3,8.2,4
				C375.3,426.5,375.9,428.1,375.1,429.5z"/>
		</g>
		<g>
			<path class="st2" d="M29.2,302.3c11.6,3,23.3,5.9,34.9,8.9c3.5,0.9,4.2-4.7,0.8-5.6c-11.6-3-23.3-5.9-34.9-8.9
				C26.4,295.8,25.7,301.4,29.2,302.3z"/>
			<path class="st2" d="M54.2,278.3c4.6,4.7,9.8,8.4,15.8,11.1c3.3,1.5,5.4-3.7,2.1-5.2c-5.1-2.3-9.6-5.4-13.5-9.4
				C56.1,272.2,51.6,275.7,54.2,278.3z"/>
			<path class="st2" d="M62,261c-0.9,1.1-0.7,3.1,0.5,3.9c2.2,1.4,4.1,3,5.8,5c2.4,2.7,6.8-0.7,4.4-3.5c-2-2.3-4.3-4.4-6.9-6
				C64.7,259.6,63,259.7,62,261z"/>
		</g>
		<g>
			<g>
				<g>
					<g>
						<path class="st3" d="M426,322.7c-5.1-3.2-9.8-7.1-16.2-5.3c-6.1,1.8-10.9,7.5-15.3,12.1c-0.3,0-0.6,0.1-0.9,0.4
							c-0.5,0.6-1,1.2-1.4,1.8c-0.8,0.1-1.3,1-1.1,1.8c-2.1,3.9-2.7,8.2-2.7,12.9c0,8.1,2.1,10.5,8.2,15.6c5.9,4.8,7.9,8.1,15.4,5.6
							c6.5-2.1,16.4-6.1,20.8-11.5c4.1-5,2.3-15.4,2.2-21.4C435.1,325.9,433,327,426,322.7z M405.1,323.5c5.8-4.7,10.9-3.7,16.7,0
							c1.6,1,3.2,1.8,4.6,2.6c0,0.2,0.1,0.4,0.2,0.6c2.2,3.8-7.4,6.3-9.9,7.5c-2.7,1.4-5.3,3.1-7.7,5c-3-3.5-8.9-5.2-13.4-6.6
							C398.8,329.6,401.8,326.3,405.1,323.5z M417.5,362.2c-2.4-2.4-4.5-5.1-6.2-8.1c-0.1-0.1-0.2-0.2-0.3-0.3
							c0.1-0.9,0.3-1.9,0.4-2.8c2.3,3.7,5,7.1,8.1,10.2C418.8,361.5,418.2,361.9,417.5,362.2z M414.8,363.5c-2-1.7-3.5-3.8-4.4-6.3
							c0.1-0.5,0.2-0.9,0.3-1.4c1.6,2.6,3.4,4.9,5.5,7.1C415.7,363.1,415.2,363.3,414.8,363.5z M407.4,356.8
							c-2.5-4.8-5-9.5-7.4-14.3c2.6,4,4.9,8.1,7.1,12.4c0.2,0.3,0.4,0.5,0.6,0.6C407.6,355.9,407.5,356.3,407.4,356.8z M407.8,344.9
							c-0.8-1.5-1.7-3-2.5-4.4C406.4,341.6,407.2,343,407.8,344.9z M401.4,339.2c-0.4-0.6-0.8-1.3-1.2-1.9c0.7,0.3,1.3,0.6,1.9,0.9
							C401.7,338.4,401.4,338.8,401.4,339.2z M397.3,337.4c-0.2-0.4-0.4-0.9-0.7-1.3c0.5,0.2,1,0.3,1.6,0.5
							C397.8,336.7,397.5,337,397.3,337.4z M393.2,344c-0.4-0.8-1.1-0.9-1.7-0.6c0.1-1.1,0.2-2.2,0.5-3.2c3,6.2,6.2,12.3,9.6,18.4
							C398.5,353.8,395.7,348.9,393.2,344z M391.5,347.2c0,0-0.1,0-0.1-0.1c0-0.1,0-0.1,0-0.2C391.4,347,391.5,347.1,391.5,347.2z
							 M393.4,336.5c-0.1-0.1-0.2-0.2-0.2-0.3c0.2-0.4,0.3-0.7,0.5-1c0.2,0.1,0.4,0.1,0.6,0.2c-0.5,0.4-0.9,1.1-0.5,1.9
							c3.8,7.2,7.5,14.4,11.2,21.5c0.3,0.7,0.9,0.8,1.5,0.7c-0.2,0.5-0.3,0.9-0.5,1.2C401.6,352.8,397.4,344.7,393.4,336.5z
							 M411.5,348.2c0-0.5,0-1,0-1.5c2.6,4.6,5.5,8.9,8.8,13.1C416.8,356.3,413.9,352.5,411.5,348.2z M408.5,364.9
							c0-0.1-0.1-0.2-0.1-0.2c0.1-0.2,0.3-0.4,0.3-0.6c0.3-1.3,0.7-2.9,1.1-4.4c0.9,1.7,2,3.2,3.4,4.5
							C411.6,364.7,410.1,365,408.5,364.9z M431.9,348.3c-2.4-3.8-5.2-7.4-8.3-10.5c-0.7-0.7-1.7,0.4-1.1,1.1
							c3.2,3.2,6,6.7,8.3,10.6c0.2,0.3,0.5,0.4,0.8,0.3c-0.3,1.5-0.9,2.7-1.6,3.8c0.1-0.2,0-0.4-0.1-0.6c-2.8-4.1-5.7-8.3-8.5-12.5
							c-0.5-0.8-1.8,0-1.3,0.8c2.8,4.1,5.7,8.3,8.5,12.5c0.3,0.5,0.9,0.4,1.2,0.1c-0.6,0.8-1.2,1.6-2,2.3
							c-3.6-4.8-7.2-9.6-10.9-14.4c-0.6-0.8-1.9,0-1.3,0.8c3.7,4.9,7.3,9.8,11,14.6c-1.4,1-3,1.9-4.6,2.8c-4-5.1-7.5-10.4-10.6-16.1
							c-0.1-0.2-0.3-0.3-0.5-0.4c-0.1-0.5-0.3-1-0.5-1.5c0.1-0.1,0.3-0.2,0.4-0.3c4.6,5.1,8.9,10.4,12.8,16c0.5,0.8,1.9,0,1.3-0.8
							c-4-5.6-8.3-11-12.9-16.1c4.3-2.9,8.9-4.7,13.6-7c2.1-1,3.7-2.8,4.1-4.8c1,1.1,1.7,2.5,2.1,4.5
							C433,337.3,432.5,344.2,431.9,348.3z"/>
					</g>
					<g>
						<path class="st3" d="M408.6,330.9c2.7,0,5.6-0.7,8.3-1.1c1.5-0.2,4,0,5-1.4c2.1-2.9-3.4-5.5-5.3-6.1
							c-3.8-1.2-8.1-0.5-10.4,2.8c-0.3,0-0.6,0.2-0.8,0.5C403.3,328.2,405.6,330.9,408.6,330.9z M414.1,324.8c1,0.1,2.1,0.5,3.1,0.9
							c0.5,0.2,0.9,0.5,1.3,0.8c0.1,0,0.1,0.1,0.2,0.1c-0.7,0.7-4.5,0.6-5.5,0.7c-1.1,0.1-2.2,0.3-3.3,0.4c-0.2,0-1.2,0-1.8,0
							c0.1-0.1,0.1-0.1,0.2-0.2C409.3,325.2,411.6,324.4,414.1,324.8z"/>
					</g>
				</g>
				<g>
					<g>
						<path class="st3" d="M356.6,363.4c0-0.3-0.1-0.6-0.4-0.9c-0.5-0.5-1.1-1-1.6-1.5c0-0.9-0.9-1.3-1.7-1.2
							c-3.8-2.4-8.1-3.2-12.8-3.5c-8.1-0.5-10.6,1.5-16,7.4c-5,5.5-8.6,7.6-6.4,15.1c1.9,6.5,4.9,16,9.8,20.8
							c4.7,4.6,14.3,3.5,20.4,3.9c2.4,0.1,6.3,1,8.6-0.2c2.4-1.3,3.3-5.2,4.6-7.3c3.3-5.1,8-9.3,7-15.9
							C367,373.7,361,368.2,356.6,363.4z M340,375.9c1.9-0.9,3.8-1.8,5.6-2.8C344.2,374.9,342.5,375.7,340,375.9z M342.3,361.2
							c0.7-0.3,0.9-1,0.7-1.5c1,0.1,2.1,0.3,3,0.6c-6.4,2.7-12.7,5.5-18.9,8.5C332.1,366,337.2,363.5,342.3,361.2z M339.1,359.4
							C339.1,359.3,339.1,359.3,339.1,359.4C339.2,359.3,339.2,359.3,339.1,359.4C339.2,359.3,339.1,359.3,339.1,359.4z
							 M320.7,375.2C320.7,375.2,320.7,375.2,320.7,375.2c0.2,0.1,0.5,0.3,0.7,0.4c1.3,0.4,2.7,0.9,4.3,1.4c-1.6,0.8-3.1,1.8-4.5,3
							C320.8,378.4,320.6,377,320.7,375.2z M330.5,374.5c-0.3,0.1-0.5,0.3-0.6,0.5c-0.4-0.1-0.8-0.2-1.2-0.3
							c4.9-2.2,9.8-4.4,14.7-6.6C339.2,370.4,334.9,372.6,330.5,374.5z M321.6,381.5c1.8-1.8,3.9-3.1,6.4-3.9
							c0.5,0.1,0.9,0.2,1.4,0.4c-2.6,1.4-5,3-7.2,5C322,382.4,321.8,382,321.6,381.5z M322.7,384.4c2.6-2.3,5.4-4.2,8.5-5.7
							c0.1-0.1,0.2-0.1,0.3-0.2c0.9,0.2,1.9,0.4,2.8,0.5c-3.9,2.1-7.5,4.6-10.7,7.6C323.2,385.8,322.9,385.1,322.7,384.4z
							 M337,379.3c0.5,0,1,0.1,1.5,0.1c-4.7,2.4-9.2,5-13.5,8C328.6,384.1,332.6,381.4,337,379.3z M347.4,370.3
							c-0.2-0.3-0.5-0.5-0.9-0.6c0.6-0.4,1.2-0.7,1.8-1C348,369.2,347.7,369.8,347.4,370.3z M349.2,366.5c-0.1-0.3-0.4-0.6-0.7-0.7
							c0.4-0.2,0.9-0.4,1.3-0.6C349.6,365.6,349.4,366,349.2,366.5z M350.7,362.9c-0.4-0.5-1.1-0.9-1.9-0.5
							c-7.4,3.3-14.8,6.7-22.1,10c-0.7,0.3-0.9,0.9-0.8,1.4c-0.4-0.2-0.8-0.4-1.1-0.5c8.1-4,16.3-7.7,24.6-11.1
							c0.2-0.1,0.4-0.2,0.5-0.4c0.4,0.2,0.7,0.4,1.1,0.6C350.9,362.4,350.8,362.6,350.7,362.9z M349.2,400.6
							c-3.2,0.3-8.8,0.1-13.5-1c3.9-2.2,7.6-4.7,11-7.7c0.7-0.6-0.3-1.7-1.1-1.1c-3.4,3-7.1,5.5-11.1,7.7c-0.3,0.2-0.4,0.4-0.4,0.7
							c-2.3-0.6-4.2-1.5-5.3-2.6c-0.4-0.4-0.7-0.8-1-1.2c0,0,0,0,0,0c5.1-3.4,10.2-6.8,15.3-10.2c0.8-0.5,0-1.8-0.8-1.3
							c-5.1,3.4-10.2,6.8-15.3,10.2c0,0-0.1,0.1-0.1,0.1c-0.9-1.5-1.8-3.1-2.5-4.9c0,0,0,0,0,0c5.4-3.8,11-7,16.9-9.8
							c0.2-0.1,0.3-0.3,0.4-0.4c0.5-0.1,1-0.2,1.5-0.4c0.1,0.1,0.2,0.3,0.3,0.4c-5.3,4.3-10.9,8.3-16.7,11.9
							c-0.8,0.5-0.1,1.8,0.8,1.3c5.8-3.7,11.4-7.7,16.8-12c1.1,1.7,2,3.4,2.9,5.2c1.4,3,2,6.2,3.4,9.1c0.9,1.9,2.3,3.4,4,4
							C353.4,399.7,351.6,400.4,349.2,400.6z M363.4,387.6c-0.9,1.5-2,2.9-3.1,4.3c-1,1.3-1.8,2.6-2.7,3.7c-0.1,0-0.1,0-0.2,0
							c-1.5,0.7-3.7-1.6-4.2-2.8c-0.3-0.7-0.4-1.4-0.7-2.1c-0.5-1.6-1.1-3.3-1.8-4.9c-1.3-3-2.9-5.9-4.7-8.5c3.7-2.8,5.7-8.5,7.3-13
							c2.5,2.9,5.2,5.6,7.5,8.6C364.2,377.1,366.1,382.8,363.4,387.6z"/>
					</g>
				</g>
				<g>
					<path class="st3" d="M293.1,408.5c0-0.3-0.1-0.6-0.5-0.9c-2.6-2.3-5.4,0.2-5.5,3.1c-0.1,2.7,0.4,5.6,0.6,8.3
						c0.1,1.5-0.2,4,1.2,5c2.8,2.1,5.6-3.2,6.4-5.1C296.8,415.2,296.3,410.9,293.1,408.5z M293,416.3c-0.2,1.1-0.7,2.2-1.2,3.2
						c-0.1,0.2-0.3,0.5-0.5,0.7c-0.9,1.1-1.1,1.3-0.7,0.8c0,0,0-2.4,0-2.5c-0.1-0.9-0.1-1.9-0.2-2.8c-0.1-0.9-0.1-1.9-0.2-2.8
						c0-0.2,0-2,0.1-2.8c0.1,0.1,0.1,0.2,0.3,0.2C292.8,411.6,293.5,413.9,293,416.3z"/>
				</g>
				<g>
					<path class="st3" d="M489.2,279.6c3.8-4.6,1.7-10.5-0.9-15.3c-3-5.4-8.3-7.6-14.4-7.2c-4.1,0.3-10.3,0.9-12.8,4.6
						c-1.2,0.5-2.3,1.2-3.2,2c-0.6,0.2-1.1,0.6-1.3,1.5c-1.7,2.2-2.1,5.1-0.4,8.3c0.1,0.2,0.3,0.4,0.4,0.5c1.1,4.7,3.9,9,8,11.9
						c1.3,0.9,3,1.9,4.9,2.5c-0.9,1.6,0.3,4.1,2.4,3.3C478.3,289.4,485,284.9,489.2,279.6z M464.1,279.3c-2.8-3.5-4-7.8-3.2-12.2
						c0.5-0.5,1.2-1,1.9-1.2c0.5,0,0.9-0.1,1.3-0.4c0.2,0,0.4-0.1,0.5-0.1c2.9-0.3,6.1,1,8.6,2.3c3,1.6,5,3.4,4.6,7.1
						c-0.2,2.4-1.5,4.9-2.9,6.9c-1.8,2.5-3.2,3-6,1.6C467.1,282.4,465.4,280.9,464.1,279.3z M482.2,280c-0.6,0.5-1.3,1.1-1.9,1.6
						c0.6-1.4,1.2-2.9,1.5-4c2.3-8.2-3.6-13.6-10.7-15.8c2.3-0.3,4.5-0.3,5.4-0.2c5.4,0.4,8,4.2,9.5,8.9
						C487.5,275,485.4,277.2,482.2,280z"/>
				</g>
				<g>
					<path class="st3" d="M127.2,281c0.1-0.3,0.1-0.6,0.1-0.9c7.1-5.7,8-16.9,0.5-23.4c-8.8-7.6-21.7-4.6-27.6,4.6
						c-0.4,0.3-0.7,0.7-0.8,1.3c-0.2,0.4-0.4,0.8-0.6,1.2c-0.4,0.8-0.2,1.6,0.2,2.2c-0.8,6.9-0.6,14.8,5.6,19.1
						c3.7,2.6,8.3,2.7,12.6,1.9C120.7,286.3,126.3,285.1,127.2,281z M122.5,258.5c6,3.2,7.8,11.2,4.1,16.2c-0.7-2.2-1.7-4.4-2.6-6.1
						c-1.8-3.6-4.8-7-8.6-8.5c-2.2-0.9-4.7-1.1-7.1-0.7C112.4,256.6,117.6,255.9,122.5,258.5z M114.5,264.5c-0.2,0-0.5,0.2-0.6,0.5
						c-2.2,5.7-3.4,11.6-3.5,17.7c-0.6-0.1-1.1-0.4-1.6-0.6c0.3-6.1,0.7-12.3,1.1-18.4C111.4,263.5,113.1,263.8,114.5,264.5z
						 M104.9,278.9c-1.7-2.7-1.9-6.1-1.7-9.4c0.2-0.2,0.3-0.5,0.4-0.9c0.6-2.5,2.5-4.1,4.7-4.7c-0.3,5.8-0.7,11.6-1,17.4
						C106.3,280.7,105.5,279.9,104.9,278.9z M114.9,283.1c-0.5-4.4,0.1-8.6,1.9-12.7c0.4-0.9-0.9-1.6-1.3-0.8
						c-1.9,4.4-2.6,8.8-2.1,13.5c-0.5,0-1,0-1.5-0.1c0.1-6,1.3-11.9,3.5-17.6c0.1-0.1,0.1-0.2,0.1-0.3c1.6,1.1,3.3,3,4.6,5.2
						c-0.4,0-0.8,0.2-0.9,0.7c-0.3,3.7-0.6,7.3-0.9,11c0,0.1,0,0.2,0,0.3C117.2,282.7,116.1,283,114.9,283.1z M119.8,281.5
						c0.3-3.4,0.6-6.8,0.8-10.1c1.2,2.3,1.9,4.8,1.6,6.7c-1.1,0.5-1.5,1.6-1.4,2.5C120.5,280.9,120.2,281.2,119.8,281.5z"/>
				</g>
				<g>
					<path class="st3" d="M522.8,331c-3.4-0.1-6.7,0.2-9.9,1.3c-0.8,0.3-1.6,0.6-2.3,0.9c1.2-2.4,2.1-4.9,2.4-7.7
						c0.3-2.2,0.2-4.4-0.1-6.5c-0.5-3.1-2.2-6-2.1-9.1c0-1.8-2.6-3.1-3.8-1.6c-7.6,9.1-9.6,18-5,29.1c0,0.1,0.1,0.2,0.2,0.3
						c-0.2,0.7-0.2,1.6,0.3,2.2c-0.1,1.9-0.1,3.7-0.2,5.6c0,0.5-0.1,0.9-0.1,1.3c-0.8-2.2-2.2-4.1-4.7-5.2c-1-0.4-2.3,0-2.3,1.3
						c0.1,2.2,0.2,4.5,1,6.5c0.8,1.9,2.1,3.4,3.4,4.9c0.1,0.1,0.2,0.1,0.2,0.2c-1.1,2-2.5,3.9-4.3,5.6c-1.4,1.3,0.7,3.5,2.1,2.1
						c3.2-3.1,5.7-6.8,6.8-11.2c0.6-2.2,0.7-4.5,0.8-6.8h0c0.6,0.1,1.1,0.1,1.5,0c2.9,0.1,5.7-1.1,8.2-2.5c3.4-1.9,6.9-3.9,9.3-7.1
						C525.5,333.3,524.8,331,522.8,331z"/>
				</g>
				<g>
					<path class="st3" d="M88.4,348.5c-2.9,1.4-5.6,3.3-7.9,5.6c-0.6,0.7-1.2,1.4-1.8,2.1c-0.1-2.8-0.6-5.6-1.7-8.4
						c-0.8-2.1-1.9-4-3.3-5.7c-1.8-2.4-4.5-4-5.9-6.7c-0.9-1.7-3.7-1.3-4.1,0.5c-2.4,11.7,0.1,20.4,9.3,28c0.1,0.1,0.2,0.1,0.3,0.2
						c0.2,0.6,0.6,1.2,1.2,1.6c0.7,1.5,1.5,2.9,2.2,4.5c0.3,0.6,0.5,1.2,0.8,1.7c-1.7-1.3-4.4-2.3-6.5-2.1c-1.1,0.1-1.9,1.2-1.3,2.3
						c1,1.8,2.1,3.6,3.7,5c1.7,1.4,3.7,2.2,5.7,3c0.1,0,0.1,0,0.2,0c0,2.3-0.3,4.6-1.1,7c-0.6,1.8,2.3,2.6,2.9,0.8
						c1.5-4.5,1.8-9.1,0.6-13.7c-0.6-2-1.4-3.8-2.3-5.6c0.5-0.1,0.9-0.4,1.2-0.7c2.5-1.1,4.4-3.5,5.9-5.8c2.3-3.4,4.5-7,5.2-11.1
						C92,349,90.2,347.6,88.4,348.5z"/>
				</g>
				<g>
					<path class="st3" d="M523.3,197.8c0.1,0,0.2,0,0.3-0.1c0.6,0.4,1.4,0.5,2,0.3c2.1,0.8,4.3,1.4,6.5,2.3c0.1,0,0.2,0.1,0.3,0.1
						c-2.4,0.1-4.7,0.9-6.5,3c-0.7,0.8-0.5,2.2,0.7,2.5c1.9,0.6,4,1.1,6,1c2.2-0.1,4.2-1,6.2-1.9c0.1,0,0.2-0.1,0.2-0.1
						c1.6,1.7,3,3.6,4,5.8c0.8,1.7,3.4,0.2,2.6-1.5c-2-4.2-5-7.7-9-10.1c-1.8-1.1-3.8-1.8-5.8-2.5c0.3-0.5,0.5-1,0.4-1.4
						c2.2-5.9-0.7-15.1-3.9-19.8c-1.1-1.6-3.4-1.3-4.1,0.5c-1.2,3.2-1.8,6.5-1.7,9.9c0,0.8,0.1,1.5,0.2,2.3c-2-1.9-4.3-3.5-6.9-4.7
						c-2.1-0.9-4.3-1.6-6.6-1.9c-2.9-0.4-5.9,0.3-8.7-0.6c-1.8-0.6-3.6,1.7-2.5,3.3C503.4,194.3,511.4,198.8,523.3,197.8z"/>
				</g>
				<g>
					<path class="st3" d="M224.3,425.1c-0.4,0.5-0.3,1,0,1.5c0.2,3.3,1.6,6.6,3.5,9.3c4.1,6,12.8,9.7,19.5,6.6
						c7.3-3.4,8.4-13.4-0.3-15.4c-3.9-0.9-5.9-1.8-7.7-5.5c-0.7-1.5-1.3-3-2.5-4.1c-2.4-2.3-6-2.3-8.6-0.2
						C225.6,419.2,224.4,422,224.3,425.1z M227.5,426.5c0.4-0.1,0.7-0.1,1.1,0c0.4,0,1.4,0.1,1.9,0.4c0.1,0,0.1,0.1,0.1,0.2
						c0.1,0,0.1,0.1,0.1,0.1c0.4,0.8-1,4-1.7,3.1c-0.3-0.4-0.6-0.5-1-0.6c-0.1,0-0.1-0.1-0.2-0.1
						C227.6,428.5,227.5,427.5,227.5,426.5z M233.8,430.6c-0.4,0.3-0.7,0.8-0.7,1.2c-0.2-0.1-0.3-0.2-0.5-0.3
						c0.3-0.4,0.5-0.8,0.6-1.3C233.4,430.4,233.6,430.5,233.8,430.6z M240.2,440.4c0,0,0-0.1,0.1-0.1c0.2,0.1,0.4,0.1,0.6,0.1
						c0,0,0.1,0.1,0.1,0.1C240.8,440.5,240.5,440.5,240.2,440.4z M243.2,440.1c0.2,0.1,0.5,0.2,0.7,0.2c-0.4,0.1-0.7,0.1-1.1,0.2
						C243,440.4,243.1,440.3,243.2,440.1z M247.9,435.5c0.1-0.1,0.2-0.2,0.2-0.3c0.1,0.2,0.1,0.4,0.2,0.6c-0.1,0-0.1-0.1-0.2-0.1
						C248.1,435.6,248,435.5,247.9,435.5z M228.8,421.5c0,0.2-0.1,0.3-0.1,0.5c-0.2,0.1-0.4,0.3-0.6,0.4
						C228.2,422,228.5,421.7,228.8,421.5z M248.8,437.6c0-0.1,0-0.1,0.1-0.2C248.9,437.4,248.9,437.4,248.8,437.6
						C248.9,437.5,248.9,437.5,248.8,437.6z M246.5,429.9c0.1,0.4,0.3,0.8,0.4,1.2c-0.5-0.1-1-0.3-1.4-0.4c-0.2-0.4-0.4-0.8-0.7-1.1
						C245.4,429.6,246.1,429.7,246.5,429.9z"/>
				</g>
				<g>
					<path class="st3" d="M175.7,254.4c0.1-3.9,0.7-6.1,4-8.6c1.3-1,2.7-1.8,3.6-3.2c1.8-2.8,1.1-6.3-1.4-8.5
						c-2.5-2.2-5.6-2.8-8.6-2.4c-0.6-0.2-1.1-0.1-1.4,0.3c-3.2,0.8-6.2,2.8-8.4,5.2c-5.2,5.2-7.1,14.4-2.8,20.4
						C165.4,264.1,175.4,263.3,175.7,254.4z M172.5,235.1c0.1,0.3,0.2,0.7,0.2,1.1c0,0.4,0.1,1.4,0,1.9c0,0.1-0.1,0.1-0.1,0.2
						c0,0.1-0.1,0.1-0.1,0.2c-0.7,0.5-4.1-0.2-3.4-1.1c0.3-0.3,0.4-0.7,0.4-1.1c0-0.1,0.1-0.1,0.1-0.2
						C170.5,235.6,171.5,235.2,172.5,235.1z M169.7,242c-0.4-0.3-0.9-0.5-1.4-0.4c0.1-0.2,0.1-0.4,0.2-0.6c0.4,0.2,0.9,0.3,1.4,0.4
						C169.8,241.6,169.7,241.8,169.7,242z M162.1,253.1c0,0.2-0.1,0.5-0.1,0.7c-0.1-0.3-0.3-0.7-0.4-1
						C161.7,252.9,161.9,253,162.1,253.1z M167.5,256.9c0.1,0.1,0.2,0.1,0.3,0.2c-0.2,0.1-0.4,0.2-0.5,0.3c0-0.1,0.1-0.1,0.1-0.2
						C167.5,257,167.5,257,167.5,256.9z M161.3,250.2c0,0.2,0,0.4,0,0.6c0,0.1,0,0.1-0.1,0.1c0-0.3-0.1-0.5-0.1-0.8
						C161.2,250.2,161.3,250.2,161.3,250.2z M165.6,258.1c0.1,0,0.1,0,0.2,0c0,0-0.1,0-0.1,0.1C165.7,258.2,165.7,258.2,165.6,258.1
						z M172.7,254.4c-0.4,0.2-0.7,0.4-1.1,0.6c0.1-0.5,0.1-1,0.2-1.5c0.3-0.3,0.7-0.5,0.9-0.9C172.8,253.3,172.9,253.9,172.7,254.4z
						 M177.6,235.4c-0.2,0-0.3,0-0.5,0c-0.2-0.2-0.4-0.4-0.6-0.6C177.1,235,177.4,235.1,177.6,235.4z"/>
				</g>
				<g>
					<path class="st3" d="M244.9,151.3c2.9,6,9.5,10.8,16.1,9.9c7.5-1,13.4-11.1,4.8-15.1c-2.8-1.4-5.7-2-6.8-5.4
						c-0.7-2.2-0.7-4.7-2.2-6.5c-2-2.6-5.6-3.1-8.5-1.6c-3,1.6-4.6,4.1-5.3,7.1c-0.3,0.4-0.3,0.8-0.2,1.2
						C242.5,144.3,243.3,148.1,244.9,151.3z M250.9,146.4c0.1,0.1,0.3,0.3,0.5,0.4c0,0,0.1,0,0.1,0.1c-0.5,0.2-0.8,0.6-0.9,1.1
						c-0.1-0.1-0.3-0.3-0.4-0.4C250.4,147.1,250.6,146.7,250.9,146.4z M255.9,157.5c0.1,0.1,0.3,0.1,0.4,0.1
						c0.1,0.1,0.1,0.1,0.2,0.2C256.3,157.8,256.1,157.7,255.9,157.5C255.8,157.6,255.9,157.5,255.9,157.5z M247.5,141.8
						c0.4,0.1,0.7,0.3,1.1,0.5c0.2,0.1,0.3,0.2,0.5,0.3c0,0.1,0.1,0.1,0.1,0.2c0,0,0,0,0,0c0,0.1-0.1,0.2-0.1,0.3
						c-0.1,0.6-1.5,3.7-2.3,2.2c-0.2-0.4-0.5-0.7-0.9-0.7c0-0.6-0.1-1.2,0-1.9c0-0.4,0.1-0.8,0.1-1.1
						C246.5,141.5,246.9,141.6,247.5,141.8z M258.4,158.2c0.1-0.1,0.3-0.2,0.4-0.3c0.2,0.1,0.4,0.2,0.6,0.4
						C259,158.3,258.7,158.2,258.4,158.2z M264.9,156.5c0.4-0.5,0.5-1.3-0.1-1.9c-0.1-0.1-0.2-0.2-0.3-0.3c0.2-0.1,0.3-0.3,0.4-0.5
						c0.6,0.2,1.1,0.5,1.7,0.7c0,0.1-0.1,0.2-0.1,0.3C266.1,155.4,265.5,156,264.9,156.5z M267.1,151.4c-1.4-0.8-2.8-1.5-4.1-2.3
						c-0.1-0.4-0.2-0.8-0.4-1.1c0.1,0,0.1,0.1,0.2,0.1C264.7,148.9,266.9,149.4,267.1,151.4z M255.1,137.3c-0.2-0.1-0.4-0.3-0.6-0.4
						C254.7,136.9,254.9,137.1,255.1,137.3z M248.1,137.1c0,0.1-0.1,0.2-0.1,0.3c-0.2,0.1-0.4,0.2-0.7,0.3
						C247.6,137.4,247.8,137.2,248.1,137.1z"/>
				</g>
				<g>
					<path class="st3" d="M141.2,408c-2,0.1-3.8,1.6-3.8,3.8c0,0.3,0,0.7,0,1c0,2,1.7,3.8,3.8,3.8s3.8-1.6,3.8-3.8c0-0.3,0-0.7,0-1
						C144.9,409.7,143.2,407.9,141.2,408z"/>
				</g>
				<g>
					<path class="st3" d="M211.6,160.3c2-0.1,3.8-1.6,3.8-3.8c0-0.3,0-0.7,0-1c0-2-1.7-3.8-3.8-3.8s-3.8,1.6-3.8,3.8
						c0,0.3,0,0.7,0,1C207.9,158.5,209.6,160.4,211.6,160.3z"/>
				</g>
				<g>
					<path class="st3" d="M320,428.3c-0.3,0.3-0.7,0.7-1,1c-0.9,0.9-0.9,2.3,0,3.2s2.3,0.9,3.2,0c0.3-0.3,0.7-0.7,1-1
						c0.9-0.9,0.9-2.3,0-3.2S320.9,427.4,320,428.3z"/>
				</g>
				<g>
					<path class="st3" d="M293.4,93.6c1.4,1.4,3.9,1.5,5.3,0c1.4-1.5,1.5-3.8,0-5.3c-0.3-0.3-0.7-0.7-1-1c-1.4-1.4-3.9-1.5-5.3,0
						c-1.4,1.5-1.5,3.8,0,5.3C292.8,92.9,293.1,93.2,293.4,93.6z"/>
				</g>
				<g>
					<path class="st3" d="M563.4,200.8c0-0.3,0-0.7,0-1c0-1.9-3-1.9-3,0c0,0.3,0,0.7,0,1C560.4,202.8,563.4,202.8,563.4,200.8z"/>
				</g>
				<g>
					<path class="st3" d="M517.9,238c0.5,1.1,2.1,1.4,3.1,0.8c1.1-0.6,1.4-2,0.8-3.1c-0.3-0.7-0.7-1.3-1-2c-0.5-1.1-2.1-1.4-3.1-0.8
						c-1.1,0.6-1.4,2-0.8,3.1C517.2,236.7,517.6,237.3,517.9,238z"/>
				</g>
				<g>
					<path class="st3" d="M552.7,320.8c0,1.2,1,2.2,2.2,2.2c0.3,0,0.7,0,1,0c1.2,0,2.3-1,2.2-2.2s-1-2.2-2.2-2.2c-0.3,0-0.7,0-1,0
						C553.8,318.5,552.6,319.5,552.7,320.8z"/>
				</g>
				<g>
					<path class="st3" d="M448.6,397.9c-1.1-1.1-3.1-1.2-4.2,0c-1.1,1.2-1.2,3,0,4.2c0.3,0.3,0.7,0.7,1,1c1.1,1.1,3.1,1.2,4.2,0
						c1.1-1.2,1.2-3,0-4.2C449.3,398.6,449,398.3,448.6,397.9z"/>
				</g>
				<g>
					<path class="st3" d="M444,289.8c-0.3,0-0.7,0-1,0c-1.9,0-1.9,3,0,3c0.3,0,0.7,0,1,0C446,292.8,446,289.8,444,289.8z"/>
				</g>
			</g>
			<g>
				<path class="st3" d="M338.1,145.9c-29.6-1.2-43.9,28.9-61.1,47.5c-10.3,11.2-23.9,17.2-36.2,25.8c-11.1,7.8-19.1,18.2-26.8,29.1
					c-8.7,12.2-17.4,23.3-30.1,31.5c-11.8,7.6-23.6,14.2-33.4,24.3c-10,10.4-18.6,22.3-30.5,30.6c-9.1,6.4-20.5,11.8-24.2,23.1
					c-4.3,13.3,4.5,26.5,11.4,37.2c7.8,12,16.9,21.7,29.7,28.4c6,3.1,12.3,5.6,18.6,8c6.5,2.4,13.3,5.4,20.3,5.6
					c14.2,0.5,27.1-11.8,38-19.4c26.4-18.3,52.2-38.6,80.9-53.2c12.5-6.3,25.4-11.9,36.8-20c11.4-8.1,18.8-18.9,27.3-29.8
					c4.9-6.3,10.4-11.6,17.1-16c6.3-4.1,12.8-7.8,18.8-12.3c12.6-9.3,24-20,35.7-30.4c10.1-8.9,23.4-17.8,29.1-30.4
					c5-10.8,0.9-21.8-7.1-29.8c-4.3-4.3-9.3-7.8-14.3-11.1c0.2,1.3,0.3,2.6,0.5,3.9c6-5.8,3.5-15-2.5-19.7
					c-3.9-3.1-8.6-4.7-13.2-6.4c-6.4-2.4-12.7-4.8-19-7.1c-11.8-4.4-24-10.3-36.5-12.4c-5.2-0.9-10.3-0.7-15.5,0.4
					c-6.9,1.4-13.6,3.9-20.6,2c-3.1-0.8-4.5,4-1.3,4.8c9.1,2.4,17.4-1.4,26.4-2.5c11-1.4,21.6,3.3,31.7,7.1c10,3.7,20,7.5,29.9,11.2
					c4.4,1.7,9.2,3.1,13.2,5.6c4.4,2.8,8.6,9.1,3.9,13.6c-1.2,1.2-0.8,3.1,0.5,3.9c9.5,6.2,22.5,15.2,21.2,28.3
					c-1.4,13.6-16.9,23.7-26.2,31.9c-11,9.7-21.8,19.7-33.2,28.9c-10.6,8.4-23.2,14.2-33.3,23.3c-10.1,9.1-16.1,21.6-25.8,31
					c-9.4,9.2-21.3,15.5-33,21.3s-23.3,11.6-34.4,18.7c-12.8,8.2-25.1,17.1-37.6,25.8c-12.8,8.9-25.5,18-38.5,26.7
					c-5.4,3.6-11.4,7.2-18.1,7.3c-7,0.1-14.2-3.4-20.6-5.8c-12.9-4.8-25.7-10.6-35.1-20.9c-4.6-5-8.2-10.8-11.9-16.5
					c-4.2-6.7-8.9-14.1-9.4-22.2c-1-13.7,12-20.2,21.7-26.8c10.6-7.2,18.7-16.8,27.1-26.2c9.4-10.5,19.5-18.3,31.6-25.6
					c10.7-6.5,20.1-13.5,28-23.3c9-11.1,16.1-23.8,26.4-33.9c10.7-10.4,24.7-16.1,36.4-25.1c21.9-16.8,34.9-56.2,67.3-54.9
					C341.3,151,341.3,146,338.1,145.9L338.1,145.9z"/>
				<path class="st3" d="M436.5,179.3c-7.6,20-27.2,31-44.3,42c-8.8,5.6-17.2,11.6-25.2,18.5c-9.6,8.4-18.9,17-29.9,23.5
					c-10.4,6.2-20.1,11.9-28.1,21.2c-8.1,9.6-16.2,18.7-25.7,27c-20.1,17.6-41.2,34-63.1,49.3c-12.1,8.4-24.3,16.5-36.9,24.1
					c-8.4,5.2-22.8,10.2-24.1,21.6c-0.4,3.2,4.6,3.2,5,0c0.7-6.1,8.3-9.3,12.9-12c5.8-3.4,11.5-7,17.2-10.6
					c10.9-6.9,21.6-14,32.1-21.5c20.9-14.8,41.1-30.6,60.3-47.5c9.5-8.3,17.6-17.4,25.7-27c8.3-9.7,18.5-15.2,29.2-21.7
					c10-6.2,18.6-14.1,27.4-21.9c8.4-7.3,17.3-13.7,26.7-19.7c18-11.5,37.4-23.2,45.4-44.2C442.5,177.6,437.7,176.4,436.5,179.3
					L436.5,179.3z"/>
				<path class="st3" d="M177.9,432.7c-18.1-3.5-34.8-15.6-48.4-27.6c-14-12.3-25.4-28.2-27.2-47.2c-0.8,0.6-1.7,1.3-2.5,1.9
					c8.9,2.1,16.1,7.5,23,13.3c7.3,6.1,14.4,12.5,21.3,19.1c6.3,6.1,12.7,12.3,18.4,19c2.8,3.3,5.5,6.9,7.6,10.7
					c1.1,1.9,2,3.9,2.7,6c1,2.7,1.7,6.1-2.5,4.5c-3.7-1.4-7.4-5.1-10.7-7.3c-4.3-3-8.6-6-12.9-8.9c-7.8-5.4-16.3-10.4-22.7-17.5
					c-3.3-3.6-5.8-7.8-7.5-12.4c-1-2.8-4.7-13.3,0-13.2c3.2,0,7.6,3.4,10.3,5c3.7,2.2,7.2,4.8,10.5,7.6c13.7,11.6,23.6,27.3,28,44.8
					c0.6-0.8,1.3-1.7,1.9-2.5c-12.2,0.7-23.3-11.4-29.4-20.7c-3.1-4.8-5.5-9.9-7.2-15.4c-0.6-2-2.8-7.7,0.6-7.6
					c2.2,0.1,5.7,3.1,7.5,4.4c4.6,3.2,8.7,7,12.2,11.3c2,2.5,4,5.1,5.5,8c1.2,2.1,3.8,10.1-1.2,7.2c-10.1-6-17.4-15.7-20.6-26.9
					c-0.3,0.8-0.6,1.5-0.9,2.3c8-3.5,12.6,11.6,16.7,15.9c1.8,1.9,4.6-1,2.8-2.8c-6.1-6.2-9.6-21.8-21.6-16.5
					c-0.8,0.4-1.1,1.5-0.9,2.3c3.4,11.7,10.9,22,21.2,28.5c3.4,2.1,7.7,4.5,9.8-0.5c2.5-5.8-2.1-12.3-5.3-16.7
					c-3.7-5.1-8-9.6-13-13.4c-3.6-2.8-9.7-8-14.7-7.2c-9.8,1.6,1.8,23,4.4,27.3c6.8,11.3,19.6,25.5,34,24.7c1.3-0.1,2.3-1.2,1.9-2.5
					c-4.9-19.3-16.2-36.6-31.9-48.9c-3.5-2.7-7.1-5.2-11-7.4c-3.3-1.9-7.8-4.9-11.9-4.2c-8.2,1.5-2.7,16.3-0.8,20.7
					c4.3,10,12.3,16.8,21,22.9c10.8,7.6,21.5,16,32.8,22.8c6.1,3.6,12.2,1.6,10.1-6.1c-2.6-9.7-9.1-17.8-15.8-25
					c-9.5-10.3-19.7-20-30.3-29.1c-9.1-7.9-18.4-16.2-30.4-19.1c-1.2-0.3-2.7,0.6-2.5,1.9c1.8,19.5,12.8,36,27.1,48.9
					c14.3,12.9,32.2,26,51.5,29.7C179.4,437,180.4,433.2,177.9,432.7L177.9,432.7z"/>
				<path class="st3" d="M172.8,417.6c6.2-25.2,37.5-29.8,55-44.6c9.2-7.8,16.5-17.5,25.7-25.3c9.8-8.4,20.9-15.1,31.7-22.2
					c9.8-6.4,19.3-13.3,28.1-21c9.9-8.7,19.1-18,29.2-26.5c21.2-17.9,46.3-31.3,69.9-45.8c6.7-4.1,13.3-8.2,20-12.3
					c3.3-2.1,6.7-4.1,10-6.1c2-1.2,4.8-2.4,6.2-4.5c2.5-3.6-0.7-8.7-2.5-12c-3.2-5.8-7.5-10.7-12.5-14.9c-1.5-1.2-3.6,0.9-2.1,2.1
					c4.5,3.7,8.3,7.9,11.3,12.9c1.6,2.6,4.9,7.4,3,10.6c-0.7,1.2-3.7,2.4-4.9,3.2c-1.7,1-3.3,2.1-5,3.1c-11.7,7.2-23.3,14.4-35,21.5
					c-22.1,13.6-45,26.4-64.6,43.6c-9.4,8.3-18.3,17.2-27.8,25.3c-9.6,8.2-20,15.1-30.5,21.9c-9.6,6.2-19.2,12.5-27.9,20
					c-8.9,7.7-16,17.3-25.1,24.8c-18.1,14.9-48.6,19.3-55.1,45.3C169.5,418.7,172.4,419.5,172.8,417.6L172.8,417.6z"/>
				<path class="st3" d="M177.1,417.8c2.4,2.7,4.2,5.8,5.5,9.1c0.7,1.8,3.6,1,2.9-0.8c-1.5-3.9-3.6-7.3-6.3-10.5
					C178,414.2,175.9,416.3,177.1,417.8L177.1,417.8z"/>
				<path class="st3" d="M178.8,413.8c2.8,2.6,5.1,5.6,6.9,9c0.9,1.7,3.5,0.2,2.6-1.5c-1.9-3.6-4.4-6.9-7.3-9.6
					C179.6,410.4,177.4,412.5,178.8,413.8L178.8,413.8z"/>
				<path class="st3" d="M187.6,403.6c4,4.6,7.6,9.5,10.5,14.8c0.3,0.6,1.2,0.1,0.9-0.5c-3-5.4-6.6-10.4-10.7-15
					C187.9,402.4,187.1,403.1,187.6,403.6L187.6,403.6z"/>
				<path class="st3" d="M191.9,402c2.3,3.7,4.5,7.5,6.8,11.2c0.3,0.5,1.2,0,0.9-0.5c-2.3-3.7-4.5-7.5-6.8-11.2
					C192.4,401,191.5,401.5,191.9,402L191.9,402z"/>
				<path class="st3" d="M197.1,401.5c1.9,2.4,3.8,4.8,5.7,7.2c0.4,0.5,1.1-0.2,0.7-0.7c-1.9-2.4-3.8-4.8-5.7-7.2
					C197.5,400.2,196.8,401,197.1,401.5L197.1,401.5z"/>
				<path class="st3" d="M201.1,402.6c1,1.5,2,3,3,4.5c0.4,0.5,1.2,0,0.9-0.5c-1-1.5-2-3-3-4.5C201.6,401.6,200.8,402.1,201.1,402.6
					L201.1,402.6z"/>
				<path class="st3" d="M221.5,388.4c2.9,2.7,5.1,6,6.4,9.7c0.2,0.6,1.2,0.3,1-0.3c-1.4-3.9-3.6-7.3-6.7-10.1
					C221.7,387.3,221,388,221.5,388.4L221.5,388.4z"/>
				<path class="st3" d="M230.4,376.5c3.3,4.3,5.4,9.3,6,14.6c0.1,0.6,1.1,0.6,1,0c-0.6-5.7-2.7-10.9-6.3-15.4
					C230.7,375.3,230,376,230.4,376.5L230.4,376.5z"/>
				<path class="st3" d="M228.9,381.6c2.3,4.1,4.8,8.1,7.6,12c0.4,0.5,1.2,0,0.9-0.5c-2.8-3.9-5.3-7.8-7.6-12
					C229.4,380.6,228.6,381.1,228.9,381.6L228.9,381.6z"/>
				<path class="st3" d="M234.7,366.3c6,5.7,10,13.1,11.5,21.2c0.1,0.6,1.1,0.4,1-0.3c-1.6-8.3-5.7-15.9-11.8-21.7
					C234.9,365.1,234.2,365.8,234.7,366.3L234.7,366.3z"/>
				<path class="st3" d="M240.3,362.9c4.8,5.1,8.3,11.2,10.4,17.9c0.2,0.6,1.1,0.4,1-0.3c-2.1-6.9-5.7-13.1-10.6-18.3
					C240.6,361.7,239.9,362.4,240.3,362.9L240.3,362.9z"/>
				<path class="st3" d="M247.5,362.2c1.8,4,3.6,8,5.3,12c0.3,0.6,1.1,0.1,0.9-0.5c-1.8-4-3.6-8-5.3-12
					C248.1,361.1,247.2,361.6,247.5,362.2L247.5,362.2z"/>
				<path class="st3" d="M252.9,362.3c2.4,2.1,3.9,4.9,4.6,8c0.1,0.6,1.1,0.4,1-0.3c-0.7-3.3-2.3-6.2-4.8-8.4
					C253.2,361.1,252.4,361.8,252.9,362.3L252.9,362.3z"/>
				<path class="st3" d="M261.2,351.8c3.5,2.9,6.1,6.6,7.4,11c0.2,0.6,1.1,0.4,1-0.3c-1.4-4.5-4-8.4-7.7-11.4
					C261.4,350.6,260.7,351.4,261.2,351.8L261.2,351.8z"/>
				<path class="st3" d="M271,348.7c2,1.9,3.3,4.4,3.6,7.1c0.1,0.6,1.1,0.6,1,0c-0.4-3-1.7-5.7-3.9-7.9
					C271.2,347.6,270.5,348.3,271,348.7L271,348.7z"/>
				<path class="st3" d="M266.6,355.4c0.4,0.6,1.2,1.4,1.7,2.1c0.5,0.7,0.9,1.4,1.3,2.1c1,1.7,1.7,3.5,2.4,5.4
					c0.2,0.6,1.2,0.4,1-0.3c-1.1-3.3-2.7-6.9-5-9.5c-0.4-0.5-0.9-1-1.6-0.8c-0.7,0.2-0.9,0.9-0.5,1.5
					C266,356.4,266.9,355.9,266.6,355.4L266.6,355.4z"/>
				<path class="st3" d="M258.9,356.9c1.2,1.8,2.5,3.5,3.8,5.3c0.4,0.5,1.2,0,0.9-0.5c-1.2-1.8-2.5-3.5-3.8-5.3
					C259.4,355.9,258.5,356.4,258.9,356.9L258.9,356.9z"/>
				<path class="st3" d="M274.2,340.1c0.2-0.9,2.3,1.7,2.3,1.7c0.4,0.5,0.8,0.9,1.1,1.4c1.2,1.5,2.4,3,3.5,4.5
					c1.8,2.5,3.5,5.2,5.1,7.9c0.3,0.5,1.2,0,0.9-0.5c-2.6-4.4-5.5-8.6-8.7-12.6c-0.5-0.6-4.5-5.8-5.2-2.6
					C273.1,340.4,274.1,340.7,274.2,340.1L274.2,340.1z"/>
				<path class="st3" d="M283.4,339c1.9,3.2,3.7,6.4,5.6,9.6c0.3,0.6,1.2,0,0.9-0.5c-1.9-3.2-3.7-6.4-5.6-9.6
					C284,337.9,283.1,338.4,283.4,339L283.4,339z"/>
				<path class="st3" d="M292.7,337.5c1.7,1.6,2.9,3.6,3.6,5.8c0.2,0.6,1.2,0.4,1-0.3c-0.8-2.4-2.1-4.5-3.9-6.2
					C293,336.3,292.3,337,292.7,337.5L292.7,337.5z"/>
				<path class="st3" d="M304.3,322.6c5.3,7.2,8.9,15.5,10.6,24.3c0.1,0.6,1.1,0.4,1-0.3c-1.7-8.9-5.4-17.2-10.7-24.5
					C304.8,321.6,304,322.1,304.3,322.6L304.3,322.6z"/>
				<path class="st3" d="M310.6,322.4c3.9,5.3,6.7,11.2,8.5,17.5c0.1,0.5,1,0.4,1-0.1c0-0.7-0.1-1.3-0.1-2c0-0.6-1-0.6-1,0
					c0,0.7,0.1,1.3,0.1,2c0.3,0,0.6-0.1,1-0.1c-1.8-6.4-4.7-12.4-8.6-17.8C311.1,321.4,310.2,321.9,310.6,322.4L310.6,322.4z"/>
				<path class="st3" d="M314.1,317.5c3,4.1,5.3,8.6,6.8,13.5c0.2,0.6,1.1,0.4,1-0.3c-1.2-5.4-2.4-10.8-3.5-16.1
					c-0.3,0.1-0.6,0.3-0.9,0.4c2.1,4.1,4.2,8.3,6.3,12.4c0.3,0.6,1.1,0.1,0.9-0.5c-2.1-4.1-4.2-8.3-6.3-12.4c-0.3-0.5-1-0.1-0.9,0.4
					c1.2,5.4,2.4,10.8,3.5,16.1c0.3-0.1,0.6-0.2,1-0.3c-1.5-5-3.8-9.6-6.9-13.8C314.6,316.5,313.7,317,314.1,317.5L314.1,317.5z"/>
				<path class="st3" d="M324.4,309.6c2.8,3.3,4.7,7.1,5.7,11.4c0.4,1.9,3.3,1.1,2.9-0.8c-1.1-4.7-3.3-9-6.5-12.7
					C325.3,306,323.2,308.1,324.4,309.6L324.4,309.6z"/>
				<path class="st3" d="M325.6,304.1c2.7,3.9,4.9,8,6.6,12.4c0.7,1.8,3.6,1,2.9-0.8c-1.8-4.6-4.1-9-6.9-13.1
					C327.1,301,324.5,302.5,325.6,304.1L325.6,304.1z"/>
				<path class="st3" d="M336.5,297.8c1.5,3,3.1,6,4.6,9c0.6,1.1,2.3,0.1,1.7-1c-1.5-3-3.1-6-4.6-9
					C337.6,295.7,335.9,296.7,336.5,297.8L336.5,297.8z"/>
				<path class="st3" d="M337.6,289.9c4.4,6,7.7,12.5,9.7,19.6c0.4,1.2,2.3,0.7,1.9-0.5c-2.1-7.3-5.4-14-9.9-20.1
					C338.5,287.9,336.8,288.9,337.6,289.9L337.6,289.9z"/>
				<path class="st3" d="M343.8,287.4c2.5,5.1,4.4,10.4,5.5,15.9c0.2,1.1,2,0.9,2-0.3c-0.1-0.9-0.1-1.8-0.2-2.8
					c-0.1-1.3-2.1-1.3-2,0c0.1,0.9,0.1,1.8,0.2,2.8c0.6-0.1,1.3-0.2,2-0.3c-1.2-5.7-3.1-11.2-5.8-16.4
					C345,285.2,343.2,286.3,343.8,287.4L343.8,287.4z"/>
				<path class="st3" d="M348.7,286.7c0-0.4,0-0.7,0-1.1c-0.5,0.1-1,0.1-1.6,0.2c3.5,3.4,5.6,7.7,6.4,12.5c0.2,1.3,2.1,0.7,1.9-0.5
					c-0.8-5.1-3.2-9.7-6.9-13.4c-0.5-0.5-1.2-0.3-1.6,0.2c-0.8,1.3-0.6,2.4,0.3,3.5C348.1,289.1,349.5,287.7,348.7,286.7
					L348.7,286.7z"/>
				<path class="st3" d="M352.9,283.6c0-0.2,0-0.5,0-0.7c-0.5-0.1-1-0.1-1.6-0.2c1.8,4.1,3.3,8.4,4.4,12.7c0.3,1.2,2.3,0.7,1.9-0.5
					c-1.2-4.5-2.8-8.9-4.6-13.2c-0.2-0.6-1.2-0.7-1.6-0.2c-1.1,1.3-0.9,2.8,0.5,3.8C352.9,286.1,353.9,284.3,352.9,283.6
					L352.9,283.6z"/>
				<path class="st3" d="M373.4,262.8c5.6,6.6,8.9,14.5,9.5,23.2c0.1,1.3,2.1,1.3,2,0c-0.7-9.2-4.1-17.6-10.1-24.6
					C373.9,260.4,372.5,261.9,373.4,262.8L373.4,262.8z"/>
				<path class="st3" d="M381.3,256.7c4.3,5.8,6.9,12.4,7.8,19.5c0.2,1.3,2.2,1.3,2,0c-0.9-7.5-3.6-14.4-8.1-20.6
					C382.3,254.7,380.6,255.7,381.3,256.7L381.3,256.7z"/>
				<path class="st3" d="M388,257.1c0.6,1.7,1.1,3.4,1.7,5.1c0.4,1.2,0.6,3,1.5,4c1.1,1.4,3.1,0.2,2.2-1.4c-0.2-0.4-0.7-0.6-1.1-0.5
					c0,0-0.1,0-0.2,0c-1.2,0.3-0.7,2.3,0.5,1.9c0,0,0.1,0,0.2,0c-0.4-0.1-0.8-0.3-1.1-0.5c0,0,0,0,0-0.1c0.2-0.3,0.3-0.6,0.5-0.9
					c0.9-0.6-0.5-3.4-0.8-4.2c-0.5-1.4-0.9-2.8-1.4-4.1C389.5,255.4,387.6,255.9,388,257.1L388,257.1z"/>
				<path class="st3" d="M390.4,255.1c1.9,2.6,3.2,5.5,4,8.6c0.3,1.2,2.3,0.7,1.9-0.5c-0.9-3.3-2.3-6.3-4.2-9.1
					C391.4,253.1,389.7,254.1,390.4,255.1L390.4,255.1z"/>
				<path class="st3" d="M412.3,234c3.5,5.3,6.2,11,8.2,17c0.4,1.2,2.3,0.7,1.9-0.5c-2-6.2-4.8-12-8.4-17.5
					C413.4,231.9,411.6,232.9,412.3,234L412.3,234z"/>
				<path class="st3" d="M418.1,230.4c2.6,4,4.1,8.4,4.8,13.1c0.2,1.3,2.1,0.7,1.9-0.5c-0.7-4.9-2.4-9.4-5-13.6
					C419.2,228.3,417.5,229.3,418.1,230.4L418.1,230.4z"/>
				<path class="st3" d="M440.2,215.4c1.6-2.1,5.4,4.3,6,5.4c1.3,2.6,1.9,5.4,2,8.3c0,1.3,2,1.3,2,0c-0.1-4.5-1.6-8.8-4.3-12.4
					c-1.4-1.8-4.9-5.4-7.1-2.6C438,215,439.4,216.4,440.2,215.4L440.2,215.4z"/>
				<path class="st3" d="M444.3,210.2c4.5,3.4,6.6,9.1,5.3,14.7c-0.3,1.2,1.6,1.8,1.9,0.5c1.5-6.5-0.9-12.9-6.2-16.9
					C444.3,207.7,443.3,209.5,444.3,210.2L444.3,210.2z"/>
				<path class="st3" d="M447.7,204.7c3,6.8,4.2,13.9,3.5,21.3c-0.1,1.3,1.9,1.3,2,0c0.7-7.8-0.6-15.2-3.8-22.3
					C448.9,202.5,447.2,203.5,447.7,204.7L447.7,204.7z"/>
				<path class="st3" d="M449.8,201.8c3.4,7.6,4.5,15.7,3.2,24c-0.2,1.3,1.7,1.8,1.9,0.5c1.4-8.8,0.2-17.3-3.5-25.5
					C451,199.6,449.2,200.6,449.8,201.8L449.8,201.8z"/>
				<path class="st3" d="M453.4,209c1.7,7,0.8,14-2.5,20.4c-0.6,1.1,1.1,2.1,1.7,1c3.6-6.9,4.5-14.4,2.7-21.9
					C455,207.2,453.1,207.8,453.4,209L453.4,209z"/>
				<path class="st3" d="M450.8,225c-0.7,4.3-2.4,8.1-5.4,11.4c-0.9,1,0.5,2.4,1.4,1.4c3.1-3.5,5.1-7.6,5.9-12.3
					C452.9,224.3,451,223.7,450.8,225L450.8,225z"/>
				<path class="st3" d="M448.6,231.1c-1.7,5.8-5,10.8-9.7,14.6c-1,0.8,0.4,2.2,1.4,1.4c5-4.1,8.4-9.4,10.2-15.5
					C450.9,230.4,449,229.8,448.6,231.1L448.6,231.1z"/>
				<path class="st3" d="M139.2,384.9c-0.8-0.1-1.5-0.3-2.3-0.5c-0.6-0.3-1.3-0.1-1.5,0.6c-1.4,4.8,2.6,9.9,4.9,13.9
					c3.4,6.1,7.1,12.1,10.9,18c0.7,1.1,2.4,0.1,1.7-1c-2.8-4.3-5.6-8.7-8.2-13.2c-2.3-4-8.8-12.5-7.4-17.1c-0.5,0.2-1,0.4-1.5,0.6
					c1.6,0.7,1.5,0.7,3.3,0.7C140.5,386.9,140.5,384.9,139.2,384.9L139.2,384.9z"/>
				<path class="st3" d="M137.6,392.8c4.8,7.5,10.1,14.6,15.8,21.4c0.7,0.9,1.8-0.1,1.7-1c-0.3-1.5-0.7-2.5-1.6-3.8
					c-0.7-1-2.5,0-1.7,1c0.9,1,1.3,2.1,1.4,3.3c0.6-0.3,1.1-0.6,1.7-1c-5.6-6.7-10.8-13.7-15.5-21
					C138.6,390.7,136.9,391.7,137.6,392.8L137.6,392.8z"/>
				<path class="st3" d="M145.3,396.7c-1-1.7-2-3.4-3-5.1c-0.7-1.1-2.4-0.1-1.7,1c4,6.8,8.2,13.5,12.9,19.9c0.7,1,2.4,0.1,1.7-1
					c-3.4-6.1-6.7-12.2-10.1-18.3c-0.5,0.4-1.1,0.8-1.6,1.2c4.4,5.1,8,10.8,10.8,16.9c0.5-0.4,1.1-0.8,1.6-1.2
					c-4.4-5.1-8.3-10.5-11.8-16.3c-0.5,0.4-1.1,0.8-1.6,1.2c5.2,6.6,9.8,13.7,13.7,21.3c0.5-0.4,1.1-0.8,1.6-1.2
					c-7.2-7.5-13.7-15.5-19.7-24c-0.7-1-2.4-0.1-1.7,1c4.5,7,9.4,13.6,15,19.8c0.8,0.9,2.2-0.2,1.6-1.2c-3.8-6-7.8-11.7-12.1-17.3
					c-0.8-1-2.2,0.4-1.4,1.4c4.2,5.4,8.2,11.1,11.8,16.9c0.5-0.4,1.1-0.8,1.6-1.2c-5.4-6.1-10.3-12.5-14.6-19.4
					c-0.6,0.3-1.1,0.7-1.7,1c6,8.6,12.7,16.8,20,24.4c0.8,0.8,2.1-0.2,1.6-1.2c-4-7.7-8.6-14.9-14-21.7c-0.7-0.9-2.1,0.3-1.6,1.2
					c3.6,5.9,7.6,11.5,12.1,16.7c0.8,0.9,2-0.2,1.6-1.2c-2.9-6.3-6.6-12.1-11.1-17.3c-0.8-0.9-2.1,0.2-1.6,1.2
					c3.4,6.1,6.7,12.2,10.1,18.3c0.6-0.3,1.1-0.7,1.7-1c-4.6-6.4-8.9-13-12.9-19.9c-0.6,0.3-1.1,0.7-1.7,1c1,1.7,2,3.4,3,5.1
					C144.2,398.8,145.9,397.8,145.3,396.7L145.3,396.7z"/>
				<path class="st3" d="M108.2,368.8c-0.8,1.8-1.3,3.5-1.4,5.5c0.7-0.1,1.3-0.2,2-0.3c-1.1-3.8-1.7-7.6-1.7-11.6
					c-0.7,0.1-1.3,0.2-2,0.3c1,3.6,1.8,7.3,2.1,11c0.7-0.1,1.3-0.2,2-0.3c-0.7-3.5-1.4-7-2.1-10.5c-0.3-1.3-2.2-0.7-1.9,0.5
					c0.6,3.4,2.1,6.4,4.4,8.9c0.6,0.7,1.7,0.1,1.7-0.7c0.2-4-1.4-7.8-4.4-10.4c-0.6-0.5-1.8-0.2-1.7,0.7c0.3,3.6,1.7,6.8,4.1,9.5
					c0.9,1,2.3-0.5,1.4-1.4c-2.1-2.3-3.3-5-3.5-8.1c-0.6,0.2-1.1,0.5-1.7,0.7c2.7,2.4,4,5.5,3.8,9c0.6-0.2,1.1-0.5,1.7-0.7
					c-2.1-2.3-3.3-5-3.9-8.1c-0.6,0.2-1.3,0.4-1.9,0.5c0.7,3.5,1.4,7,2.1,10.5c0.2,1.1,2.1,0.9,2-0.3c-0.4-3.9-1.1-7.8-2.2-11.6
					c-0.3-1.1-2-0.9-2,0.3c0,4.1,0.6,8.1,1.8,12.1c0.3,1.1,1.9,0.9,2-0.3c0.1-1.6,0.4-3,1.1-4.5
					C110.5,368.7,108.8,367.7,108.2,368.8L108.2,368.8z"/>
				<path class="st3" d="M168.2,428c0,0.5,0,1,0,1.5c0,1.3,2,1.3,2,0c0-0.5,0-1,0-1.5C170.2,426.7,168.2,426.7,168.2,428L168.2,428z
					"/>
				<path class="st3" d="M166.7,400.8c-0.8,5.4-0.6,10.8,0.7,16.1c0.1,0.6,1.1,0.4,1-0.3c-1.2-5.2-1.5-10.4-0.7-15.6
					C167.7,400.5,166.8,400.2,166.7,400.8L166.7,400.8z"/>
				<path class="st3" d="M168.1,395.6c-0.3,5.2-0.3,10.4,0,15.6c0,0.5,0.7,0.7,0.9,0.2c0.7-1.3,0.8-2.5,0.6-3.9
					c-0.1-0.6-1.1-0.4-1,0.3c0.3,1.1,0.1,2.2-0.5,3.1c0.3,0.1,0.6,0.2,0.9,0.2c-0.3-5.2-0.3-10.4,0-15.6
					C169.2,395,168.2,395,168.1,395.6L168.1,395.6z"/>
				<path class="st3" d="M171.1,396.5c1,5.2,1.4,10.5,1.4,15.8c0.3,0,0.6-0.1,1-0.1c-0.2-1.6,0-3,0.6-4.5c0.2-0.6-0.7-0.9-1-0.3
					c-0.7,1.7-0.8,3.2-0.6,5c0.1,0.6,1,0.4,1-0.1c0.1-5.4-0.4-10.8-1.4-16.1C172,395.6,171,395.9,171.1,396.5L171.1,396.5z"/>
				<path class="st3" d="M175.4,397.6c-0.5,3.2-1.1,6.5-1.6,9.7c-0.1,0.6,0.7,0.9,1,0.3c1.5-4.1,3-8.2,4.5-12.3c-0.3,0-0.6,0-1,0
					c0.3,2.1,0.1,4-0.4,6.1c0.3,0.1,0.6,0.2,1,0.3c0.6-3.8,1.6-7.5,2.9-11.1c-0.3,0-0.6,0-1,0c0.7,2.6,0.9,5.2,0.8,7.9
					c0,0.5,0.7,0.6,0.9,0.2c1.9-2.5,3.3-5.2,4.4-8.2c0.2-0.6-0.8-0.9-1-0.3c-1,2.9-2.4,5.5-4.3,7.9c0.3,0.1,0.6,0.2,0.9,0.2
					c0.1-2.8-0.1-5.5-0.9-8.1c-0.1-0.5-0.8-0.5-1,0c-1.3,3.6-2.2,7.3-2.9,11.1c-0.1,0.6,0.8,0.9,1,0.3c0.6-2.2,0.7-4.4,0.4-6.6
					c-0.1-0.5-0.8-0.4-1,0c-1.5,4.1-3,8.2-4.5,12.3c0.3,0.1,0.6,0.2,1,0.3c0.5-3.2,1.1-6.5,1.6-9.7
					C176.5,397.3,175.6,397,175.4,397.6L175.4,397.6z"/>
				<path class="st3" d="M187.1,389c0.4,2.3,0.7,4.6,1.1,6.9c0.1,0.4,0.8,0.5,0.9,0.1c1.4-3.3,3.1-6.4,5.1-9.4
					c-0.3-0.1-0.6-0.2-0.9-0.2c-0.3,2.4-0.3,4.7,0,7.1c0.1,0.5,0.9,0.8,1,0.1c0.7-4.5,2.2-8.6,4.5-12.4c-0.3-0.1-0.6-0.2-0.9-0.2
					c-0.1,2.9-0.2,5.8-0.3,8.7c0,0.6,0.8,0.6,1,0.1c1.3-3.5,2.9-7,4.7-10.3c-0.3-0.1-0.6-0.2-0.9-0.2c-0.1,2-0.2,4-0.3,6
					c0,0.5,0.7,0.7,0.9,0.2c1.8-3.1,3.9-6,6.3-8.6c-0.3-0.1-0.6-0.2-0.9-0.4c0,2.5,0.1,5.1,0.1,7.6c0,0.5,0.9,0.7,1,0.1
					c0.3-1.6,1-2.9,2.2-4c0.5-0.5-0.2-1.2-0.7-0.7c-1.3,1.3-2.1,2.7-2.5,4.5c0.3,0,0.6,0.1,1,0.1c0-2.5-0.1-5.1-0.1-7.6
					c0-0.4-0.6-0.7-0.9-0.4c-2.5,2.7-4.7,5.6-6.5,8.8c0.3,0.1,0.6,0.2,0.9,0.2c0.1-2,0.2-4,0.3-6c0-0.5-0.7-0.7-0.9-0.2
					c-1.8,3.4-3.4,6.9-4.8,10.6c0.3,0,0.6,0.1,1,0.1c0.1-2.9,0.2-5.8,0.3-8.7c0-0.5-0.7-0.7-0.9-0.2c-2.4,3.9-3.9,8.1-4.6,12.7
					c0.3,0,0.6,0.1,1,0.1c-0.3-2.4-0.3-4.7,0-7.1c0.1-0.5-0.7-0.6-0.9-0.2c-2,3-3.7,6.1-5.1,9.4c0.3,0,0.6,0.1,0.9,0.1
					c-0.4-2.3-0.7-4.6-1.1-6.9C187.9,388.1,187,388.4,187.1,389L187.1,389z"/>
				<path class="st3" d="M213.9,373.7c-1.5,2.9-1.9,6-1.4,9.2c0.1,0.5,0.7,0.5,0.9,0.1c2.1-3.3,3.6-6.8,4.5-10.6
					c0.1-0.5-0.7-0.9-0.9-0.4c-0.7,1.4-1.3,2.9-2,4.3c0.3,0.1,0.6,0.3,0.9,0.4c1.4-4,2.8-8,4.2-12c0.2-0.6-0.7-0.9-1-0.3
					c-1,2.7-1,5.3,0.1,8c0.1,0.3,0.5,0.5,0.8,0.2c3.7-3.6,6.7-7.8,8.9-12.5c0.3-0.6-0.5-1-0.9-0.5c-1.6,2.6-2.4,5.3-2.3,8.4
					c0,0.5,0.7,0.7,0.9,0.2c2.6-4.4,6.1-8,10.4-10.8c-0.2-0.2-0.5-0.5-0.7-0.7c-1.2,1.6-1.6,3.4-1.2,5.4c0.1,0.4,0.6,0.5,0.8,0.2
					c5.3-5.8,10.5-11.6,15.8-17.4c4.9-5.4,9.5-11.7,15.5-15.9c3.2-2.3,6.8-3.2,10.7-3.3c3.4-0.1,6.8,0.1,10.1-0.5
					c5.5-1,9.8-4.6,11.9-9.7c0.2-0.6-0.7-0.9-1-0.3c-1.4,3.3-3.9,6.1-7.1,7.7c-3.4,1.7-7.1,1.7-10.8,1.7c-6.3,0-11.4,0.9-16.4,5
					c-5.2,4.4-9.5,9.9-14.1,14.9c-5.1,5.7-10.3,11.3-15.4,17c0.3,0.1,0.6,0.1,0.8,0.2c-0.3-1.8,0.1-3.2,1.1-4.6
					c0.3-0.4-0.3-1-0.7-0.7c-4.4,2.9-8,6.7-10.7,11.2c0.3,0.1,0.6,0.2,0.9,0.2c-0.1-2.9,0.6-5.4,2.2-7.9c-0.3-0.2-0.6-0.3-0.9-0.5
					c-2.2,4.6-5.1,8.7-8.7,12.3c0.3,0.1,0.6,0.1,0.8,0.2c-1-2.5-1-4.9-0.1-7.4c-0.3-0.1-0.6-0.2-1-0.3c-1.4,4-2.8,8-4.2,12
					c-0.2,0.5,0.7,0.9,0.9,0.4c0.7-1.4,1.3-2.9,2-4.3c-0.3-0.1-0.6-0.3-0.9-0.4c-0.9,3.7-2.4,7.1-4.4,10.3c0.3,0,0.6,0.1,0.9,0.1
					c-0.5-3-0.1-5.8,1.3-8.4C215.1,373.6,214.2,373.1,213.9,373.7L213.9,373.7z"/>
				<path class="st3" d="M286.9,320.7c2-6.2,4.4-12.2,7.1-18c0.3-0.6-0.6-1.1-0.9-0.5c-2.8,5.9-5.2,12-7.2,18.3
					C285.7,321.1,286.7,321.4,286.9,320.7L286.9,320.7z"/>
				<path class="st3" d="M291.4,315.5c3-8,6.3-15.8,9.9-23.4c0.3-0.6-0.6-1.1-0.9-0.5c-3.7,7.7-7,15.6-10,23.6
					C290.2,315.8,291.2,316.1,291.4,315.5L291.4,315.5z"/>
				<path class="st3" d="M300.8,298.5c-1.9,4.5-3.8,8.9-5.8,13.4c0.3,0.1,0.6,0.3,0.9,0.4c2.4-6.8,5.8-13.1,10.1-18.8
					c-0.3-0.1-0.6-0.2-0.9-0.2c0.5,4.8-0.5,9.3-3.1,13.3c0.3,0.1,0.6,0.3,0.9,0.4c1.5-8.2,6-15.4,12.8-20.3
					c-0.2-0.2-0.5-0.4-0.7-0.6c-1.9,5.9-4.6,11.5-8.1,16.7c0.3,0.1,0.6,0.3,0.9,0.4c1.7-7.1,5.3-13.5,10.6-18.7
					c-0.3-0.2-0.6-0.3-0.8-0.5c-2.5,7.2-6.2,13.8-9.9,20.4c0.3,0.2,0.6,0.3,0.9,0.5c4.3-8.5,9.3-16.5,15.1-24
					c-0.3-0.1-0.6-0.3-0.9-0.4c-2,6.2-4.6,12.2-7.9,17.9c0.3,0.1,0.6,0.3,0.9,0.4c0.7-3.9,2.1-7.6,4.2-10.9c0.3-0.5-0.5-1-0.9-0.5
					c-2.2,3.5-3.6,7.2-4.3,11.2c-0.1,0.5,0.6,0.9,0.9,0.4c3.4-5.7,6-11.8,8-18.1c0.2-0.6-0.6-0.8-0.9-0.4
					c-5.8,7.5-10.8,15.5-15.1,24c-0.3,0.6,0.5,1.1,0.9,0.5c3.8-6.7,7.5-13.4,10-20.6c0.2-0.5-0.5-0.8-0.8-0.5
					c-5.4,5.3-9.1,11.8-10.8,19.1c-0.1,0.6,0.6,0.9,0.9,0.4c3.5-5.3,6.2-11,8.2-17c0.1-0.4-0.4-0.8-0.7-0.6
					c-7,5-11.7,12.5-13.2,20.9c-0.1,0.5,0.6,0.9,0.9,0.4c2.6-4.2,3.8-8.9,3.3-13.8c0-0.5-0.6-0.7-0.9-0.2
					c-4.3,5.8-7.7,12.2-10.2,19.1c-0.2,0.5,0.7,0.9,0.9,0.4c1.9-4.5,3.8-8.9,5.8-13.4C301.9,298.4,301,297.9,300.8,298.5
					L300.8,298.5z"/>
				<path class="st3" d="M328.4,273.2c-1.3,8-4.3,15.4-8.9,22.1c0.3,0.1,0.6,0.3,0.9,0.4c0.9-2.9,2.2-5.5,3.9-7.9
					c0.4-0.5-0.5-1-0.9-0.5c-1.8,2.5-3.2,5.1-4,8.1c-0.2,0.6,0.6,0.8,0.9,0.4c4.7-6.7,7.7-14.2,9-22.3
					C329.4,272.9,328.5,272.6,328.4,273.2L328.4,273.2z"/>
				<path class="st3" d="M336.7,272.5c-2.9,6.3-6.6,12.1-11.2,17.3c0.3,0.2,0.5,0.4,0.8,0.6c1.6-2.4,3.2-4.7,4.9-7.1
					c0.4-0.5-0.5-1-0.9-0.5c-1.6,2.4-3.2,4.7-4.9,7.1c-0.3,0.5,0.4,1,0.8,0.6c4.6-5.3,8.4-11.1,11.3-17.5
					C337.8,272.4,336.9,271.9,336.7,272.5L336.7,272.5z"/>
				<path class="st3" d="M344.1,268.8c-3.6,5.1-7.3,10.1-10.9,15.2c-0.4,0.5,0.5,1,0.9,0.5c5.3-6.9,11-13.4,17.1-19.6
					c-0.3-0.2-0.5-0.4-0.8-0.6c-1.7,2.9-3.4,5.8-5.1,8.7c-0.1,0.2-0.1,0.5,0.1,0.6c2.2,1.9,4.7-2.3,5.8-3.6
					c3.2-3.8,6.5-7.5,9.7-11.2c-0.3-0.2-0.6-0.3-0.8-0.5c-1.2,3.3-3.1,6.1-5.7,8.6c0.3,0.2,0.6,0.3,0.8,0.5c0.9-4,2.8-7.4,5.8-10.3
					c0.5-0.5-0.2-1.2-0.7-0.7c-3,3-5.1,6.6-6,10.7c-0.1,0.5,0.5,0.8,0.8,0.5c2.7-2.6,4.6-5.5,5.9-9c0.2-0.5-0.5-0.9-0.8-0.5
					c-3.2,3.8-6.5,7.5-9.7,11.2c-0.8,0.9-1.6,2.4-2.6,3c-1.7,1.1-0.9-0.1-0.3-1.1c1.2-2.1,2.5-4.2,3.7-6.3c0.3-0.5-0.4-1-0.8-0.6
					c-6.2,6.2-12,12.8-17.3,19.8c0.3,0.2,0.6,0.3,0.9,0.5c3.6-5.1,7.3-10.1,10.9-15.2C345.3,268.8,344.5,268.3,344.1,268.8
					L344.1,268.8z"/>
				<path class="st3" d="M363.2,253.2c-1,0.8-1.9,1.5-2.9,2.3c0.3,0.2,0.5,0.4,0.8,0.6c2.9-6.1,7-11.3,12.1-15.6
					c-0.3-0.2-0.6-0.3-0.8-0.5c-1.1,4.9-2.6,9.6-4.6,14.2c-0.2,0.4,0.2,0.9,0.7,0.7c1.8-0.9,2.9-2.2,3.6-4.1c0.2-0.6-0.7-0.9-1-0.3
					c-0.6,1.6-1.6,2.7-3.2,3.5c0.2,0.2,0.5,0.5,0.7,0.7c2-4.6,3.6-9.4,4.7-14.4c0.1-0.5-0.5-0.8-0.8-0.5c-5.2,4.4-9.3,9.7-12.3,15.8
					c-0.2,0.5,0.3,1,0.8,0.6c1-0.8,1.9-1.5,2.9-2.3C364.4,253.6,363.7,252.9,363.2,253.2L363.2,253.2z"/>
				<path class="st3" d="M381.5,237.7c-3.4,1.9-5.5,5.4-5.3,9.3c0,0.6,1,0.6,1,0c-0.1-3.6,1.7-6.8,4.8-8.5
					C382.6,238.2,382.1,237.4,381.5,237.7L381.5,237.7z"/>
				<path class="st3" d="M430,201.2c0,2.8,0,5.5,0,8.3c0,0.6,1,0.6,1,0c0-2.8,0-5.5,0-8.3C431,200.6,430,200.6,430,201.2L430,201.2z
					"/>
				<path class="st3" d="M434.2,198c-0.6,3.1-0.7,6.1-0.4,9.2c0.1,0.6,1.1,0.6,1,0c-0.3-3-0.2-6,0.4-8.9
					C435.3,197.6,434.3,197.4,434.2,198L434.2,198z"/>
				<path class="st3" d="M439.7,196.7c0.4,4.4-0.4,8.5-2.2,12.5c-0.3,0.6,0.6,1.1,0.9,0.5c1.9-4.1,2.7-8.4,2.4-13
					C440.7,196.1,439.7,196.1,439.7,196.7L439.7,196.7z"/>
				<path class="st3" d="M418.6,214.2c1.9-1.1,3.7-2.1,5.6-3.2c-0.2-0.1-0.5-0.1-0.7-0.2c0.8,1.7-0.5,3.6-2.2,3.8
					c-0.6,0.1-0.4,1.1,0.3,1c2.4-0.4,3.8-3.1,2.8-5.3c-0.1-0.2-0.5-0.3-0.7-0.2c-1.9,1.1-3.7,2.1-5.6,3.2
					C417.6,213.7,418.1,214.5,418.6,214.2L418.6,214.2z"/>
				<path class="st3" d="M430.8,234.2c0,1.3-0.5,2.4-1.4,3.4c-0.4,0.5,0.3,1.2,0.7,0.7c1.1-1.1,1.6-2.6,1.7-4.1
					C431.8,233.6,430.8,233.6,430.8,234.2L430.8,234.2z"/>
				<path class="st3" d="M181.6,436c3.9,0.7,7.7,1,11.6,1c1.9,0,1.9-3,0-3c-3.6,0-7.2-0.3-10.8-0.9
					C180.5,432.8,179.7,435.7,181.6,436L181.6,436z"/>
				<path class="st3" d="M170.6,435.5c8.8,2,18,4,27.1,2.8c9.8-1.2,16.2-6.5,22.3-13.9c13-16.1,30.9-24.2,48.6-34
					c18.7-10.4,33.2-26.1,51.3-37.3c14.8-9.1,31.7-16.6,42.1-31.2c3.6-5.1,5.8-11.3,10-16c3.1-3.6,7.2-6.2,11.2-8.8
					c7.6-4.8,15.6-9.3,19.6-17.7c0.8-1.7-1.8-3.3-2.6-1.5c-3.8,7.9-11.4,12.1-18.6,16.6c-6.9,4.3-12.4,9-16.5,16.1
					c-5,8.8-10.2,16.2-18.4,22.4c-7.1,5.4-14.9,9.6-22.6,14.1c-8.1,4.7-15.7,9.9-23,15.8c-8.3,6.8-16.3,14-25.4,19.8
					c-15.3,9.6-32.6,16.2-46.6,27.8c-8.3,6.9-13.8,18.3-23.8,22.7c-10.6,4.6-23.1,1.9-33.9-0.6C169.5,432.2,168.7,435.1,170.6,435.5
					L170.6,435.5z"/>
				<path class="st3" d="M109.7,344.9c-1.1,7.9,0.5,15.5,4.8,22.3c1,1.6,3.6,0.1,2.6-1.5c-3.9-6-5.5-12.9-4.5-20
					C112.8,343.8,110,343,109.7,344.9L109.7,344.9z"/>
				<path class="st3" d="M113.7,347.6c-0.1,5.3,1,10.2,3.1,15.1c0.8,1.8,3.3,0.2,2.6-1.5c-1.9-4.3-2.7-8.9-2.7-13.6
					C116.7,345.7,113.7,345.7,113.7,347.6L113.7,347.6z"/>
				<path class="st3" d="M118.9,349.1c-0.2,4,0.7,7.8,2.6,11.2c0.9,1.7,3.5,0.2,2.6-1.5c-1.6-3-2.3-6.3-2.1-9.7
					C122,347.2,119,347.2,118.9,349.1L118.9,349.1z"/>
				<path class="st3" d="M144.9,383.3c6.6,4.6,14,7.5,22,8.5c0.6,0.1,0.6-0.9,0-1c-7.8-1-15.1-3.8-21.5-8.3
					C144.9,382.1,144.4,383,144.9,383.3L144.9,383.3z"/>
				<path class="st3" d="M149.5,390c3.3,1.9,6.8,3.3,10.6,4c0.6,0.1,0.9-0.8,0.3-1c-3.7-0.7-7.1-2-10.3-3.9
					C149.4,388.9,148.9,389.7,149.5,390L149.5,390z"/>
				<path class="st3" d="M154.8,385.6c3.8,1,7.5,1.9,11.3,2.9c0.6,0.2,0.9-0.8,0.3-1c-3.8-1-7.5-1.9-11.3-2.9
					C154.5,384.5,154.2,385.4,154.8,385.6L154.8,385.6z"/>
				<path class="st3" d="M153.9,381.8c6.5,1.8,13.1,2.8,19.8,2.9c1.3,0,1.3-2,0-2c-6.6-0.1-13-1.1-19.3-2.9
					C153.2,379.5,152.6,381.4,153.9,381.8L153.9,381.8z"/>
				<path class="st3" d="M163.6,378.3c4.6,2.3,9.5,3.4,14.7,3.5c1.3,0,1.3-2,0-2c-4.8,0-9.3-1.1-13.6-3.2
					C163.4,376,162.4,377.7,163.6,378.3L163.6,378.3z"/>
				<path class="st3" d="M414.3,171.6c-0.2-0.1,1.2,3.6,1.4,4.2c0.9,1.9,1.7,3.8,2.2,5.8c1,4.2,0.4,8.5-2.9,11.6
					c-0.9,0.9,0.5,2.3,1.4,1.4c3.2-3,4.4-7.1,3.8-11.4c-0.4-3.4-2.4-11-5.7-12.5c-0.4-0.2-0.8-0.2-1.2,0.2c-0.6,0.5-0.7,0.8-0.7,1.6
					c0,0.5,0.3,0.8,0.7,1c0.1,0.1,0.2,0.1,0.4,0.1C414.9,174,415.5,172,414.3,171.6L414.3,171.6z"/>
				<path class="st3" d="M422.3,175.1c2.1,7,1.2,14-2.6,20.2c-0.7,1.1,1.1,2.1,1.7,1c4.1-6.6,5-14.3,2.8-21.7
					C423.8,173.4,421.9,173.9,422.3,175.1L422.3,175.1z"/>
				<path class="st3" d="M427.6,177.4c0.8,3.9,0.1,7.7-2.1,11.1c-0.7,1.1,1,2.1,1.7,1c2.4-3.8,3.2-8.2,2.3-12.6
					C429.2,175.6,427.3,176.1,427.6,177.4L427.6,177.4z"/>
				<path class="st3" d="M431.2,182.7c-0.5,1-1,2-1.5,3c-0.6,1.1,1.1,2.2,1.7,1c0.5-1,1-2,1.5-3
					C433.5,182.6,431.8,181.6,431.2,182.7L431.2,182.7z"/>
				<path class="st3" d="M321.8,160.5c2.1-2.9,4.7-5.4,7.8-7.3c1.1-0.7,0.1-2.4-1-1.7c-3.3,2.1-6.1,4.8-8.5,8
					C319.3,160.5,321.1,161.5,321.8,160.5L321.8,160.5z"/>
				<path class="st3" d="M329.9,151.8c0.9,0.1,1.7,0.7,2,1.6c0.4,1.2,2.3,0.7,1.9-0.5c-0.6-1.8-2.1-2.9-3.9-3.1
					C328.6,149.7,328.6,151.7,329.9,151.8L329.9,151.8z"/>
				<path class="st3" d="M171,328.1c3.5,2,7,4,10.5,6c1.1,0.6,2.1-1.1,1-1.7c-3.5-2-7-4-10.5-6C170.9,325.8,169.9,327.5,171,328.1
					L171,328.1z"/>
				<path class="st3" d="M152.5,319c6.3,1.2,11.7,4.4,15.7,9.4c0.4,0.5,1.1-0.2,0.7-0.7c-4.1-5.1-9.8-8.5-16.2-9.6
					C152.2,317.9,151.9,318.8,152.5,319L152.5,319z"/>
				<path class="st3" d="M162.3,318.8c5.1,1.9,9.8,4.4,14.1,7.6c0.5,0.4,1-0.5,0.5-0.9c-4.4-3.2-9.2-5.8-14.3-7.7
					C162,317.6,161.7,318.5,162.3,318.8L162.3,318.8z"/>
				<path class="st3" d="M184.6,328.5c1.3,1.2,2.5,2.5,3.8,3.7c0.5,0.5,1.2-0.2,0.7-0.7c-1.3-1.2-2.5-2.5-3.8-3.7
					C184.8,327.4,184.1,328.1,184.6,328.5L184.6,328.5z"/>
				<path class="st3" d="M196.1,342.9c2.5,0.9,4.4,2.7,5.8,5c0.3,0.6,1.2,0.1,0.9-0.5c-1.4-2.5-3.6-4.4-6.4-5.4
					C195.8,341.7,195.5,342.6,196.1,342.9L196.1,342.9z"/>
				<path class="st3" d="M208,343.6c1.6,0.7,2.9,1.9,3.7,3.5c0.3,0.6,1.2,0.1,0.9-0.5c-0.9-1.7-2.3-3-4.1-3.8
					C207.9,342.5,207.4,343.3,208,343.6L208,343.6z"/>
				<path class="st3" d="M191.7,331.5c3.9,0.1,7.3,1.8,9.9,4.6c0.4,0.5,1.1-0.2,0.7-0.7c-2.8-3-6.5-4.8-10.6-4.9
					C191.1,330.5,191.1,331.5,191.7,331.5L191.7,331.5z"/>
				<path class="st3" d="M208.3,333.7c3.1,0.2,5.7,2.2,6.7,5.1c0.2,0.6,1.2,0.3,1-0.3c-1.2-3.3-4.2-5.6-7.7-5.9
					C207.6,332.7,207.6,333.7,208.3,333.7L208.3,333.7z"/>
				<g>
					<g>
						<path class="st3" d="M227.8,342.1c0.6,0,0.6-1,0-1S227.1,342.1,227.8,342.1L227.8,342.1z"/>
					</g>
				</g>
				<path class="st3" d="M166.4,314.1c5.6,2.1,10.5,5.3,14.8,9.5c1.4,1.4,3.5-0.8,2.1-2.1c-4.6-4.5-10-8-16.1-10.2
					C165.4,310.6,164.6,313.5,166.4,314.1L166.4,314.1z"/>
				<path class="st3" d="M171.1,312.6c6.2,1.5,11.7,5,15.6,10.1c1.2,1.5,3.8,0,2.6-1.5c-4.4-5.8-10.4-9.8-17.4-11.5
					C170.1,309.3,169.3,312.2,171.1,312.6L171.1,312.6z"/>
				<path class="st3" d="M188.7,322.6c2.9,2.2,5.5,4.6,8,7.3c1.3,1.4,3.4-0.7,2.1-2.1c-2.6-2.9-5.5-5.4-8.6-7.7
					C188.7,318.9,187.2,321.5,188.7,322.6L188.7,322.6z"/>
				<path class="st3" d="M234.2,245.1c9.6,4.8,18.2,10.9,25.8,18.4c1.4,1.4,3.5-0.8,2.1-2.1c-7.8-7.6-16.7-14-26.4-18.9
					C234,241.7,232.5,244.2,234.2,245.1L234.2,245.1z"/>
				<path class="st3" d="M249.5,248.3c6.1,4.2,11.7,8.8,17.1,13.9c1.4,1.3,3.5-0.8,2.1-2.1c-5.5-5.3-11.4-10.1-17.7-14.4
					C249.5,244.6,248,247.2,249.5,248.3L249.5,248.3z"/>
				<path class="st3" d="M272.5,265.3c1.5,1.2,3,2.5,4.5,3.8c0.6,0.5,1.5,0.6,2.1,0c0.5-0.5,0.6-1.6,0-2.1c-1.5-1.2-3-2.5-4.5-3.8
					c-0.6-0.5-1.5-0.6-2.1,0C272,263.7,271.9,264.8,272.5,265.3L272.5,265.3z"/>
				<path class="st3" d="M281.2,263.1c3.9,2.4,7.6,5,11.3,7.8c1,0.8,2.4-0.6,1.4-1.4c-3.8-2.9-7.6-5.6-11.7-8.1
					C281.1,260.6,280.1,262.4,281.2,263.1L281.2,263.1z"/>
				<path class="st3" d="M285.8,272c2.5,1.2,5,2.5,7.5,3.7c1.1,0.6,2.2-1.1,1-1.7c-2.5-1.2-5-2.5-7.5-3.7
					C285.6,269.7,284.6,271.4,285.8,272L285.8,272z"/>
				<path class="st3" d="M289.3,274.9c1.5,1.2,3,2.5,4.6,3.7c1,0.8,2.4-0.6,1.4-1.4c-1.5-1.2-3-2.5-4.6-3.7
					C289.7,272.7,288.3,274.1,289.3,274.9L289.3,274.9z"/>
				<path class="st3" d="M287.6,273.9c-1.8,0.5-3.1,1.7-3.7,3.5c-0.1,0.5,0.1,0.9,0.5,1.1c1.5,1,3,2.1,4.4,3.2c1,0.8,2-1,1-1.7
					c-1.5-1-3-2.1-4.4-3.2c0.1,0.4,0.3,0.8,0.5,1.1c0.4-1.1,1.2-1.8,2.3-2.1C289.4,275.5,288.8,273.6,287.6,273.9L287.6,273.9z"/>
				<path class="st3" d="M286,283.3c0.6,3.7,1.2,7.5,1.9,11.2c0.2,1.3,2.1,0.7,1.9-0.5c-0.6-3.7-1.2-7.5-1.9-11.2
					C287.7,281.5,285.8,282.1,286,283.3L286,283.3z"/>
				<path class="st3" d="M292.7,283.1c-2.7,4.8-5.3,9.6-8,14.4c-0.6,1.1,1.1,2.1,1.7,1c2.7-4.8,5.3-9.6,8-14.4
					C295.1,283,293.4,282,292.7,283.1L292.7,283.1z"/>
				<path class="st3" d="M293.9,291.6c-1.4,2.7-3.6,4.9-6.4,6c-1.2,0.5-0.7,2.4,0.5,1.9c3.3-1.3,6-3.7,7.6-6.9
					C296.2,291.5,294.5,290.5,293.9,291.6L293.9,291.6z"/>
				<path class="st3" d="M271.2,314.8c-0.5,0.8-1,1.5-1.5,2.2c-0.7,1.1,1,2.1,1.7,1c0.5-0.8,1-1.5,1.5-2.2
					C273.6,314.8,271.9,313.8,271.2,314.8L271.2,314.8z"/>
				<path class="st3" d="M330.9,169.2c2.1-0.4,4.2,0.1,6,1.3c1,0.8,2-1,1-1.7c-2.2-1.6-4.9-2.1-7.5-1.5
					C329.1,167.5,329.7,169.4,330.9,169.2L330.9,169.2z"/>
				<path class="st3" d="M368.2,175.2c2.6,0.3,5,1.5,6.8,3.4c0.9,0.9,2.3-0.5,1.4-1.4c-2.2-2.3-5.1-3.6-8.2-3.9
					C366.9,173.1,366.9,175.1,368.2,175.2L368.2,175.2z"/>
				<path class="st3" d="M391.8,184.6c3.5,1.5,6.3,4.3,7.7,7.9c0.5,1.2,2.4,0.7,1.9-0.5c-1.6-4.1-4.6-7.4-8.6-9.1
					C391.6,182.3,390.6,184.1,391.8,184.6L391.8,184.6z"/>
				<path class="st3" d="M402.4,207.5c-1.6-1.2-3,2.3-0.7,2.6c1.4,0.2,2.1-1.4,2.6-2.3c1-1.8,2.1-3.5,3.1-5.3
					c-0.5,0.1-1,0.1-1.6,0.2c0.4,0.3,0.5,0.7,0.3,1.2c-0.5,1.2,1.5,1.7,1.9,0.5c0.4-1.1,0.1-2.4-0.8-3.1c-0.5-0.4-1.2-0.4-1.6,0.2
					c-0.6,1.1-1.3,2.2-2,3.4c-0.3,0.5-0.6,1-0.8,1.4c-0.1,0.1-1.7,3.2-0.8,2.9c-0.3,0-0.5-0.1-0.8-0.1c0,0,0.1,0.1,0.1,0.1
					C402.4,210,403.4,208.3,402.4,207.5L402.4,207.5z"/>
				<path class="st3" d="M304.1,195.4c0-0.1-0.1-0.5-0.1-0.3c0,0.2,0-0.2,0-0.2c0-0.1,0-0.1,0,0.1c0-0.1,0-0.1,0-0.2
					c0.1-0.3,0,0,0.1-0.2c0,0,0.2-0.3,0.1-0.2c-0.1,0.1,0.2-0.2,0.2-0.2c-0.2,0.1,0,0,0.1,0c0.5-0.2-0.3,0.1,0.2-0.1
					c2.5-0.6,1.4-4.5-1.1-3.9c-2.7,0.7-4.4,3.7-3.5,6.3c0.3,1,1.4,1.7,2.5,1.4C303.8,197.6,304.5,196.4,304.1,195.4L304.1,195.4z"/>
				<path class="st3" d="M330.6,201.7c0.5,0,1,0,1.5,0c1,0,2-0.9,2-2s-0.9-2-2-2c-0.5,0-1,0-1.5,0c-1,0-2,0.9-2,2
					S329.5,201.7,330.6,201.7L330.6,201.7z"/>
				<path class="st3" d="M350.4,196.2c0.8,0.3,1.5,0.5,2.2,0.8c1,0.4,2.2-0.4,2.5-1.4c0.3-1.1-0.3-2.1-1.4-2.5
					c-0.8-0.3-1.5-0.5-2.2-0.8c-1-0.4-2.2,0.4-2.5,1.4C348.8,194.9,349.4,195.9,350.4,196.2L350.4,196.2z"/>
				<path class="st3" d="M371.9,213.7c0.5,0,1,0,1.5,0c1,0,2-0.9,2-2s-0.9-2-2-2c-0.5,0-1,0-1.5,0c-1,0-2,0.9-2,2
					C370,212.8,370.8,213.7,371.9,213.7L371.9,213.7z"/>
				<path class="st3" d="M347.1,226c1.3,1.4,2.6,2.9,3.9,4.4c0.7,0.8,2.1,0.7,2.8,0c0.8-0.8,0.7-2,0-2.8c-1.3-1.4-2.6-2.9-3.9-4.4
					c-0.7-0.8-2.1-0.7-2.8,0C346.3,224,346.4,225.2,347.1,226L347.1,226z"/>
				<path class="st3" d="M319.7,235c-0.3,3,0,5.9,0.8,8.8c0.7,2.5,4.5,1.4,3.9-1.1c-0.7-2.6-0.9-5.1-0.6-7.7
					C323.9,232.4,319.9,232.4,319.7,235L319.7,235z"/>
				<path class="st3" d="M288.6,231.2c-1.2,1.4-1.7,3.3-1.1,5c0.4,1,1.4,1.8,2.5,1.4c1-0.3,1.8-1.4,1.4-2.5c0-0.1-0.1-0.8-0.1-0.4
					c0-0.1,0.1-0.6,0-0.2c0,0,0.2-0.6,0-0.2c0-0.1,0.1-0.2,0.2-0.3c-0.1,0.2-0.1,0.1,0,0c0.7-0.8,0.8-2.1,0-2.8
					C290.7,230.5,289.3,230.4,288.6,231.2L288.6,231.2z"/>
				<path class="st3" d="M260.9,224.6c-0.2,0.2-0.5,0.5-0.8,0.8c-0.7,0.7-0.8,2.1,0,2.8s2,0.8,2.8,0c0.2-0.2,0.5-0.5,0.8-0.8
					c0.7-0.7,0.8-2.1,0-2.8S261.7,223.8,260.9,224.6L260.9,224.6z"/>
				<path class="st3" d="M206.1,286.2c4.1,2.5,8.6,3.9,13.4,4.4c3.2,0.3,3.2-4.7,0-5c-3.9-0.4-7.6-1.7-10.9-3.8
					C205.8,280.2,203.3,284.5,206.1,286.2L206.1,286.2z"/>
				<path class="st3" d="M217.2,285.6c-1.7,0.6-3.6-0.6-3.5-2.5c-0.8,0.8-1.7,1.7-2.5,2.5c1,0,2,0,2.9,0c-0.8-0.6-1.6-1.2-2.4-1.8
					c0.3,0.9,0.5,1.7,0.8,2.6c0.4-0.9,0.8-1.9,1.1-2.8c-0.1,0-0.2,0.1-0.3,0.1c-0.6,0-0.6,0.2-0.1,0.3c0.3,0.4,1.1,0.6,0.5,1.5
					c-0.3,0.3-0.6,0.6-0.9,0.9c0.1,0,0.1-0.1,0.2-0.1c1.1-0.8,1.6-2.2,0.9-3.4c-0.6-1.1-2.3-1.7-3.4-0.9c-1.9,1.3-2.3,3.8-0.7,5.6
					c1.8,2,4.2,1.4,6.4,0.4c1-0.5,1.4-1.8,1.1-2.8c-0.3-0.9-0.5-1.7-0.8-2.6c-0.3-1.1-1.3-1.8-2.4-1.8c-1,0-2,0-2.9,0
					c-1.4,0-2.4,1.2-2.5,2.5c-0.3,4.9,5.2,9.1,9.9,7.4c1.3-0.5,2.1-1.7,1.8-3.1C220,286.1,218.5,285.1,217.2,285.6L217.2,285.6z"/>
				<path class="st3" d="M251.2,287.5c1,0.2,2,0.5,3,0.8c1.3,0.3,2.8-0.4,3.1-1.8c0.3-1.3-0.4-2.7-1.8-3.1c-1-0.2-2-0.5-3-0.8
					c-1.3-0.3-2.8,0.4-3.1,1.8C249.1,285.8,249.8,287.2,251.2,287.5L251.2,287.5z"/>
				<path class="st3" d="M246.4,307.2c-0.5,2,0,3.9,1.3,5.4c0.9,1,2.7,0.9,3.5,0c1-1.1,0.9-2.5,0-3.5c0.5,0.5-0.1-0.1-0.1-0.2
					c0,0.1,0.1,0.2,0.1,0.3c0-0.1-0.1-0.2-0.1-0.3c-0.1-0.5,0,0.5,0,0c0-0.1,0-0.2,0-0.4c-0.1,0.4-0.1,0.4,0,0.1
					c0.3-1.3-0.4-2.8-1.8-3.1C248.2,305.1,246.8,305.8,246.4,307.2L246.4,307.2z"/>
				<path class="st3" d="M122.2,343.1c12.7,17.9,28.9,32.8,47.9,43.9c1.1,0.6,2.1-1.1,1-1.7c-18.6-10.9-34.7-25.6-47.1-43.2
					C123.2,341.1,121.4,342.1,122.2,343.1L122.2,343.1z"/>
				<path class="st3" d="M143.1,355.7c6.7,8.3,14.4,15.5,23.1,21.7c1.1,0.7,2.1-1,1-1.7c-8.6-6-16.1-13.2-22.7-21.3
					C143.8,353.3,142.3,354.7,143.1,355.7L143.1,355.7z"/>
				<path class="st3" d="M140.1,341.4c11.7,12.4,24.2,23.9,37.5,34.5c1,0.8,2.4-0.6,1.4-1.4c-13.3-10.6-25.8-22.1-37.5-34.5
					C140.6,339.1,139.2,340.5,140.1,341.4L140.1,341.4z"/>
				<path class="st3" d="M148.2,340.8c9.9,10.1,20.1,20,30.5,29.6c0.9,0.9,2.4-0.5,1.4-1.4c-10.4-9.6-20.6-19.5-30.5-29.6
					C148.8,338.5,147.3,339.9,148.2,340.8L148.2,340.8z"/>
				<path class="st3" d="M153.6,338.5c9.6,8.6,19.3,17.3,29,25.9c1,0.9,2.4-0.5,1.4-1.4c-9.6-8.6-19.3-17.3-29-25.9
					C154,336.2,152.6,337.6,153.6,338.5L153.6,338.5z"/>
				<path class="st3" d="M158.7,331.8c9.5,8.6,19.2,16.9,29,25.1c1,0.8,2.4-0.6,1.4-1.4c-9.9-8.1-19.5-16.5-29-25.1
					C159.2,329.5,157.8,330.9,158.7,331.8L158.7,331.8z"/>
				<path class="st3" d="M156.2,349.8c11,1.6,22,3.5,32.9,5.8c1.3,0.3,1.8-1.7,0.5-1.9c-10.9-2.3-21.9-4.2-32.9-5.8
					C155.5,347.7,154.9,349.7,156.2,349.8L156.2,349.8z"/>
				<path class="st3" d="M141.8,343.8c15.4-2.3,30.9-1.5,46,2.3c1.2,0.3,1.8-1.6,0.5-1.9c-15.5-3.9-31.3-4.6-47.1-2.3
					C140,342,140.5,344,141.8,343.8L141.8,343.8z"/>
				<path class="st3" d="M146.7,334.2c9.8,0.4,19.5,1.6,29.1,3.6c1.3,0.3,1.8-1.7,0.5-1.9c-9.8-2-19.6-3.2-29.6-3.6
					C145.4,332.2,145.4,334.2,146.7,334.2L146.7,334.2z"/>
				<path class="st3" d="M153.4,359.2c9.7-0.5,19.2,0.8,28.4,4c1.2,0.4,1.7-1.5,0.5-1.9c-9.4-3.2-19-4.5-28.9-4.1
					C152.2,357.3,152.2,359.3,153.4,359.2L153.4,359.2z"/>
				<path class="st3" d="M149.7,366.7c5.8,0,11.5,0.9,17.1,2.7c1.2,0.4,1.8-1.5,0.5-1.9c-5.7-1.8-11.6-2.8-17.6-2.8
					C148.4,364.7,148.4,366.7,149.7,366.7L149.7,366.7z"/>
				<path class="st3" d="M289.3,212.1c7.4,10.1,15.3,19.9,23.7,29.1c0.9,0.9,2.3-0.5,1.4-1.4c-8.3-9.1-16.1-18.7-23.4-28.7
					C290.3,210.1,288.6,211.1,289.3,212.1L289.3,212.1z"/>
				<path class="st3" d="M295,208.6c6.1,10.8,13.2,20.9,21.2,30.3c0.8,1,2.2-0.4,1.4-1.4c-7.9-9.3-14.8-19.3-20.9-29.9
					C296.1,206.5,294.4,207.5,295,208.6L295,208.6z"/>
				<path class="st3" d="M301.6,206.5c6.9,9.6,13.9,19.3,20.8,28.9c0.8,1,2.5,0,1.7-1c-6.9-9.6-13.9-19.3-20.8-28.9
					C302.6,204.4,300.9,205.4,301.6,206.5L301.6,206.5z"/>
				<path class="st3" d="M306.7,204.2c7.3,8.5,14.4,17.2,21.2,26.1c0.8,1,2.2-0.4,1.4-1.4c-6.9-8.9-13.9-17.6-21.2-26.1
					C307.2,201.8,305.8,203.2,306.7,204.2L306.7,204.2z"/>
				<path class="st3" d="M311,202.1c8.8,8.2,16.1,17.6,21.9,28.1c0.6,1.1,2.4,0.1,1.7-1c-5.9-10.6-13.3-20.2-22.2-28.5
					C311.4,199.8,310,201.2,311,202.1L311,202.1z"/>
				<path class="st3" d="M286,213.9c13.2-3.3,26.7-3.4,40-0.1c1.2,0.3,1.8-1.6,0.5-1.9c-13.6-3.3-27.5-3.3-41,0.1
					C284.2,212.3,284.7,214.2,286,213.9L286,213.9z"/>
				<path class="st3" d="M290.4,216.4c12-2.1,24.1-1.2,35.7,2.5c1.2,0.4,1.8-1.5,0.5-1.9c-12-3.8-24.4-4.6-36.8-2.5
					C288.5,214.7,289.1,216.6,290.4,216.4L290.4,216.4z"/>
				<path class="st3" d="M299.1,223.5c9.3-1.1,18.5-0.7,27.6,1.4c1.2,0.3,1.8-1.6,0.5-1.9c-9.3-2.1-18.7-2.6-28.2-1.4
					C297.9,221.6,297.9,223.6,299.1,223.5L299.1,223.5z"/>
				<path class="st3" d="M302.4,228.7c7.2-1,14.3-1.2,21.5-0.5c1.3,0.1,1.3-1.9,0-2c-7.4-0.6-14.7-0.4-22,0.6
					C300.6,226.9,301.1,228.8,302.4,228.7L302.4,228.7z"/>
				<path class="st3" d="M307.4,235.2c4.8,0,9.5,0,14.3,0c1.3,0,1.3-2,0-2c-4.8,0-9.5,0-14.3,0C306.1,233.2,306.1,235.2,307.4,235.2
					L307.4,235.2z"/>
				<path class="st3" d="M323.9,150.2c5.3,2.7,10.6-0.6,13.6-5.2c2.3-3.6,3.3-7.9,6.1-11.2c2.8-3.3,6.9-5.4,10.9-2
					c1.6,1.4,2.5,3.6,3.8,5.2c4.2,5.8,9.4,4.8,15.6,2.8c4.8-1.6,8.8-1.9,13.2,0.9c2.9,1.8,5.3,4.2,8.1,6c6.7,4.1,13.1,2,19.3-2.1
					c3.9-2.6,7.9-6,12.8-6.2c2.7-0.1,6.2,1.1,7.6,3.7c1.5,2.9-0.1,6.2-0.8,9.1c-1.3,5.6,1.8,8.5,7.2,9.1c5.1,0.6,14.3-0.5,16.7,5.6
					c2.3,5.8-2.7,8.1-6,11.7c-3.5,3.9-2.7,8.6,2.1,10.9c3.6,1.8,8.1,1.9,11.2,4.7c2.8,2.6,4.7,7.3,2.5,10.8c-2,3.3-6.4,4.5-9.6,2.5
					c-1.1-0.7-2.1,1.1-1,1.7c4.6,2.8,11,0.6,13-4.5c2.6-6.5-2.7-12.8-8.5-14.9c-4.1-1.5-13.4-3.4-8.6-9.6c2.1-2.6,5.4-4.2,6.9-7.3
					c3.2-6.6-3.7-12-9.5-13.1c-5.6-1-15.4,1.5-14.3-7.9c0.4-3.3,2.2-6.1,0.6-9.4c-2.9-6.3-11.1-5.9-16.3-3.2c-4.5,2.3-8.2,6-13,7.7
					c-6.8,2.5-11.1-0.8-16.2-4.8c-6.8-5.2-11.4-5.6-19.5-3c-4.2,1.3-7.9,2.2-11.2-1.6c-1.4-1.6-2.3-3.5-3.6-5.1
					c-1.9-2.4-4.1-3.9-7.2-3.8c-4.3,0.2-7.7,3.7-9.7,7.3c-3,5.2-6.6,17.7-15.2,13.3C323.8,147.9,322.8,149.6,323.9,150.2
					L323.9,150.2z"/>
				<path class="st3" d="M343.8,135.6c4.2-3.6,10.6-8.7,16.3-5c2.8,1.8,4.3,4.9,6.8,7.1c4.2,3.6,8.8,2.4,13.6,0.7
					c3.5-1.3,7.8-3.4,11-0.3c2,1.9,2.5,5,4.3,7.1c4,4.6,9.9,2.2,14.4-0.2c6.5-3.5,17.4-12,24.3-4.4c3.9,4.2,1.4,11.5,7.7,14
					c7.1,2.8,20.1-2.2,22.4,8.9c1.3,6.6-8,10-5.6,16.6c0.2,0.4,0.5,0.7,1,0.7c7.2,0.5,9.9,6.4,9.3,12.7c-0.3,3.7,0.8,4.6,3.1,7.1
					c3.3,3.6,4.4,12.1-2.8,12.2c-2.1,0-4.1-1.3-6-2c-2.4-0.9-4.2-1.2-6.5,0c-1.1,0.6-0.1,2.3,1,1.7c4-2.1,8.5,2.9,12.8,2.1
					c2.5-0.5,4.7-2.3,5.7-4.6c1.1-2.6,0.7-5.7-0.7-8.2c-0.8-1.4-2.2-2.3-3.1-3.5c-2.3-3.5-0.7-6.2-1.3-9.6c-0.5-3-2.3-5.7-4.7-7.5
					c-3.3-2.5-8.2-1.6-4.7-7.2c3.5-5.5,7.1-10.5,1.5-16.3c-2.6-2.6-6.2-3.8-9.7-4.2c-5.3-0.7-12.3,1.3-14.5-5.1
					c-1.1-3.2-0.9-6.6-3.4-9.2c-1.8-1.9-4.4-2.9-7-3.2c-9.6-1.3-15.4,7-23.9,9.3c-7.4,2-7.9-3.3-11.4-7.7c-1.6-2.1-3.8-3.2-6.5-3.1
					c-3.8,0.1-7.2,2.3-10.8,3.2c-6.7,1.7-9-3.1-13.1-7c-6.8-6.6-14.9-1.6-20.9,3.6C341.4,135.1,342.8,136.4,343.8,135.6L343.8,135.6
					z"/>
				<path class="st3" d="M419.4,161.4c3.6-4.6,6.8-9.5,9.6-14.6c0.6-1.1-1.1-2.1-1.7-1c-2.8,5.1-6,10-9.6,14.6
					C416.9,161.4,418.6,162.4,419.4,161.4L419.4,161.4z"/>
				<path class="st3" d="M420.2,147.9c1.3,2.9,1.7,6,1.4,9.1c-0.1,1.3,1.9,1.3,2,0c0.4-3.5-0.2-6.9-1.6-10.1
					C421.4,145.8,419.7,146.8,420.2,147.9L420.2,147.9z"/>
				<path class="st3" d="M422.9,157.2c2.1,0.4,4.1,0.2,6.1-0.4c1.2-0.4,0.7-2.3-0.5-1.9c-1.7,0.5-3.4,0.7-5.1,0.4
					C422.1,155,421.6,156.9,422.9,157.2L422.9,157.2z"/>
				<path class="st3" d="M417,155.4c0.9,1.1,1.3,2.5,1.1,3.9c-0.1,1.3,1.9,1.3,2,0c0.2-2-0.5-3.9-1.7-5.4
					C417.6,153,416.2,154.4,417,155.4L417,155.4z"/>
				<path class="st3" d="M439.5,174.5c3.4,0.1,6.5-1.1,9.1-3.2c1-0.8-0.4-2.2-1.4-1.4c-2.2,1.9-4.8,2.7-7.7,2.7
					C438.2,172.4,438.2,174.4,439.5,174.5L439.5,174.5z"/>
				<path class="st3" d="M443,168.1c0.2,1.7,0.5,3.4,0.7,5.1c0.2,1.3,2.1,0.7,1.9-0.5c-0.2-1.7-0.5-3.4-0.7-5.1
					C444.7,166.3,442.8,166.8,443,168.1L443,168.1z"/>
				<path class="st3" d="M444,173.5c1.3,1.1,2.6,2.3,3.9,3.4c1,0.8,2.4-0.6,1.4-1.4c-1.3-1.1-2.6-2.3-3.9-3.4
					C444.4,171.2,443,172.6,444,173.5L444,173.5z"/>
				<path class="st3" d="M352.8,136.5c-0.9,3.3-0.6,6.6,0.7,9.8c0.5,1.1,2,0.3,1.8-0.8c-0.7-3.5-3.5-5.9-7-6.3c-1.3-0.2-1.3,1.8,0,2
					c2.6,0.3,4.5,2.3,5.1,4.8c0.6-0.3,1.2-0.5,1.8-0.8c-1.1-2.6-1.3-5.4-0.5-8.2C355,135.8,353.1,135.2,352.8,136.5L352.8,136.5z"/>
				<g>
					<g>
						<path class="st3" d="M353.9,137.8c1.3,0,1.3-2,0-2C352.6,135.8,352.6,137.8,353.9,137.8L353.9,137.8z"/>
					</g>
				</g>
				<path class="st3" d="M352,137.2c-0.4,0.4-0.7,0.7-1,1.1c-0.6,0.7-0.1,1.6,0.7,1.7c0.5,0.1,1.1,0.1,1.7,0.1c0.5,0.1,1-0.5,1-1
					c0-0.6-0.5-0.9-1-1c-0.5-0.1-1.1-0.1-1.7-0.1c0.2,0.6,0.5,1.1,0.7,1.7c0.4-0.4,0.7-0.7,1-1.1C354.4,137.7,352.9,136.3,352,137.2
					L352,137.2z"/>
				<path class="st3" d="M465.2,171.4c5.8,1.2,11,5.1,12.5,11.1c1.4,5.6-0.1,13.4-6.7,14.6c0.4,0.2,0.8,0.5,1.2,0.7
					c-1.6-5,0.7-10.6-1.6-15.5c-0.7-1.5-1.6-2.6-3-3.4c-0.6-0.3-2.6-0.6-3-1c-1.4-1.5-1.6-3.8-0.6-5.3c-0.6-0.3-1.2-0.5-1.8-0.8
					c-0.2,1.6-0.5,2.9-1,4.4c-0.4,1.1,1.2,1.7,1.8,0.8c0.9-1.4,1.8-2.8,2.6-4.2c-0.6-0.2-1.2-0.3-1.9-0.5c0,2.1,0.1,4.3,0.1,6.4
					c0,1.1,1.7,1.4,2,0.3c0.5-2.2,0.7-4.3,0.5-6.6c-0.1-1.3-2-1.3-2,0c0,1.9,0.1,3.9,0.1,5.8c0,1,1.3,1.3,1.9,0.5
					c1.5-2.1,2-4,1.8-6.6c-0.1-1.3-1.9-1.3-2,0c-0.3,2.6-0.1,4.7,0.7,7.2c0.2,0.8,1.4,1.1,1.8,0.2c1-2,1.5-3.9,1.7-6.1
					c-0.7,0-1.3,0-2,0c0,2,0,3.9,0,5.9c0,1.1,1.7,1.4,2,0.3c0.4-1.9,0.6-3.6,0.6-5.6c-0.7,0-1.3,0-2,0c0,2.5,0.1,5.1,0.1,7.6
					c0,0.9,1.4,1.4,1.9,0.5c0.9-1.9,1.2-3.2,1.1-5.3c-0.1-1.3-2-1.3-2,0c0,3.3,0.1,6.6,0.1,9.8c0,1.1,1.6,1.4,2,0.3
					c1.1-3.6,1.7-7.1,2-10.8c-0.7,0-1.3,0-2,0c-0.1,3.9-0.3,7.9-0.4,11.9c0,1.1,1.8,1.4,2,0.3c0.6-3.3,0.8-6.6,0.7-10
					c-0.1-1.3-1.9-1.2-2,0c-0.5,4.2-0.7,8.4-0.6,12.6c0,1.1,1.8,1.4,2,0.3c0.1-1.3,0.5-2.5,1.3-3.6c-0.6-0.3-1.2-0.5-1.8-0.8
					c-0.8,3.2-1.7,6.4-2.5,9.5c-0.3,1.1,1.2,1.7,1.8,0.8c1.7-2.4,2.7-4.8,3.2-7.7c-0.6-0.2-1.3-0.4-1.9-0.5
					c-0.4,2.2-0.8,3.8-1.9,5.8c0.6,0.3,1.2,0.5,1.8,0.8c2.4-6,2.9-12.1,1.6-18.4c-0.2-1.1-2-0.9-2,0.3c0.2,4.5,0.9,8.7,2.2,13
					c0.4,1.1,1.9,0.8,2-0.3c0.2-2.5,0.1-4.8-0.4-7.2c-0.2-1.2-1.9-0.8-2,0.3c-0.3,3.6-0.1,7.1,0.5,10.7c0.2,1,1.7,0.9,1.9,0
					c0.6-2.1,0.8-3.9,0.6-6.1c-0.1-1.3-2-1.3-2,0c0,2.3,0,4.6,0,6.9c0,1.3,2,1.3,2,0c0.4-8.4-2.6-16.1-8.4-22.2
					c-0.5,0.5-0.9,0.9-1.4,1.4c5.6,4.5,6.8,11.5,7.7,18.3c0.6-0.2,1.1-0.5,1.7-0.7c-1.8-1.5-3.1-3.6-3.7-5.9
					c-0.3-1.2-2.2-0.7-1.9,0.5c0.7,2.9,1.9,4.9,4.2,6.8c0.6,0.5,1.8,0.2,1.7-0.7c-0.9-7.3-2.2-14.9-8.3-19.7c-1-0.8-2.3,0.5-1.4,1.4
					c5.4,5.7,8.1,12.9,7.8,20.8c0.7,0,1.3,0,2,0c0-2.3,0-4.6,0-6.9c-0.7,0-1.3,0-2,0c0.2,1.9,0,3.7-0.5,5.5c0.6,0,1.3,0,1.9,0
					c-0.6-3.4-0.7-6.7-0.4-10.1c-0.6,0.1-1.3,0.2-2,0.3c0.5,2.4,0.5,4.2,0.4,6.6c0.6-0.1,1.3-0.2,2-0.3c-1.3-4.1-2-8.1-2.2-12.4
					c-0.6,0.1-1.3,0.2-2,0.3c1.2,6,0.6,11.7-1.6,17.4c-0.4,1.1,1.3,1.8,1.8,0.8c1-2.1,1.7-4,2.1-6.3c0.2-1.2-1.7-1.8-1.9-0.5
					c-0.5,2.7-1.5,4.9-3,7.2c0.6,0.3,1.2,0.5,1.8,0.8c0.8-3.2,1.7-6.3,2.5-9.5c0.3-1.1-1.2-1.8-1.8-0.8c-0.8,1.4-1.2,2.5-1.5,4.1
					c0.6,0.1,1.3,0.2,2,0.3c-0.1-4.2,0.1-8.4,0.6-12.6c-0.7,0-1.3,0-2,0c0.1,3.2,0,6.3-0.6,9.5c0.6,0.1,1.3,0.2,2,0.3
					c0.1-3.9,0.3-7.9,0.4-11.9c0-1.3-1.9-1.3-2,0c-0.2,3.5-0.9,6.9-1.9,10.2c0.6,0.1,1.3,0.2,2,0.3c0-3.3-0.1-6.6-0.1-9.8
					c-0.7,0-1.3,0-2,0c-0.3,1.4-0.6,2.9-0.9,4.3c0.6,0.2,1.2,0.3,1.9,0.5c0-2.5-0.1-5.1-0.1-7.6c0-1.3-2-1.3-2,0
					c0.1,1.7,0,3.4-0.5,5c0.6,0.1,1.3,0.2,2,0.3c0-2,0-3.9,0-5.9c0-1.3-1.9-1.3-2,0c-0.1,1.8-0.5,3.5-1.4,5.1
					c0.6,0.1,1.2,0.2,1.8,0.2c-0.7-2.2-0.9-4.3-0.6-6.7c-0.7,0-1.3,0-2,0c0.2,2-0.4,3.9-1.5,5.6c0.6,0.2,1.2,0.3,1.9,0.5
					c0-1.9-0.1-3.9-0.1-5.8c-0.7,0-1.3,0-2,0c0.2,2.2,0.1,3.8-0.5,6c0.6,0.1,1.3,0.2,2,0.3c0-2.1-0.1-4.3-0.1-6.4
					c0-1-1.3-1.4-1.9-0.5c-0.9,1.4-1.8,2.8-2.6,4.2c0.6,0.3,1.2,0.5,1.8,0.8c0.5-1.5,0.8-2.9,1-4.4c0.1-1.1-1.2-1.8-1.8-0.8
					c-2,3-4.1,5.7,0.4,7.8c2.4,1.2,4.1,0.3,5.9,3.4c1,1.7,1,3.7,1,5.6c0,3.5-0.5,6.5,0.6,10c0.2,0.6,0.7,0.8,1.2,0.7
					c6.8-1.2,9.4-8.6,8.6-14.8c-1-7.7-6.9-13.3-14.4-14.8C464.5,169.2,463.9,171.2,465.2,171.4L465.2,171.4z"/>
				<path class="st3" d="M459.2,149c0.2-0.4,0.9,0,1.1,0.3c0.5,0.7,0.3,1.9,0.1,2.7c0.3-0.2,0.6-0.5,1-0.7c-0.7-0.1-1.5-0.7-1.6-1.5
					c-0.1-0.5-0.4-1-1-1c-0.5,0-1.1,0.5-1,1c0.2,1.9,1.6,3.3,3.6,3.5c0.4,0,0.9-0.3,1-0.7c0.3-1.7,0.5-3.8-1-5
					c-1.2-0.9-3-0.9-3.9,0.5C456.8,149.1,458.6,150.1,459.2,149L459.2,149z"/>
				<path class="st3" d="M393.3,139.2c3.8,0.5,7.4-1.2,11.2-1c1.2,0.1,2.8,0.5,3.7,1.4c1.7,1.6,0.6,4.3-1.3,5.3
					c-2.1,1.1-8.8-0.2-7.2-3.9c-0.6-0.1-1.2-0.2-1.8-0.2c0.4,1.3,0.9,2.6,1.3,3.9c0.4,1.2,2.3,0.7,1.9-0.5c-0.6-1.7-1.3-3.3-2.3-4.8
					c-0.5-0.9-1.8-0.5-1.9,0.5c0,0.6-0.1,1.2-0.1,1.9c0.6-0.2,1.2-0.3,1.9-0.5c-0.6-1.4-1.3-2.8-1.9-4.2c-0.4-0.9-1.9-0.4-1.9,0.5
					c0,3.2,1.5,5.8,4.3,7.4c0.6,0.3,1.3,0,1.5-0.6c0.4-1.5,0.5-2.8,0.4-4.4c-0.6,0.1-1.3,0.2-2,0.3c0.2,1.4,0.5,2.8,1,4.1
					c0.3,0.8,1.4,1,1.8,0.2c1.1-2,1.4-3.8,1.1-6c-0.2-1-1.6-0.9-1.9,0c-0.9,2.6-0.3,5,1.7,6.9c0.5,0.6,1.4,0.3,1.7-0.4
					c0.8-2.4,0.8-4.6,0.1-7.1c-0.3-1.1-2-0.9-2,0.3c0.1,2.6,0.9,4.7,2.5,6.8c0.5,0.6,1.5,0.2,1.7-0.4c0.6-1.9,0.6-3.4,0.2-5.3
					c-0.2-1.2-1.9-0.8-2,0.3c-0.1,2.2,0.7,3.6,2.4,4.9c0.8,0.6,1.9-0.6,1.4-1.4c-1.8-2.9-4.5-4.5-7.9-4.8c0.3,0.5,0.6,1,0.9,1.5
					c0-0.1,0.1-0.1,0.2-0.2c-0.4,0.1-0.8,0.3-1.1,0.5c-0.1-1.1-0.7-1.2-1.6-0.6c-1.2,0.3-2.4,0.5-3.6,0.6c-1.3,0.2-1.3,2.2,0,2
					c2.2-0.3,5.5-0.2,6.9-2.1c0.2-0.3,0.2-0.7,0-1c-0.3-0.5-0.5-0.7-1.1-0.8c-0.5-0.1-0.9,0.1-1.1,0.5c0,0.1-0.1,0.1-0.2,0.2
					c-0.5,0.7,0.2,1.4,0.9,1.5c2.7,0.2,4.8,1.6,6.2,3.9c0.5-0.5,0.9-0.9,1.4-1.4c-0.5-1.1-0.9-2.1-1.4-3.2c-0.6,0.1-1.3,0.2-2,0.3
					c0.3,1.5,0.2,2.8-0.2,4.3c0.6-0.1,1.1-0.3,1.7-0.4c-1.3-1.7-1.9-3.3-1.9-5.4c-0.6,0.1-1.3,0.2-2,0.3c0.6,2.1,0.5,4-0.1,6.1
					c0.6-0.1,1.1-0.3,1.7-0.4c-1.4-1.4-1.8-3.1-1.2-5c-0.6,0-1.3,0-1.9,0c0.4,1.6,0.1,3.1-0.9,4.5c0.6,0.1,1.2,0.2,1.8,0.2
					c-0.5-1.4-0.9-2.7-1-4.1c-0.1-1.1-2.1-0.9-2,0.3c0.1,1.4,0.1,2.6-0.3,3.9c0.5-0.2,1-0.4,1.5-0.6c-2.2-1.3-3.3-3.2-3.3-5.7
					c-0.6,0.2-1.2,0.3-1.9,0.5c0.6,1.4,1.3,2.8,1.9,4.2c0.5,1,1.8,0.4,1.9-0.5c0-0.6,0.1-1.2,0.1-1.9c-0.6,0.2-1.2,0.3-1.9,0.5
					c0.9,1.4,1.5,2.8,2.1,4.3c0.6-0.2,1.3-0.4,1.9-0.5c-0.4-1.3-0.9-2.6-1.3-3.9c-0.2-0.7-1.5-1.1-1.8-0.2c-3,7.1,9.5,9.8,12.8,4.6
					c1.8-2.8-0.1-6.2-2.8-7.5c-4.6-2.2-9.9,0.8-14.6,0.3C392,137.1,392.1,139.1,393.3,139.2L393.3,139.2z"/>
				<path class="st3" d="M366.2,136.3c1.4-2.9,4.5-6.9,8.2-5.1c1.4,0.7,2.6,2.9,1.2,4.3c-0.6,0.6-1.3,0.7-2,0.4
					c-0.3-0.1-0.6-0.2-0.8-0.5c0-1.4-0.2-1.4-0.8-0.1c-1.1,0.6-0.1,2.3,1,1.7c3.2-1.6,0.7-6.9-1.8-4.1c-2.7,2.9,1.8,5.9,4.6,4.9
					c3.7-1.4,2.8-6.6-0.2-8.2c-4.7-2.6-9.2,1.8-11.1,5.8C363.9,136.4,365.6,137.4,366.2,136.3L366.2,136.3z"/>
				<path class="st3" d="M443.1,190.9c0.6,0.9,1.1,1.9,1.7,2.8c0.7,1.1,2.4,0.1,1.7-1c-0.6-0.9-1.1-1.9-1.7-2.8
					C444.1,188.8,442.4,189.8,443.1,190.9L443.1,190.9z"/>
				<path class="st3" d="M440.6,180.8c0.3,4.9,1.6,9.6,3.9,13.9c0.6,1.1,2.3,0.1,1.7-1c-2.1-4-3.3-8.3-3.6-12.9
					C442.5,179.5,440.5,179.5,440.6,180.8L440.6,180.8z"/>
				<path class="st3" d="M441,178.3c2.3,5.9,4.7,11.7,7.3,17.5c0.5,1.2,2.3,0.1,1.7-1c-2.5-5.6-4.9-11.3-7.1-17
					C442.5,176.6,440.6,177.1,441,178.3L441,178.3z"/>
				<path class="st3" d="M452.9,193.8c3.8,3.5,6.8,7.7,8.9,12.4c0.3,0.6,1.1,0.1,0.9-0.5c-2.1-4.8-5.2-9.1-9-12.6
					C453.1,192.7,452.4,193.4,452.9,193.8L452.9,193.8z"/>
				<path class="st3" d="M457.7,194.7c2.6,3,4.3,6.5,5.3,10.4c0.1,0.6,1.1,0.4,1-0.3c-1-4-2.8-7.6-5.5-10.8
					C458,193.5,457.3,194.2,457.7,194.7L457.7,194.7z"/>
				<path class="st3" d="M462.2,195.6c0.8,1.7,1.6,3.4,2.3,5c0.3,0.6,1.1,0.1,0.9-0.5c-0.8-1.7-1.6-3.4-2.3-5
					C462.8,194.5,462,195,462.2,195.6L462.2,195.6z"/>
				<path class="st3" d="M432.5,164.1c2.1,1.7,4.1,3.4,6.2,5.1c0.5,0.4,1.2-0.3,0.7-0.7c-2.1-1.7-4.1-3.4-6.2-5.1
					C432.7,163,432,163.7,432.5,164.1L432.5,164.1z"/>
				<path class="st3" d="M436,163.6c0.6,0.4,1.1,0.8,1.7,1.2c0.5,0.4,1-0.5,0.5-0.9c-0.6-0.4-1.1-0.8-1.7-1.2
					C435.9,162.4,435.4,163.2,436,163.6L436,163.6z"/>
				<path class="st3" d="M402.6,152.7c1.5,0.6,2.9,1.4,4.2,2.4c0.5,0.4,1-0.5,0.5-0.9c-1.3-0.9-2.7-1.7-4.2-2.4
					C402.5,151.6,402,152.4,402.6,152.7L402.6,152.7z"/>
				<path class="st3" d="M391.3,146.7c0.2,0.2,0.4,0.4,0.6,0.6c0.5,0.5,1.2-0.2,0.7-0.7c-0.2-0.2-0.4-0.4-0.6-0.6
					C391.5,145.6,390.8,146.3,391.3,146.7L391.3,146.7z"/>
				<path class="st3" d="M374.7,134.7c10.4-15.1,40.2-14,42,7.1c0.2,1.9,3.2,1.9,3,0c-2.1-24.2-35.4-26.3-47.6-8.7
					C371,134.8,373.6,136.3,374.7,134.7L374.7,134.7z"/>
				<path class="st3" d="M404,124.9c9.5-0.2,14.7,6.2,19.4,13.5c0.7,1.1,2.4,0.1,1.7-1c-5.1-7.9-11-14.7-21.1-14.4
					C402.8,122.9,402.7,124.9,404,124.9L404,124.9z"/>
				<path class="st3" d="M389.6,133c0.2-1.2,1.2-2.2,2.5-1.9c1.1,0.3,1.7,1.6,1.3,2.7c-0.4,1-1.7,1.4-2.7,1
					c-1.4-0.6-1.4-3.2,0.4-2.6c0-0.6,0-1.3,0-1.9c-1.2,0.2-2.4,0.5-3.6,0.8c0.4,0.5,0.8,1,1.1,1.5c0.4-0.5,0.9-0.7,1.4-0.9
					c1.2-0.3,0.7-2.3-0.5-1.9c-1.1,0.3-1.9,0.9-2.6,1.8c-0.6,0.8,0.4,1.6,1.1,1.5c1.2-0.2,2.4-0.5,3.6-0.8c1-0.2,0.9-1.7,0-1.9
					c-2.8-0.9-4.9,2.3-3.6,4.7c1.2,2.3,4.5,2.6,6.3,0.8c1.8-1.8,1.2-4.9-0.9-6.2c-2.3-1.4-5.5,0.3-5.9,2.9
					C387.5,133.7,389.5,134.3,389.6,133L389.6,133z"/>
				<path class="st3" d="M438.6,148c7.7-5.3,19.5-7.2,27.5-1.1c8.3,6.4,7.2,18,6.2,27.1c-0.1,1.3,1.9,1.3,2,0
					c1.1-10,1.8-22.8-7.6-29.2c-8.6-5.9-20.8-4.1-29,1.5C436.5,147,437.5,148.7,438.6,148L438.6,148z"/>
				<path class="st3" d="M439.8,150.7c6.5-0.9,13.4-2.8,19.7,0.2c7.5,3.6,7.8,11.9,7.6,19.1c0,1.3,2,1.3,2,0
					c0.1-7.2-0.2-15.6-6.9-20c-7-4.5-15.4-2.4-23-1.3C438,149,438.5,150.9,439.8,150.7L439.8,150.7z"/>
				<path class="st3" d="M468.9,163.5c1,0.5,1.8,1.1,2.4,2c0.3,0.4,0.9,0.6,1.4,0.4c0.4-0.3,0.7-0.9,0.4-1.4
					c-0.8-1.1-1.9-2.1-3.1-2.7c-0.5-0.2-1.1-0.1-1.4,0.4C468.3,162.6,468.4,163.3,468.9,163.5L468.9,163.5z"/>
				<path class="st3" d="M466.3,158.6c1.7,0.6,3.4,1.1,5.1,1.7c1.2,0.4,1.8-1.5,0.5-1.9c-1.7-0.6-3.4-1.1-5.1-1.7
					C465.6,156.3,465.1,158.2,466.3,158.6L466.3,158.6z"/>
				<path class="st3" d="M462.7,153.3c2.4,1.4,4.8,2.7,7.2,4.1c1.1,0.6,2.1-1.1,1-1.7c-2.4-1.4-4.8-2.7-7.2-4.1
					C462.6,150.9,461.6,152.7,462.7,153.3L462.7,153.3z"/>
				<path class="st3" d="M461.2,152.4c2.3-0.4,4.4-1.2,6.4-2.4c1.1-0.6,0.1-2.4-1-1.7c-1.9,1.1-3.8,1.8-6,2.1
					C459.4,150.7,459.9,152.7,461.2,152.4L461.2,152.4z"/>
				<path class="st3" d="M459.5,148.4c1.7-1.3,3-2.9,4-4.8c0.6-1.1-1.1-2.1-1.7-1c-0.9,1.7-2.2,3.2-3.7,4.4
					C457,147.7,458.5,149.1,459.5,148.4L459.5,148.4z"/>
				<path class="st3" d="M458.6,146.5c-0.6,0.1-1.1-0.1-1.5-0.6c0,0.3,0,0.7,0,1c0.9-1.3,1.3-2.8,1.4-4.4c0-1.3-2-1.3-2,0
					c0,1.3-0.4,2.4-1.1,3.4c-0.2,0.3-0.2,0.7,0,1c0.7,1.1,1.9,1.7,3.2,1.6C459.9,148.3,459.9,146.3,458.6,146.5L458.6,146.5z"/>
				<path class="st3" d="M453.2,144.7c-0.8-1.6-2.5-2.2-4.2-2c-2.1,0.4-3.5,2.1-4.8,3.7c-0.8,1,1,2,1.7,1c1-1.3,4.1-4.6,5.5-1.8
					C452.1,146.9,453.8,145.9,453.2,144.7L453.2,144.7z"/>
			</g>
			<g>
				<path class="st3" d="M145.9,172.3C145.2,155,171.4,155,183,158c5.8,1.5,11.4,4.4,15.3,9c5.3,6.3,6.2,14.7,6.1,22.6
					c-0.1,5.3,0,10.1-5.9,12.4c-3.6,1.4-7.3,2.4-11,3.4c-7.3,1.8-15,2.7-22.3,0.4c-7.8-2.4-12.9-8.1-15.8-15.5
					c-2.9-7.4-6.1-16.5-4.7-24.5c0.3-1.9-2.2-2.6-2.9-0.8c-3.9,10.2-6.6,21.8-2.4,32.4c3.4,8.4,10.8,14.4,19,17.8
					c16.6,6.8,43,4.1,46.9-17.1c0.4-1.9-2.5-2.7-2.9-0.8c-3.8,20.2-29.5,21.4-44.6,14.4c-7.5-3.5-13.9-9.4-16.3-17.4
					c-2.9-9.4-0.2-19.5,3.2-28.4c-1-0.3-1.9-0.5-2.9-0.8c-1.3,7.7,1.1,15.2,3.4,22.4c2.1,6.3,5,12.6,10.3,16.7
					c12,9.3,28.2,5.9,41.4,1.5c6.1-2,9.8-4.2,10.3-11c0.6-7.5,0.4-15.8-2.6-22.8c-4.7-11.4-16.5-16.8-28.2-18
					c-12.7-1.3-34.3,1.6-33.7,18.5C142.9,174.3,145.9,174.3,145.9,172.3L145.9,172.3z"/>
				<path class="st3" d="M166.3,186.9c-1,2.7-3.8,4.1-4.8,6.8c-0.8,2-0.5,4.2,1.3,5.6c1.3,1,3.8,1.5,4.8-0.2
					c0.7-1.1,0.6-3.3,0.8-4.6c0.3-2,0.6-3.9,0.9-5.9c0.2-1.5-1.9-2.8-2.7-1.2c-1.4,3-2.3,6-2.7,9.3c1,0,2,0,3,0
					c-0.3-2.2,0.2-4.4,1.6-6.2c-0.8-0.6-1.6-1.2-2.4-1.8c-1.3,2-2.2,4.1-2.8,6.3c-0.5,1.9,2.4,2.7,2.9,0.8c0.6-2,1.4-3.8,2.5-5.6
					c0.9-1.4-1.3-3.2-2.4-1.8c-1.9,2.4-2.8,5.2-2.5,8.3c0.2,1.9,2.8,1.9,3,0c0.3-2.7,1.1-5.3,2.3-7.8c-0.9-0.4-1.8-0.8-2.7-1.2
					c-0.3,2-0.6,3.9-0.9,5.9c-0.1,0.7-0.1,2.4-0.5,2.9c0.1,0.4,0,0.5-0.3,0.3c-0.6-0.4-0.8-1-0.6-1.7c0.3-1.7,2-2.9,3-4.1
					c0.9-1.1,1.6-2.1,2.1-3.4C169.8,185.9,166.9,185.1,166.3,186.9L166.3,186.9z"/>
				<path class="st3" d="M176,186.6c-0.2,3,0.4,5.9,1.8,8.5c0.9,1.7,2.6,4.3,4.9,3.2c4.8-2.2-1.9-10.7-4-12.6
					c-0.9-0.9-2.6-0.3-2.6,1.1c0,3.1,1.3,6,3.7,8c1.4,1.1,3-0.2,2.4-1.8c-0.9-1.9-2-3.6-3.5-5.2c-1.3-1.4-3.4,0.7-2.1,2.1
					c1.2,1.2,2.4,2.5,3.5,3.7c1.3,1.4,3.4-0.7,2.1-2.1c-1.2-1.2-2.4-2.5-3.5-3.7c-0.7,0.7-1.4,1.4-2.1,2.1c1.3,1.4,2.3,2.9,3,4.6
					c0.8-0.6,1.6-1.2,2.4-1.8c-1.9-1.5-2.9-3.5-2.9-5.9c-0.9,0.4-1.7,0.7-2.6,1.1c1.2,1.1,2.3,2.4,3.1,3.9c0.4,0.7,0.7,1.4,1,2.1
					c0.1,0.4,0.3,0.9,0.4,1.3c-0.1,0.5,0,0.6,0.3,0.4c0.4-0.1,0.3-0.4-0.3-0.8c-0.2-0.4-0.5-0.8-0.7-1.1c-0.4-0.7-0.6-1.4-0.9-2.1
					c-0.5-1.6-0.6-3.2-0.5-4.9C179.1,184.6,176.1,184.6,176,186.6L176,186.6z"/>
				<path class="st3" d="M188,183c-2.7,1.2-1.1,4.5,0.5,5.8c2.7,2.3,6,3.9,9.5,4.6c1.1,0.2,2.2-0.7,1.9-1.9c-1.6-5-5.8-8.9-11-9.8
					c-1.1-0.2-2.6,1.1-1.7,2.2c1.8,2.3,4,3.6,6.9,3.9c1.5,0.2,2.1-2.2,0.8-2.8c-0.9-0.4-1.8-0.9-2.7-1.3c-0.4,0.9-0.8,1.8-1.2,2.7
					c0.9,0.2,1.9,0.4,2.8,0.6c1.9,0.4,2.7-2.5,0.8-2.9c-0.9-0.2-1.9-0.4-2.8-0.6c-1.6-0.4-2.8,2-1.2,2.7c0.9,0.4,1.8,0.9,2.7,1.3
					c0.2-0.9,0.5-1.9,0.8-2.8c-1.7-0.2-3.2-1.1-4.3-2.5c-0.6,0.7-1.1,1.5-1.7,2.2c4.2,0.8,7.6,3.6,8.9,7.7c0.6-0.6,1.2-1.2,1.9-1.9
					c-1.9-0.4-3.8-1-5.5-2c-0.8-0.4-1.6-1-2.3-1.5c-0.4-0.3-0.7-0.6-1-0.9s-0.2-0.6-0.5-0.5C191.2,184.8,189.7,182.2,188,183
					L188,183z"/>
				<path class="st3" d="M186.5,172.1c2.2-1.3,4.5-1.6,7-1c-0.1-0.9-0.2-1.8-0.4-2.7c-2.5,1.3-5.1,1.7-7.9,1.5c0.1,1,0.3,2,0.4,2.9
					c1.5-0.4,3-0.8,4.5-1.2c-0.5-0.8-1-1.7-1.5-2.5c-0.4,0.4-0.7,0.3-1.1-0.1c-1.4-1.4-3.5,0.7-2.1,2.1c1.5,1.5,3.8,1.5,5.3,0.1
					c1.1-1,0-2.9-1.5-2.5c-1.5,0.4-3,0.8-4.5,1.2c-1.7,0.5-1.2,2.8,0.4,2.9c3.3,0.3,6.5-0.4,9.4-1.9c1.2-0.6,0.8-2.4-0.4-2.7
					c-3.2-0.9-6.4-0.4-9.3,1.3C183.3,170.4,184.8,173,186.5,172.1L186.5,172.1z"/>
				<path class="st3" d="M178,166.5c-0.3-1.2,0.2-2.2,1.1-2.9c-0.8-0.6-1.6-1.2-2.4-1.8c-0.2,0.6-0.4,1.1-0.5,1.8
					c0,0.2-0.1,0.5-0.1,0.6c0,0,0,0.1,0,0.1c-0.2,0.3,0.1,0.4,0.9,0.2c0.1,0.2,0.3,0.4,0.4,0.7c0.1,0.2-0.1,0.7-0.3,0.8
					c-0.2,0.1-0.5,0.1-0.8,0.2c-0.1,0-0.1,0-0.2,0c-0.2-0.1-0.4-0.3-0.7-0.4c0,0,0.1,0.1,0.1,0.1c1.4,1.4,3.5-0.7,2.1-2.1
					c-1.9-1.9-4.5,1.3-2.7,3c0.9,0.9,2.4,0.6,3.2-0.2c0.4-0.4,0.7-0.9,0.8-1.4c0.2-0.6,0.1-1.3,0.3-1.8c0.7-1.6-1-2.9-2.4-1.8
					c-1.8,1.4-2.4,3.7-1.9,5.9C175.6,169.1,178.5,168.4,178,166.5L178,166.5z"/>
				<path class="st3" d="M159.5,163.4c2.3,3.7,5.7,6.4,9.8,7.9c1.3,0.5,2.3-1.1,1.7-2.2c-2-3.4-5.2-5.8-9-6.7
					c-1.3-0.3-2.7,1.5-1.5,2.5c2.2,1.7,4.6,3.2,7.1,4.3c1,0.5,2.8-0.3,2.2-1.7c-0.7-1.8-2.1-3.1-4-3.4c-1.9-0.3-2.7,2.6-0.8,2.9
					c0.9,0.1,1.6,0.4,1.9,1.3c0.7-0.6,1.5-1.1,2.2-1.7c-2.3-1-4.5-2.3-6.5-3.9c-0.5,0.8-1,1.7-1.5,2.5c3.1,0.7,5.6,2.6,7.2,5.3
					c0.6-0.7,1.1-1.5,1.7-2.2c-3.3-1.2-6.1-3.5-8-6.5C161.1,160.2,158.5,161.7,159.5,163.4L159.5,163.4z"/>
				<path class="st3" d="M150.2,171c3.1,2.5,6.5,4.5,10.3,5.9c1.3,0.5,2.3-1.2,1.7-2.2c-1.2-2.1-3-3.8-5.3-4.6
					c-1-0.4-2.1-0.6-2.9,0.3c-0.6,0.6-0.6,1.7-0.1,2.4c0.4,0.6,1,0.8,1.7,0.7c0.1,0,0.2,0,0.2,0c1.9-0.3,1.1-3.1-0.8-2.9
					c-0.1,0-0.2,0-0.2,0c0.6,0.2,1.1,0.5,1.7,0.7c-0.1-0.1-0.1-0.2-0.2-0.3c0.1,0.4,0.1,0.8,0.1,1.2c0-0.1,0-0.2,0.1-0.3
					c-0.4,0.4-0.7,0.7-1.1,1.1c1.4-0.5,3.6,2.4,4.2,3.3c0.6-0.7,1.1-1.5,1.7-2.2c-3.2-1.3-6.2-3-8.9-5.2
					C150.8,167.7,148.7,169.8,150.2,171L150.2,171z"/>
				<path class="st3" d="M158.8,186.1c0.3-1.4,1.4-2.5,2.9-2.6c-0.5-0.6-1-1.3-1.4-1.9c-0.2,0.9-0.9,1.5-1.8,1.3
					c-1.9-0.5-2.7,2.4-0.8,2.9c2.4,0.7,5.1-0.9,5.5-3.4c0.2-0.9-0.4-1.9-1.4-1.9c-2.7,0.1-5.2,2-5.7,4.8
					C155.5,187.2,158.4,188,158.8,186.1L158.8,186.1z"/>
				<path class="st3" d="M171.4,178.8c0.5,0.2,1,0.5,1.5,0.8c0.7,0.4,1.6,0.2,2.1-0.5c0.4-0.7,0.2-1.7-0.5-2.1
					c-0.5-0.2-1-0.5-1.5-0.8c-0.7-0.4-1.6-0.2-2.1,0.5C170.5,177.5,170.7,178.5,171.4,178.8L171.4,178.8z"/>
				<path class="st3" d="M141.2,195.7c-1-3.3-0.1-6.7,2.4-9.1c0.5-0.4-0.2-1.1-0.7-0.7c-2.8,2.6-3.8,6.4-2.7,10.1
					C140.4,196.6,141.4,196.4,141.2,195.7L141.2,195.7z"/>
				<path class="st3" d="M144.4,199.3c0.4-3.7,1.4-7.2,2.9-10.6c0.3-0.6-0.6-1.1-0.9-0.5c-1.6,3.6-2.6,7.2-3,11.1
					C143.4,200,144.4,200,144.4,199.3L144.4,199.3z"/>
				<path class="st3" d="M147.7,204.9c0.2-3.9,0.7-7.9,1.6-11.7c0.1-0.6-0.8-0.9-1-0.3c-0.9,3.9-1.4,7.9-1.6,12
					C146.7,205.6,147.7,205.6,147.7,204.9L147.7,204.9z"/>
				<path class="st3" d="M151,207.3c0.6-3.4,0.8-6.8,0.7-10.2c0-0.6-1-0.6-1,0c0.1,3.4-0.1,6.7-0.6,10
					C149.9,207.7,150.9,208,151,207.3L151,207.3z"/>
				<path class="st3" d="M154.5,209.5c0-2.6,0-5.3,0-7.9c0-0.6-1-0.6-1,0c0,2.6,0,5.3,0,7.9C153.5,210.1,154.5,210.1,154.5,209.5
					L154.5,209.5z"/>
				<path class="st3" d="M156.8,211.1c0-2.4,0-4.9,0-7.3c0-0.6-1-0.6-1,0c0,2.4,0,4.9,0,7.3C155.8,211.8,156.8,211.8,156.8,211.1
					L156.8,211.1z"/>
				<path class="st3" d="M160.4,213c0.4-2.1,0.6-4.2,0.3-6.4c-0.1-0.6-1.1-0.6-1,0c0.2,2.1,0.2,4.1-0.3,6.1
					C159.2,213.4,160.2,213.6,160.4,213L160.4,213z"/>
				<path class="st3" d="M162.6,215.3c0.4-2.3,0.5-4.6,0.3-6.9c-0.1-0.6-1.1-0.6-1,0c0.2,2.2,0.1,4.4-0.3,6.7
					C161.5,215.6,162.5,215.9,162.6,215.3L162.6,215.3z"/>
				<path class="st3" d="M166.3,215.1c0-2.4,0-4.9,0-7.3c0-0.6-1-0.6-1,0c0,2.4,0,4.9,0,7.3C165.3,215.7,166.3,215.7,166.3,215.1
					L166.3,215.1z"/>
				<path class="st3" d="M169.2,216.8c-0.3-2.4-0.2-4.8,0.4-7.2c0.1-0.6-0.8-0.9-1-0.3c-0.5,2.5-0.7,5-0.4,7.5
					C168.3,217.4,169.3,217.4,169.2,216.8L169.2,216.8z"/>
				<path class="st3" d="M172.6,217.9c-0.3-3.4-0.2-6.7,0.3-10c0.1-0.6-0.9-0.9-1-0.3c-0.5,3.4-0.6,6.8-0.3,10.3
					C171.6,218.5,172.6,218.5,172.6,217.9L172.6,217.9z"/>
				<path class="st3" d="M175.1,216.8c0.2-2.4,0.3-4.9,0.5-7.4c0-0.6-1-0.6-1,0c-0.2,2.4-0.3,4.9-0.5,7.4
					C174.1,217.4,175.1,217.4,175.1,216.8L175.1,216.8z"/>
				<path class="st3" d="M178.1,217.3c0-2.4,0-4.9,0-7.3c0-0.6-1-0.6-1,0c0,2.4,0,4.9,0,7.3C177.1,218,178.1,218,178.1,217.3
					L178.1,217.3z"/>
				<path class="st3" d="M180.7,217.9c0.4-3,0.4-6,0.2-9c-0.1-0.6-1.1-0.6-1,0c0.2,3,0.1,6-0.2,9
					C179.6,218.6,180.6,218.6,180.7,217.9L180.7,217.9z"/>
				<path class="st3" d="M183.3,217.3c-0.3-2.8-0.2-5.6,0.3-8.3c0.1-0.6-0.9-0.9-1-0.3c-0.5,2.9-0.6,5.7-0.4,8.6
					C182.3,218,183.3,218,183.3,217.3L183.3,217.3z"/>
				<path class="st3" d="M186.5,215.1c0.2-2.6,0.5-5.2,0.7-7.9c0.1-0.6-0.9-0.6-1,0c-0.2,2.6-0.5,5.2-0.7,7.9
					C185.5,215.7,186.5,215.7,186.5,215.1L186.5,215.1z"/>
				<path class="st3" d="M188.9,214.5c-0.3-2.4-0.1-4.8,0.5-7.2c0.2-0.6-0.8-0.9-1-0.3c-0.6,2.5-0.8,4.9-0.5,7.4
					C188,215.2,189,215.2,188.9,214.5L188.9,214.5z"/>
				<path class="st3" d="M191.1,212.4c0.2-1.7,0.5-3.4,0.7-5.1c0.1-0.6-0.9-0.9-1-0.3c-0.2,1.7-0.5,3.4-0.7,5.1
					C190,212.8,191,213,191.1,212.4L191.1,212.4z"/>
				<path class="st3" d="M193.5,210.2c0.5-1.3,1-2.7,1.5-4c0.2-0.6-0.7-0.9-1-0.3c-0.5,1.3-1,2.7-1.5,4
					C192.3,210.6,193.3,210.8,193.5,210.2L193.5,210.2z"/>
				<path class="st3" d="M193.1,210.4c2.2-1.1,3.9-3,4.8-5.3c0.2-0.6-0.8-0.9-1-0.3c-0.8,2.1-2.3,3.8-4.3,4.7
					C192,209.9,192.5,210.7,193.1,210.4L193.1,210.4z"/>
			</g>
			<g>
				<path class="st3" d="M464.7,393.7c0.5-14.8-16.3-18.8-28-18.8c-11.6,0-24.6,3.6-31.4,13.8c-4,6-5.1,13.4-5.1,20.5
					c-0.1,6.1-0.5,12.9,5.8,16c6.4,3.2,14.6,5,21.6,5.8c6.9,0.8,14,0.2,20.3-3c6.5-3.3,10.6-9,13.3-15.7c3.2-8,6.2-17.4,4.7-26.1
					c-1,0.3-1.9,0.5-2.9,0.8c3.3,8.6,6,18.3,3.4,27.6c-2.3,8.4-8.8,14.6-16.6,18.2c-15.1,7.1-40.9,5.9-44.6-14.4
					c-0.4-1.9-3.2-1.1-2.9,0.8c3.9,21.2,30.3,23.9,46.9,17.1c8.2-3.3,15.5-9.3,19-17.6c4.4-10.6,1.7-22.3-2.3-32.5
					c-0.7-1.8-3.2-1.1-2.9,0.8c1.4,7.8-1.7,16.5-4.5,23.8c-3,7.8-8,13.7-16.1,16.2c-7.3,2.2-15,1.4-22.3-0.4
					c-3.5-0.9-7-1.9-10.3-3.1c-6.1-2.3-6.5-6.7-6.6-12.6c-0.1-7.9,0.8-16.3,6.1-22.6c3.9-4.7,9.5-7.5,15.3-9
					c11.6-3,37.8-3,37.1,14.3C461.6,395.6,464.6,395.6,464.7,393.7L464.7,393.7z"/>
				<path class="st3" d="M438.4,409c0.5,1.3,1.2,2.4,2.1,3.4c1,1.2,2.7,2.5,3,4.1c0.1,0.4,0,1.9-0.9,1.8c-0.1,0-0.5-3.1-0.5-3.4
					c-0.3-2-0.6-3.9-0.9-5.9c-0.9,0.4-1.8,0.8-2.7,1.2c1.2,2.5,2,5.1,2.3,7.8c0.2,1.9,2.8,1.9,3,0c0.4-3.1-0.6-5.9-2.5-8.3
					c-1-1.4-3.3,0.4-2.4,1.8c1.1,1.8,2,3.6,2.5,5.6c0.5,1.9,3.4,1.1,2.9-0.8c-0.6-2.2-1.6-4.4-2.8-6.3c-0.8,0.6-1.6,1.2-2.4,1.8
					c1.4,1.8,1.8,3.9,1.6,6.2c1,0,2,0,3,0c-0.4-3.3-1.2-6.3-2.7-9.3c-0.8-1.7-3-0.4-2.7,1.2c0.3,1.8,0.6,3.6,0.9,5.5
					c0.2,1.4,0.2,3.6,0.8,4.8c0.9,1.8,3.5,1.4,4.9,0.4c1.7-1.3,2.1-3.4,1.4-5.4c-1-2.8-3.9-4.2-4.9-7
					C440.6,406.5,437.7,407.2,438.4,409L438.4,409z"/>
				<path class="st3" d="M428.5,407.9c0.1,1.7,0,3.3-0.5,4.9c-0.2,0.7-0.5,1.4-0.9,2.1c-0.2,0.4-0.4,0.8-0.7,1.1
					c-0.6,0.4-0.8,0.6-0.3,0.8c0.3,0.2,0.4,0.1,0.3-0.4c0.1-0.4,0.2-0.9,0.4-1.3c0.3-0.7,0.6-1.4,1-2.1c0.8-1.5,1.9-2.7,3.1-3.9
					c-0.9-0.4-1.7-0.7-2.6-1.1c0,2.4-1,4.4-2.9,5.9c0.8,0.6,1.6,1.2,2.4,1.8c0.8-1.7,1.7-3.2,3-4.6c-0.7-0.7-1.4-1.4-2.1-2.1
					c-1.2,1.2-2.4,2.5-3.5,3.7c-1.3,1.4,0.8,3.5,2.1,2.1c1.2-1.2,2.4-2.5,3.5-3.7c1.3-1.4-0.8-3.5-2.1-2.1c-1.5,1.5-2.6,3.2-3.5,5.2
					c-0.7,1.6,1,2.9,2.4,1.8c2.5-2,3.8-4.9,3.7-8c0-1.3-1.6-1.9-2.6-1.1c-2.1,1.9-8.7,10.3-4,12.6c2.3,1.1,4-1.5,4.9-3.2
					c1.4-2.6,2-5.6,1.8-8.5C431.4,406,428.4,406,428.5,407.9L428.5,407.9z"/>
				<path class="st3" d="M418,406.9c-0.1-0.1-0.7,0.8-1.1,1.1c-0.8,0.7-1.7,1.3-2.7,1.8c-1.7,1-3.5,1.6-5.5,2
					c0.6,0.6,1.2,1.2,1.9,1.9c1.3-4.1,4.7-7,8.9-7.7c-0.6-0.7-1.1-1.5-1.7-2.2c-1,1.4-2.6,2.2-4.3,2.5c0.2,0.9,0.5,1.9,0.8,2.8
					c0.9-0.4,1.8-0.9,2.7-1.3c1.6-0.8,0.4-3.1-1.2-2.7c-0.9,0.2-1.9,0.4-2.8,0.6c-1.9,0.4-1.1,3.3,0.8,2.9c0.9-0.2,1.9-0.4,2.8-0.6
					c-0.4-0.9-0.8-1.8-1.2-2.7c-0.9,0.4-1.8,0.9-2.7,1.3c-1.3,0.6-0.7,3,0.8,2.8c2.9-0.4,5.1-1.6,6.9-3.9c0.9-1.1-0.6-2.4-1.7-2.2
					c-5.2,1-9.4,4.8-11,9.8c-0.4,1.2,0.8,2.1,1.9,1.9c3.5-0.7,6.8-2.2,9.5-4.6c1.6-1.4,3.2-4.6,0.5-5.8
					C417.8,403.5,416.3,406.1,418,406.9L418,406.9z"/>
				<path class="st3" d="M422.6,390.8c-2.8-1.7-6.1-2.1-9.3-1.3c-1.2,0.3-1.5,2.1-0.4,2.7c3,1.5,6.1,2.2,9.5,1.9
					c1.6-0.1,2.1-2.5,0.4-3c-1.5-0.4-3-0.8-4.5-1.2c-1.4-0.4-2.5,1.5-1.5,2.5c1.5,1.5,3.8,1.5,5.3-0.1c1.3-1.4-0.8-3.5-2.1-2.1
					c-0.3,0.3-0.7,0.4-1,0.1c-0.5,0.8-1,1.7-1.5,2.5c1.5,0.4,3,0.8,4.5,1.2c0.1-1,0.3-2,0.4-3c-2.8,0.2-5.4-0.2-7.9-1.5
					c-0.1,0.9-0.2,1.8-0.4,2.7c2.4-0.6,4.8-0.3,7,1C422.7,394.4,424.2,391.8,422.6,390.8L422.6,390.8z"/>
				<path class="st3" d="M432.4,388.6c0.5-2.1-0.1-4.5-1.9-5.9c-1.4-1.1-3,0.2-2.4,1.8c0.2,0.5,0.1,1.2,0.2,1.7
					c0.1,0.5,0.4,1.1,0.9,1.5c0.9,0.9,2.3,1.1,3.2,0.2c1.8-1.7-0.9-4.9-2.7-3c-1.4,1.4,0.8,3.5,2.1,2.1c0,0,0.1-0.1,0.1-0.1
					c-0.2,0.1-0.4,0.3-0.7,0.4c-0.1,0-0.1,0-0.2,0c-0.2-0.1-0.5-0.1-0.8-0.2c-0.2-0.1-0.4-0.5-0.3-0.8c0.1-0.2,0.3-0.4,0.4-0.7
					c0.8,0.2,1.1,0.1,0.9-0.1c0,0,0-0.1,0-0.1c0-0.2-0.1-0.5-0.1-0.6c-0.1-0.6-0.2-1.2-0.5-1.8c-0.8,0.6-1.6,1.2-2.4,1.8
					c0.9,0.7,1.4,1.8,1.1,2.9C429,389.7,431.9,390.5,432.4,388.6L432.4,388.6z"/>
				<path class="st3" d="M445.4,383.2c-1.9,3-4.7,5.3-8,6.5c0.6,0.7,1.1,1.5,1.7,2.2c1.6-2.7,4.1-4.6,7.2-5.3
					c-0.5-0.8-1-1.7-1.5-2.5c-2,1.5-4.2,2.8-6.5,3.9c0.7,0.6,1.5,1.1,2.2,1.7c0.4-0.9,1.1-1.1,1.9-1.3c1.9-0.3,1.1-3.2-0.8-2.9
					c-2,0.3-3.3,1.6-4,3.4c-0.6,1.4,1.2,2.1,2.2,1.7c2.6-1.1,4.9-2.6,7.1-4.3c1.3-1-0.1-2.8-1.5-2.5c-3.8,0.9-7,3.3-9,6.7
					c-0.6,1.1,0.4,2.7,1.7,2.2c4.1-1.5,7.5-4.2,9.8-7.9C449,383.1,446.4,381.6,445.4,383.2L445.4,383.2z"/>
				<path class="st3" d="M455.2,390.2c-2.7,2.2-5.7,3.9-8.9,5.2c0.6,0.7,1.1,1.5,1.7,2.2c0.6-1,2.8-3.9,4.2-3.3
					c-0.4-0.4-0.7-0.7-1-1c0,0.1,0,0.2,0.1,0.3c0-0.4,0.1-0.8,0.1-1.2c-0.1,0.1-0.1,0.2-0.2,0.3c0.6-0.2,1.1-0.5,1.7-0.7
					c-0.1,0-0.2,0-0.2,0c-1.9-0.3-2.7,2.6-0.8,2.9c0.1,0,0.2,0,0.2,0c0.7,0.1,1.3-0.1,1.7-0.7c0.5-0.7,0.5-1.7-0.1-2.4
					c-0.8-0.8-2-0.6-3-0.3c-2.3,0.8-4.1,2.5-5.3,4.6c-0.6,1,0.4,2.7,1.7,2.2c3.7-1.5,7.1-3.4,10.3-6
					C458.8,391.1,456.7,389,455.2,390.2L455.2,390.2z"/>
				<path class="st3" d="M451.7,406.7c-0.6-2.7-3-4.6-5.7-4.8c-1,0-1.6,1-1.5,1.9c0.4,2.5,3.1,4,5.5,3.4c1.9-0.5,1.1-3.4-0.8-2.9
					c-0.9,0.2-1.7-0.4-1.8-1.3c-0.5,0.6-1,1.3-1.5,1.9c1.5,0.1,2.5,1.2,2.9,2.5C449.2,409.4,452.1,408.5,451.7,406.7L451.7,406.7z"
					/>
				<path class="st3" d="M434.5,397.6c-0.5,0.2-1,0.5-1.5,0.8c-0.7,0.4-0.9,1.4-0.5,2c0.4,0.7,1.3,0.9,2,0.5c0.5-0.2,1-0.5,1.5-0.8
					c0.7-0.4,0.9-1.4,0.5-2C436.2,397.4,435.3,397.2,434.5,397.6L434.5,397.6z"/>
				<path class="st3" d="M467.3,417.3c1.1-3.6,0.1-7.5-2.7-10c-0.5-0.4-1.2,0.3-0.7,0.7c2.5,2.3,3.5,5.8,2.4,9.1
					C466.1,417.7,467.1,418,467.3,417.3L467.3,417.3z"/>
				<path class="st3" d="M464.1,420.7c-0.4-3.9-1.4-7.6-3-11.1c-0.3-0.6-1.1-0.1-0.9,0.5c1.5,3.4,2.5,6.9,2.9,10.6
					C463.2,421.3,464.2,421.3,464.1,420.7L464.1,420.7z"/>
				<path class="st3" d="M460.8,426.3c-0.2-4-0.8-8-1.6-12c-0.1-0.6-1.1-0.4-1,0.3c0.9,3.9,1.4,7.8,1.6,11.7
					C459.8,426.9,460.8,426.9,460.8,426.3L460.8,426.3z"/>
				<path class="st3" d="M457.5,428.4c-0.6-3.3-0.8-6.6-0.6-10c0-0.6-1-0.6-1,0c-0.1,3.5,0.1,6.9,0.7,10.2
					C456.6,429.3,457.6,429,457.5,428.4L457.5,428.4z"/>
				<path class="st3" d="M454,430.8c0-2.6,0-5.3,0-7.9c0-0.6-1-0.6-1,0c0,2.6,0,5.3,0,7.9C453,431.4,454,431.4,454,430.8L454,430.8z
					"/>
				<path class="st3" d="M451.8,432.5c0-2.4,0-4.9,0-7.3c0-0.6-1-0.6-1,0c0,2.4,0,4.9,0,7.3C450.8,433.1,451.8,433.1,451.8,432.5
					L451.8,432.5z"/>
				<path class="st3" d="M448.1,434.1c-0.4-2-0.5-4-0.3-6.1c0.1-0.6-0.9-0.6-1,0c-0.2,2.1-0.1,4.3,0.3,6.4
					C447.3,435,448.3,434.7,448.1,434.1L448.1,434.1z"/>
				<path class="st3" d="M445.9,436.3c-0.4-2.2-0.5-4.4-0.3-6.7c0.1-0.6-0.9-0.6-1,0c-0.2,2.3-0.1,4.6,0.3,6.9
					C445,437.2,446,437,445.9,436.3L445.9,436.3z"/>
				<path class="st3" d="M442.2,436.4c0-2.4,0-4.9,0-7.3c0-0.6-1-0.6-1,0c0,2.4,0,4.9,0,7.3C441.2,437.1,442.2,437.1,442.2,436.4
					L442.2,436.4z"/>
				<path class="st3" d="M439.3,438.1c0.3-2.5,0.1-5-0.4-7.5c-0.1-0.6-1.1-0.4-1,0.3c0.5,2.4,0.6,4.8,0.4,7.2
					C438.3,438.7,439.3,438.7,439.3,438.1L439.3,438.1z"/>
				<path class="st3" d="M435.9,439.2c0.3-3.5,0.1-6.9-0.3-10.3c-0.1-0.6-1-0.4-1,0.3c0.5,3.3,0.6,6.7,0.3,10
					C434.9,439.9,435.9,439.9,435.9,439.2L435.9,439.2z"/>
				<path class="st3" d="M433.4,438.1c-0.2-2.5-0.3-4.9-0.5-7.4c0-0.6-1-0.6-1,0c0.2,2.5,0.3,4.9,0.5,7.4
					C432.5,438.8,433.5,438.8,433.4,438.1L433.4,438.1z"/>
				<path class="st3" d="M430.4,438.7c0-2.4,0-4.9,0-7.3c0-0.6-1-0.6-1,0c0,2.4,0,4.9,0,7.3C429.4,439.3,430.4,439.3,430.4,438.7
					L430.4,438.7z"/>
				<path class="st3" d="M427.8,439.3c-0.4-3-0.5-6-0.2-9c0-0.6-1-0.6-1,0c-0.2,3-0.1,6,0.2,9C426.9,439.9,427.9,439.9,427.8,439.3
					L427.8,439.3z"/>
				<path class="st3" d="M425.2,438.7c0.3-2.9,0.2-5.8-0.4-8.6c-0.1-0.6-1.1-0.4-1,0.3c0.5,2.8,0.6,5.5,0.3,8.3
					C424.2,439.3,425.2,439.3,425.2,438.7L425.2,438.7z"/>
				<path class="st3" d="M422,436.4c-0.2-2.6-0.5-5.2-0.7-7.9c-0.1-0.6-1.1-0.6-1,0c0.2,2.6,0.5,5.2,0.7,7.9
					C421,437,422,437,422,436.4L422,436.4z"/>
				<path class="st3" d="M419.6,435.9c0.3-2.5,0.1-5-0.5-7.5c-0.2-0.6-1.1-0.4-1,0.3c0.6,2.4,0.8,4.8,0.5,7.2
					C418.6,436.5,419.6,436.5,419.6,435.9L419.6,435.9z"/>
				<path class="st3" d="M417.4,433.5c-0.2-1.7-0.5-3.4-0.7-5c-0.1-0.6-1-0.4-1,0.3c0.2,1.7,0.5,3.4,0.7,5
					C416.5,434.4,417.5,434.1,417.4,433.5L417.4,433.5z"/>
				<path class="st3" d="M415,431.3c-0.5-1.3-1-2.7-1.5-4c-0.2-0.6-1.2-0.3-1,0.3c0.5,1.3,1,2.7,1.5,4
					C414.2,432.1,415.2,431.9,415,431.3L415,431.3z"/>
				<path class="st3" d="M414.9,430.9c-2-1-3.5-2.6-4.3-4.7c-0.2-0.6-1.2-0.3-1,0.3c0.9,2.3,2.5,4.2,4.8,5.3
					C415,432,415.5,431.2,414.9,430.9L414.9,430.9z"/>
			</g>
		</g>
		<g class="st4">
			<path class="st2" d="M93.5,280.6c-6.9-6.1-11.6-13.3-13.9-21.7c-2.3-8.4-2.2-17.4,0.3-27c3.5-13.4,9.2-24.5,17-33.6
				c7.8-9,16.7-15.2,26.9-18.6c10.1-3.4,20.5-3.7,31-0.9c9.8,2.6,16.6,7.1,20.3,13.5c3.8,6.4,4.5,13.7,2.3,22
				c-1.5,5.5-3.6,9.7-6.5,12.6c-2.8,2.8-6.1,3.8-9.7,2.8c-2.5-0.7-4.4-1.8-5.5-3.4c-1.1-1.6-1.4-3.5-0.8-5.8
				c0.2-0.8,0.8-2.3,1.7-4.4c1.3-2.6,2.1-4.7,2.5-6.3c2.2-8.3-1.1-13.6-9.9-15.9c-6-1.6-12.2-1.1-18.7,1.3
				c-6.5,2.5-12.4,7-17.8,13.7c-5.4,6.7-9.4,15.3-12.2,25.7c-2.9,10.9-2.1,20.1,2.4,27.7c4.5,7.6,12.7,12.9,24.6,16.1
				c5.9,1.6,12.1,2.4,18.5,2.5c6.4,0.1,13.7-0.4,21.9-1.6c1.5-0.2,2.7-0.2,3.6,0.1c1.5,0.4,2.4,1.2,2.8,2.5c0.4,1.3,0.4,2.8,0,4.5
				c-1.5,5.5-5.5,8.8-12.2,9.9c-7.2,1.1-14.4,1.4-21.7,0.9c-7.3-0.5-14.1-1.6-20.3-3.3C109.3,291.2,100.5,286.7,93.5,280.6z"/>
			<path class="st2" d="M244.7,295.5c0.4,1.3,0.3,2.9-0.2,4.8c-1,3.6-2.6,6.2-4.8,7.8c-5.5,3.7-10.8,6.5-16,8.4
				c-5.2,1.9-10.7,2.1-16.3,0.6c-4.6-1.2-7.8-3.5-9.4-6.8c-1.7-3.3-1.8-7.5-0.5-12.6c0.7-2.5,2.5-6.9,5.5-13.1
				c2.7-5.4,4.3-9.2,4.9-11.4c0.4-1.5,0.1-2.3-0.9-2.6c-1.2-0.3-3.3,0.8-6.2,3.2c-3,2.5-6.2,5.9-9.7,10.3c-3.5,4.4-6.7,9.2-9.5,14.4
				c-3.7,6.8-8.9,9.3-15.7,7.5c-2.7-0.7-4.3-2.2-4.6-4.4c-0.3-2.2,0.2-5.8,1.5-10.9c0.8-2.9,1.4-5.2,2-6.9l3-10.9
				c3.7-14,9-28.2,15.9-42.6c6.9-14.4,14.5-26,22.8-34.9c8.3-8.8,16.4-12.2,24.2-10.1c4.2,1.1,7.1,3.8,8.7,8.1
				c1.6,4.3,1.7,9.3,0.2,15c-2.4,9.2-7.6,18-15.6,26.4c-8,8.4-19.7,17.6-35.3,27.6c-1.5,4.7-2.9,9.5-4.3,14.5c5-6.9,10-12.3,15-16.2
				c5-3.9,9.5-6.4,13.7-7.5c4.1-1.1,7.7-1.3,10.7-0.5c5.9,1.6,8.1,5.3,6.5,11.2c-0.9,3.5-3.6,9.7-8.1,18.4c-3.8,7.4-6.1,12.4-6.7,15
				c-1,3.6-0.1,5.8,2.5,6.5c1.8,0.5,4.3-0.1,7.4-1.6c3.1-1.6,7.4-4.3,12.9-8.2c1.4-1,2.8-1.3,4.2-0.9
				C243.5,293.4,244.3,294.2,244.7,295.5z M216.8,203.8c-3.2,4.2-6.8,10-10.8,17.4c-4,7.5-7.8,15.7-11.4,24.8
				c7.4-5.1,14-11.1,19.7-18c5.7-6.8,9.5-13.4,11.1-19.8c0.8-2.9,1-5.2,0.8-6.9c-0.2-1.7-0.9-2.7-2.1-3
				C222.5,197.8,220.1,199.6,216.8,203.8z"/>
			<path class="st2" d="M232.4,317c-1.6-4.9-1.4-10.8,0.4-17.7c1.1-4.1,3-9.2,5.7-15.3c2.7-6.1,5.7-11.7,8.8-16.9
				c1.6-2.7,3.2-4.4,4.9-5.1s4-0.7,7,0.1c4.6,1.2,6.5,3.4,5.7,6.5c-0.6,2.3-2.9,7.3-6.8,15.1c-4.8,9.4-7.7,15.9-8.6,19.4
				c-0.7,2.7-0.9,4.9-0.6,6.6c0.3,1.6,1.4,2.7,3.1,3.2c1.6,0.4,4-0.2,7-1.8s7.3-4.3,12.7-8.2c1.4-1,2.8-1.3,4.2-0.9
				c1.2,0.3,2,1.1,2.4,2.4s0.3,2.9-0.2,4.8c-1,3.6-2.6,6.2-4.8,7.8c-11.9,8.6-21.8,11.9-29.6,9.8C237.7,325.2,234,321.9,232.4,317z
				 M256.2,248.9c-1.4-2.3-1.7-5-0.9-8.2c0.8-3.2,2.8-5.5,5.9-7c3.1-1.5,6.5-1.7,10.2-0.7c3.4,0.9,5.9,2.4,7.5,4.6
				c1.7,2.2,2.1,4.8,1.3,7.8c-1,3.6-2.9,6.2-5.8,7.7c-2.9,1.5-6.3,1.7-10.2,0.7C260.3,252.8,257.6,251.2,256.2,248.9z"/>
			<path class="st2" d="M264.2,326.3c-0.4-4,0.4-10,2.5-18c3.1-11.8,7.8-22.6,14-32.3c1.5-2.4,3.4-4,5.6-4.7c2.2-0.7,5-0.7,8.3,0.2
				c1.8,0.5,3,1,3.6,1.7c0.6,0.6,0.7,1.6,0.4,2.9c-0.4,1.5-1.9,4.5-4.6,9.3c-1.9,3.4-3.4,6.4-4.7,9c-1.3,2.6-2.6,5.8-4,9.7
				c5.1-7,10.1-12.5,15.1-16.4c5-3.9,9.6-6.4,13.7-7.6c4.1-1.1,7.7-1.3,10.7-0.5c5.9,1.6,8.1,5.3,6.5,11.2
				c-0.9,3.5-3.6,9.7-8.1,18.4c-3.8,7.4-6.1,12.4-6.7,15c-1,3.6-0.1,5.8,2.5,6.5c1.8,0.5,4.3-0.1,7.4-1.6c3.1-1.6,7.4-4.3,12.9-8.2
				c1.4-1,2.8-1.3,4.2-0.9c1.2,0.3,2,1.1,2.4,2.4c0.4,1.3,0.3,2.9-0.2,4.8c-1,3.6-2.6,6.2-4.8,7.8c-5.2,3.8-10.4,6.6-15.7,8.5
				c-5.3,1.9-10.8,2.1-16.6,0.6c-4.6-1.2-7.8-3.5-9.4-6.8c-1.7-3.3-1.8-7.5-0.5-12.6c0.7-2.5,2.5-6.9,5.5-13.1
				c2.7-5.4,4.3-9.2,4.9-11.4c0.4-1.5,0.1-2.3-0.9-2.6c-1.2-0.3-3.2,0.8-6.2,3.2c-2.9,2.5-6.2,5.9-9.7,10.3
				c-3.6,4.4-6.7,9.2-9.6,14.4c-2.1,4-4.1,6.6-5.8,7.7c-1.7,1.1-4,1.4-6.8,0.6C266.6,332.8,264.6,330.3,264.2,326.3z"/>
			<path class="st2" d="M399.3,336.5c0.4,1.3,0.3,2.9-0.2,4.8c-1,3.6-2.6,6.2-4.8,7.8c-4.4,3.2-10.2,5.7-17.2,7.5
				c-7,1.8-14.1,1.8-21.1,0c-9.5-2.5-16.3-7.1-20.2-13.6c-3.9-6.6-4.7-14.4-2.3-23.3c1.7-6.3,4.5-11.8,8.6-16.5
				c4.1-4.7,8.9-8,14.4-10c5.5-1.9,11.2-2.1,17.1-0.6c5.3,1.4,9.1,4.1,11.4,8.1c2.3,4,2.8,8.6,1.4,14c-1.7,6.3-5.3,11.1-11,14.4
				s-14.2,4.9-25.7,4.7c1.2,4.8,4.9,8,11.3,9.7c4.1,1.1,9.1,0.9,15.1-0.6c6-1.5,11.5-4,16.5-7.7c1.4-1,2.8-1.3,4.2-0.9
				C398.1,334.4,398.9,335.2,399.3,336.5z M357.8,308.8c-3.4,3.3-5.8,7.7-7.2,13.3l-0.1,0.3c5.7,0.1,10.4-0.6,14.2-2.4
				c3.8-1.7,6.1-4.3,7-7.6c0.5-1.7,0.3-3.2-0.3-4.5c-0.7-1.3-1.8-2.2-3.5-2.6C364.5,304.3,361.1,305.5,357.8,308.8z"/>
			<path class="st2" d="M396.1,366.8c-1.9-2.8-2.5-5.6-1.8-8.3c0.6-2.4,2-4.2,4.2-5.4c2.2-1.3,5-1.5,8.3-0.6
				c1.2,0.3,2.5,0.8,4.1,1.4c1.5,0.6,2.7,1.1,3.5,1.4c0.5-2.4,0.6-4.7,0.2-7.1c-0.4-2.3-1.1-4.7-2-7c-0.9-2.3-1.8-4.4-2.7-6.2
				c-4.2,4.6-8.2,8.3-11.9,11.1c-3.7,2.8-7.6,5.4-11.7,7.7c-2.1,1.2-4,1.6-5.8,1.1c-1.5-0.4-2.5-1.2-3.1-2.5
				c-0.6-1.3-0.7-2.7-0.3-4.2c0.5-1.8,1.6-3.3,3.2-4.5l2.3-1.7c6.6-4.9,11.7-8.9,15.4-12.3c2.2-2.2,5-5.3,8.2-9.1s6.5-7.9,9.8-12.1
				c2.8-3.5,6.9-4.6,12.4-3.1c2.5,0.7,4.3,1.4,5.1,2.1c0.9,0.7,1.2,1.6,0.9,2.6c-0.1,0.5-0.6,1.4-1.2,2.4c-0.7,1.1-1.5,2.1-2.4,3.1
				c-2.5,2.8-4.1,5.4-4.7,7.7c-0.4,1.4-0.3,3,0.2,4.9c0.5,1.9,1.5,4.3,2.8,7.3c1.9,4.6,3.2,8.4,4,11.5c0.8,3.1,0.8,6.2-0.1,9.4
				c-0.2,0.9-0.7,2.2-1.3,3.7c4.9-0.5,11.3-3.8,19.3-9.6c1.4-1,2.8-1.3,4.2-0.9c1.2,0.3,2,1.1,2.4,2.4c0.4,1.3,0.3,2.9-0.2,4.8
				c-0.9,3.5-2.5,6-4.8,7.8c-6,4.4-11.4,7.1-16.1,8.1c-4.7,0.9-10.1,0.7-16.2-0.7c-4.5,2.1-9.2,2.5-14.2,1.2
				C401.3,371.7,398,369.6,396.1,366.8z"/>
			<path class="st2" d="M511.1,366c0.4,1.3,0.3,2.9-0.2,4.8c-1,3.6-2.6,6.2-4.8,7.8c-4.4,3.2-10.2,5.7-17.2,7.5
				c-7,1.8-14.1,1.8-21.1,0c-9.5-2.5-16.3-7.1-20.2-13.6c-3.9-6.6-4.7-14.4-2.3-23.3c1.7-6.3,4.5-11.8,8.6-16.5
				c4.1-4.7,8.9-8,14.4-10c5.5-1.9,11.2-2.1,17.1-0.6c5.3,1.4,9.1,4.1,11.4,8.1c2.3,4,2.8,8.6,1.4,14c-1.7,6.3-5.3,11.1-11,14.4
				c-5.7,3.3-14.2,4.9-25.7,4.7c1.2,4.8,4.9,8,11.3,9.7c4.1,1.1,9.1,0.9,15.1-0.6c6-1.5,11.5-4,16.5-7.7c1.4-1,2.8-1.3,4.2-0.9
				C509.9,364,510.7,364.8,511.1,366z M469.5,338.4c-3.4,3.3-5.8,7.7-7.2,13.3l-0.1,0.3c5.7,0.1,10.4-0.6,14.2-2.4
				c3.8-1.7,6.1-4.3,7-7.6c0.5-1.7,0.3-3.2-0.3-4.5c-0.7-1.3-1.8-2.2-3.5-2.6C476.2,333.9,472.9,335.1,469.5,338.4z"/>
		</g>
	</g>
</g>
</svg>
