<?xml version="1.0" encoding="utf-8"?>
<!-- Generator: Adobe Illustrator 25.4.1, SVG Export Plug-In . SVG Version: 6.00 Build 0)  -->
<svg version="1.1" id="PRINT" xmlns="http://www.w3.org/2000/svg" xmlns:xlink="http://www.w3.org/1999/xlink" x="0px" y="0px"
	 viewBox="0 0 595.3 595.3" style="enable-background:new 0 0 595.3 595.3;" xml:space="preserve">
<style type="text/css">
	.st0{fill:#2B343A;}
	.st1{display:none;}
	.st2{display:inline;}
	.st3{fill:#FFCD0F;}
	.st4{fill:#383F50;}
	.st5{enable-background:new    ;}
	.st6{fill:#FFFFFF;}
</style>
<g>
	<g>
		<path class="st0" d="M-161.6,253.7c1.3,0,1.3-2,0-2S-162.9,253.7-161.6,253.7L-161.6,253.7z"/>
	</g>
</g>
<g>
	<g>
		<path class="st0" d="M-161,359.9c0.6,0,0.6-1,0-1S-161.6,359.9-161,359.9L-161,359.9z"/>
	</g>
</g>
<g>
	<g>
		<path class="st0" d="M-167,356.7c2.6,0,2.6-4,0-4C-169.5,352.7-169.6,356.7-167,356.7L-167,356.7z"/>
	</g>
</g>
<g class="st1">
	<g class="st2">
		<path class="st0" d="M-168.3,378.7c2.6,0,2.6-4,0-4S-170.9,378.7-168.3,378.7L-168.3,378.7z"/>
	</g>
</g>
<g>
	<rect x="-14.3" y="-9.4" class="st3" width="624" height="624"/>
	<g>
		<g>
			<path class="st4" d="M244.3,566.2c0,2.2-1.7,3.9-3.9,3.9c-2.1,0-3.9-1.7-3.9-3.9s1.7-3.9,3.9-3.9S244.3,564,244.3,566.2z"/>
			<path class="st4" d="M282.5,566.2c0,2.2-1.7,3.9-3.9,3.9c-2.1,0-3.9-1.7-3.9-3.9s1.7-3.9,3.9-3.9S282.5,564,282.5,566.2z"/>
			<path class="st4" d="M320.7,566.2c0,2.2-1.7,3.9-3.9,3.9c-2.1,0-3.9-1.7-3.9-3.9s1.7-3.9,3.9-3.9S320.7,564,320.7,566.2z"/>
			<path class="st4" d="M358.9,566.2c0,2.2-1.7,3.9-3.9,3.9c-2.1,0-3.9-1.7-3.9-3.9s1.7-3.9,3.9-3.9
				C357.2,562.3,358.9,564,358.9,566.2z"/>
		</g>
	</g>
	<g>
		<g>
			<path class="st0" d="M243.1,418.5c1.9,0,1.9-3,0-3S241.1,418.5,243.1,418.5L243.1,418.5z"/>
		</g>
	</g>
	<g>
		<g>
			<path class="st0" d="M359.3,418c0.2,0.7,0.5,1.3,0.7,2c0.4,1.2,2.3,0.7,1.9-0.5c-0.2-0.7-0.5-1.3-0.7-2
				C360.8,416.3,358.9,416.8,359.3,418L359.3,418z"/>
		</g>
	</g>
	<g>
		<g>
			<path class="st0" d="M410.5,205.2c-31.7-22.1-66.7-39-104-49.4c-37.1-10.4-76.5-16.6-114.9-11.1c-7.7,1.1-15.3,2.6-22.9,4.1
				c-0.8-0.3-1.8-0.4-2.8,0.1c-0.6,0.3-1.3,0.6-1.9,0.9c-0.3,0.1-0.6,0.1-0.9,0.2c-0.9,0.2-1.5,0.6-1.9,1.2
				c-26.6,13.4-47,38.1-55.2,66.8c-1.4,4.9-2.4,9.9-3,14.9c-0.5,0.5-0.8,1.2-0.9,2c-4,32.2-3.3,66.1,12,95.5c1.6,3.1,3.4,6,5.3,8.9
				c0.1,0.5,0.2,1.1,0.3,1.7c0.2,0.8,0.9,1.1,1.5,0.9c14.4,19.9,35.7,32.7,59.6,39.6c32.1,9.3,66,7.5,98.1,16.8
				c31.6,9.1,60.5,25.8,92.3,34.4c30.6,8.2,65.7,8.9,92.3-10.6c1.2-0.9,1.6-2.2,1.4-3.4c3.3-1.8,6.5-4,9.4-6.6
				c10.3-9.2,16.5-22.4,19.6-35.7c7.2-31.2-0.6-64.8-14.1-93.2C464.4,250.3,439.8,225.7,410.5,205.2z M400.3,206.1
				c5.2,5.3,9.4,11.5,12.5,18.3c0.4,0.8,1.5,0.1,1.1-0.7c-2.4-5.3-5.5-10.2-9.2-14.7c4.9,3.3,9.7,6.8,14.3,10.4c0,0.2,0,0.4,0.1,0.6
				c20.2,23.7,38.4,48.9,54.6,75.5c0.5,0.7,1.6,0.1,1.1-0.7c-15.5-25.4-32.8-49.5-51.9-72.3c12.7,10.3,24.4,21.8,34,35
				c14,19.2,24.7,41.8,29.8,65.4c-12.2-16.1-23.7-32.8-34.4-50c-0.5-0.7-1.6-0.1-1.2,0.6c-14.8-19.7-30.6-38.7-47.5-56.7
				c-0.6-0.6-1.5,0.3-0.9,0.9c24.5,26.3,47,54.4,67.1,84.2c0.1,0.1,0.1,0.2,0.2,0.2c5.6,8,11.3,15.9,17.2,23.6
				c1.3,6.6,2.1,13.4,2.5,20.1c-4.1-5.2-9.4-12-10.1-13c-4.7-5.7-9.4-11.4-14.2-17c-6.6-16.2-16.8-30.9-29.6-42.9
				c-22-30.2-45.5-59.3-70.4-87.2c3.9,1.9,7.7,4,11.4,6.1C384.7,196.4,392.6,201.1,400.3,206.1z M466.5,383.9
				c-0.1-0.4-0.2-0.8-0.4-1.1c-0.2-0.8-1.5-0.5-1.3,0.4c0.2,0.9,0.5,1.7,0.9,2.5c-2.9,5.8-7.4,9.8-12.7,12.4c0,0,0-0.1,0-0.1
				c-0.2-0.8-1.5-0.5-1.3,0.4c0,0.1,0.1,0.2,0.1,0.3c-11.9,5.2-27.4,3.5-38.9-2.4c-2.4-1.2-4.3-2.5-5.9-4c-0.4-0.5-0.7-1-1-1.5
				c-0.2-0.3-0.5-0.3-0.7-0.3c-12.6-14.3,1.6-38.4,7-54.5c3.7-10.9,4.2-21,2.9-32.4c-0.8-6.7-1.9-14.3,1.2-20.6
				c2.2-4.5,6.2-8.3,10.9-8.9c1.1,1.3,2.1,2.6,3.2,4c0.5,0.7,1.5-0.3,0.9-0.9c-0.8-1-1.7-2.1-2.5-3.1c0.8,0,1.5,0.1,2.3,0.3
				c15,13.4,26.4,30.3,32.9,49.3c6.1,17.9,10,41.3,2.8,59.5C466.7,383.3,466.6,383.6,466.5,383.9z M450.4,417
				c-2.6,0.6-5.1,1-7.6,1.2c-2-3.7-4.2-7.4-6.5-10.9c-0.5-0.7-1.6,0-1.1,0.7c2.2,3.4,4.3,6.8,6.2,10.4c-2.4,0.1-4.7,0.2-7,0
				c-3.3-4.3-6.2-8.8-8.9-13.5c6.1,1.1,12.4,1.1,18.2,0.2c2.4,4,4.9,7.9,7.3,11.9C450.7,416.9,450.6,417,450.4,417z M383.4,428.2
				c-0.1-0.6-0.7-1-1.3-1c-0.1,0-0.2,0-0.2,0c-0.1,0-0.1,0-0.2,0c-0.7-3.7-2.5-10.1-2.6-10.7c-1-4.4-1.6-8.8-1.9-13.2
				c-0.1-1.7-2.8-1.7-2.7,0c0.5,5.6,1.3,11.1,2.7,16.6c0.5,1.8,0.9,5.1,1.9,7.6c-2.6-0.6-5.1-1.3-7.7-2.1c0.2-0.3,0.4-0.6,0.3-1.1
				c-1.5-9.2-2.9-18.3-4.4-27.5c-0.3-1.7-2.8-1-2.6,0.7c1.4,9.1,2.9,18.1,4.3,27.2c-6.5-2-12.9-4.2-19.3-6.6c0-1.7,0.1-3.4,0.1-5.1
				c0-1.2-1.4-1.6-2.1-1c-2.3-8.4-4-16.9-5.2-25.6c-0.2-1.7-2.9-1.7-2.7,0c1.4,10.3,3.5,20.4,6.4,30.4c-2.2-0.8-4.4-1.7-6.5-2.6
				c0.3,0,0.6,0,0.9,0c1.7-0.3,1-2.9-0.7-2.6c0,0-0.6-3.9-1.4-9.2c0.8-0.5,0.9-2.1-0.3-2.5c0,0,0,0-0.1,0c-0.2-1.5-0.5-3-0.7-4.6
				c0.1-0.4,0.1-0.8-0.2-1.2c-0.9-6.2-1.9-12.4-2.4-15.6c5.8,2.6,11.5,5.4,17.1,8.4c-0.7,0-1.4,0.4-1.4,1.3
				c-0.1,6.5,0.5,12.9,2.1,19.1c0.8,3,1.7,10,4.8,11.6c0.7,0.3,1.4,0.1,1.8-0.5c0.1-0.1,0.2-0.3,0.3-0.4c0.3-0.5,0.2-1.2-0.2-1.6
				c-0.1-0.1-0.2-0.2-0.3-0.3c-0.3-0.3-0.7-0.4-1.1-0.3c-1.9-2.6-3.1-10.4-3.5-12.3c-1-5.1-1.4-10.2-1.3-15.4c0-0.3-0.1-0.5-0.2-0.7
				c1.4,0.8,2.7,1.5,4.1,2.3c-0.5,0.3-0.9,0.8-0.8,1.5c1.7,9.9,3.8,19.6,6.5,29.3c0.5,1.6,3,1,2.6-0.7c-2.6-9.6-4.8-19.2-6.4-29
				c6.2,3.6,12.3,7.4,18.5,11.2c4.3,2.7,8.7,5.4,13.2,7.9c-0.5,0.4-0.7,1-0.2,1.6c0.3,0.4,0.5,0.8,0.8,1.2c-1-0.1-2,1.3-1.1,2.3
				c0.8,1-0.4,3.4-0.7,5.5c-0.3-1-0.6-2.1-1-3.1c-1-3.3-2.1-6.6-3.1-9.9c-0.4-1.4-2.6-1.2-2.6,0.4c0,3,0,6,0,9
				c-1-3.6-1.7-7.3-2.1-11c-0.2-1.7-2.9-1.7-2.7,0c0.8,6.8,2.4,13.2,4.9,19.6c0.5,1.3,2.6,1.2,2.6-0.4c0-2.9,0-5.7,0-8.6
				c0.5,1.4,0.9,2.9,1.4,4.3c0.8,2.4,1.2,6.7,3,8.8c-2.1-0.4-4.3-0.8-6.4-1.3C383.4,428.4,383.4,428.3,383.4,428.2z M295.6,396.5
				c-0.4-2.4-0.2-5.3,0-7.8c2.1,1.6,4.1,3.4,6.1,5.2c0.1,1.7,0.2,3.3,0.3,5C299.8,398,297.7,397.3,295.6,396.5z M220.3,382.2
				c-0.4-1.2-0.9-2.5-1.3-3.8c0.7,0,1.3,0,2,0.1c0,0.1,0,0.1,0,0.2c0.1,0.5,0.4,1.2,1,1.3c0.1,0,0.3,0,0.4,0.1c0.4,0.1,1,0,1.3-0.3
				c0.1-0.1,0.2-0.2,0.3-0.4c0.2-0.2,0.3-0.5,0.3-0.7c1.4,0,2.8,0.1,4.2,0.1c0.3,1.5,0.5,3,0.8,4.6
				C226.3,383,223.3,382.6,220.3,382.2z M190.8,377c-0.7-2.3-1.4-4.5-2.1-6.8c0.8,0.5,1.7,0.9,2.5,1.4c0.3,1.6,0.7,3.9,1.3,5.9
				C192,377.3,191.4,377.1,190.8,377z M185.1,375.5c-1-2.9-1.9-5.9-2.7-8.8c1,0.6,2,1.2,3,1.7c0.8,2.6,1.6,5.2,2.4,7.8
				C186.9,376,186,375.7,185.1,375.5z M150.4,360.4c-0.4-1.3-0.7-2.7-1-4c4.4,3.7,9.1,7,14.1,10c0.4,0.6,0.9,1.2,1.4,1.8
				C159.8,366,155,363.4,150.4,360.4z M144.1,356.1c-0.6-1.9-1.1-3.8-1.6-5.7c1.1,1,2.2,2.1,3.3,3.1c0.4,1.6,0.8,3.2,1.2,4.8
				C146.1,357.5,145.1,356.8,144.1,356.1z M138.6,351.5c-0.6-2.3-1.1-4.5-1.6-6.8c0.6,0.7,1.3,1.4,1.9,2.1c0.5,2.2,1,4.3,1.6,6.5
				C139.9,352.6,139.2,352.1,138.6,351.5z M129.5,332.4c-1.1-6.2-2.1-12.4-2.9-18.6c-0.2-1.7-2.9-1.7-2.7,0
				c1.1,8.9,2.6,17.7,4.4,26.5c-0.3-0.4-0.6-0.8-0.9-1.2c-2.6-10.1-4.1-20.3-4.7-30.7c-0.1-1.7-2.8-1.7-2.7,0
				c0.4,8.3,1.5,16.4,3.2,24.4c-1.1-1.8-2.2-3.7-3.2-5.6c-1.3-9-2.1-18-2.3-27c1.9,3.3,4.1,6.4,6.4,9.5c2,2.7,4.1,5.2,6.4,7.6
				c0.5,6,1.2,11.9,2.1,17.8c-0.6-0.7-1.1-1.5-1.6-2.2C130.6,332.4,130,332.2,129.5,332.4z M109.5,283.2c0.1,5.8,0.4,11.6,0.9,17.4
				c-1.8-8-2.9-16.2-3.3-24.5C107.7,278.5,108.5,280.9,109.5,283.2z M109.1,238.2c5.6,9.6,11.2,19.1,16.9,28.6
				c2.8,9.1,7.7,16.6,14.2,23.5c9.6,15.7,19.4,31.3,29.3,46.8c-6.2-2.7-12.2-6-17.9-9.9C123.3,307.7,106.6,272.5,109.1,238.2z
				 M130.6,272c-1.1-2.5-2-5-2.7-7.8c-0.5-2-0.9-4-1.1-5.9c2.8,12.3,9.9,23.2,18.2,32.9c0.8,0.9,1.6,1.8,2.4,2.7
				c-3.7-3.4-7.1-6.9-10.1-10.8C135.1,279.4,132.8,275.7,130.6,272z M116,209.3c2.6,5.8,6,11.2,9.9,16.2c-0.5,2.3-0.9,4.7-1.2,7
				c-4.3-4.5-8.2-9.2-11.9-14.2C113.7,215.2,114.8,212.2,116,209.3z M118.9,202.9c3.2,3.8,6.4,7.7,9.5,11.5
				c-0.8,3.1-1.5,6.2-2.2,9.4c-3.9-5-7.1-10.4-9.6-16.1C117.4,206,118.1,204.4,118.9,202.9z M123.6,194.4c2.1,3.4,4.7,6.4,7.7,9.1
				c-0.3,1.1-0.6,2.2-0.9,3.3c-0.5,2-1,4-1.6,6.1c-3.1-3.7-6.2-7.5-9.3-11.2C120.8,199.1,122.1,196.7,123.6,194.4z M135.5,178.8
				c0.4,0.7,0.9,1.4,1.3,2.1c0.3,0.5,1,0.3,1.2-0.1c0.8,0.9,1.5,1.9,2.2,2.9c-4,5.3-6.5,11.6-8.5,18.4c-2.8-2.6-5.2-5.6-7.3-8.9
				C127.7,188,131.4,183.2,135.5,178.8z M157.3,160.9c2.1,1.7,4.1,3.4,6.2,5.2c0.6,0.5,1.6-0.4,0.9-0.9c-2-1.6-4-3.3-6-5
				c2.5-1.5,5-2.8,7.6-4.1c5.2-1,10.4-2,15.7-3c3.7,3.7,7.4,7.4,11.1,11.1c-1.8,0.1-3.5,0.3-5.3,0.6c-6.4-0.8-12.6-0.8-18.6,1
				c-0.4-0.1-0.9-0.1-1.4,0.1c-0.9,0.4-1.9,0.9-2.8,1.4c-0.4,0.2-0.7,0.3-1.1,0.5c-0.3,0.1-0.5,0.3-0.6,0.5
				c-1.3,0.8-2.6,1.6-3.8,2.5c-2.1,0.7-4.1,1.5-6,2.4c-0.4,0.2-0.7,0.4-1.1,0.5c-1.4-2.2-3.1-4.1-5-5.9
				C150.4,165.4,153.8,163,157.3,160.9z M285.3,275.6c2.2,8.3,2.8,17,0.5,25.5c-5.2,19-25.3,18.2-41.4,19.4
				c-15.2,1.1-30.8,1.6-45.9-1.3c-16.6-3.1-31-10.7-43-22.5c-11-10.9-21.9-24.3-25.1-39.8c-3.4-16.9,2.6-36.5,9-52.1
				c5.4-13.1,13.3-25.1,25.3-32.6c3.1-0.8,6.3-1.5,9.4-2.2c3.1-0.7,6.3-1.3,9.4-1.9c10.6,0.4,21.8,3.7,30.6,6.8
				c16.6,6,24.9,20.6,34.1,34.7c8.4,12.9,17.4,25.5,25.1,38.9C277,257.7,280.7,266.9,285.3,275.6z M244.6,326.9c-0.7,0-1.5,0-2.2,0
				c-0.1-0.1-0.2-0.3-0.3-0.4c-0.4-0.6-1.3-0.2-1.2,0.4c-2.6,0-5.2,0-7.9-0.1c0,0-0.1-0.1-0.1-0.1c-0.3-0.5-1-0.3-1.2,0.1
				c-2.4-0.1-4.9-0.2-7.3-0.3c-0.2-0.4-0.5-0.8-0.8-1.3c5.4,0,10.9-0.2,16.3-0.5c11.3-0.7,27.2,0,38.1-6.2
				C269.3,326.2,255.8,326.8,244.6,326.9z M307.4,304.5c2-7.4,2.8-14.8,0.1-21.9c0.7-0.6,1.4-1.1,2.1-1.4c1.5,1.7,3,3.3,4.5,5
				c0.6,0.6,1.5-0.3,0.9-0.9c-1.4-1.5-2.7-3-4.1-4.5c1.6-0.3,3.2,0.1,4.9,1.4c1.2,0.7,2.5,1.4,3.8,2c1.6,0.8,3.1,1.5,4.8,2.2
				c5.1,2.1,10.4,3.8,15.8,4.8c10.5,2,24-0.9,32.6,6.7c8.3,7.4,11.2,20.6,12.1,31.2c0.8,9.9,1.2,29.3-10.1,33.4
				c-10.6,3.9-24.5-2.5-33.8-7.1c-10.1-4.9-19.8-10.6-29.6-16.1c-1.9-1-4.3-2-6-3.3c-5.7-4.5-4.3-9.4-2.9-15.1
				C303.6,315.2,305.8,309.9,307.4,304.5z M247.1,150.7c8.1,7.6,14.7,16.5,19.7,26.5c-3.6,1.1-6.8,2.9-9.6,5.7
				c-1.6-0.7-3.7,1-2.6,2.8c8.7,13.4,17.7,26.7,27.1,39.7c7.1,9.9,14.1,20.7,23.9,28.3c11.3,8.8,26,12.4,39.5,16.1
				c14.1,3.9,29,8.3,43.6,9.9c2.7,0.3,4.9,0,6.9-0.8c4.6,5.5,9.3,11,13.9,16.5c0.3,0.4,0.7,0.2,0.9,0c0.3,7.4,2.1,14.9,1.8,22
				c-0.3,4.8-1.2,9.5-2.6,14c-12.3-15.8-24.5-31.5-36.8-47.3c-0.5-0.7-1.5,0.3-0.9,0.9c7.8,10,15.6,20,23.3,30
				c-3.1-2.5-5.9-5.3-8.5-8.3c-0.6-0.6-1.5,0.3-0.9,0.9c3.2,3.7,6.8,7,10.6,10c0.3,0.2,0.6,0.1,0.8-0.1c4,5.1,8,10.3,12,15.4
				c-2.4,7.6-5.8,14.9-8.5,22.4c0-0.1-0.1-0.2-0.2-0.3c-4.5-4.3-8.3-9.1-11.3-14.5c0.2-2.6,0.2-5.3,0-7.9c3.5,4.1,7.1,8.2,10.7,12.4
				c0.6,0.6,1.5-0.3,0.9-0.9c-3.9-4.5-7.8-9.1-11.7-13.6c-0.1-2.2-0.4-4.4-0.7-6.4c-0.2-1.2-0.4-2.5-0.6-3.8
				c5.4,5.6,11.1,11,17.1,16.1c0.6,0.5,1.6-0.4,0.9-0.9c-6.5-5.5-12.6-11.4-18.5-17.5c-1.5-7.2-4.2-14.5-8.7-20.1
				c-4.8-5.9-10.9-8.3-18-9.2c-5.6-5.1-11-10.5-16.1-16.1c-0.6-0.6-1.5,0.3-0.9,0.9c4.7,5.2,9.6,10.2,14.8,15c-0.5,0-1-0.1-1.5-0.1
				c-1.6-0.1-3.1-0.2-4.7-0.3c-6.6-6.7-13.3-13.4-20-20c-0.6-0.6-1.5,0.3-0.9,0.9c6.3,6.3,12.6,12.6,18.9,19
				c-5.3-0.4-10.5-1-15.7-2.5c-1.6-0.5-3.2-1-4.7-1.6c0.3-0.2,0.4-0.6,0.1-1c-8.8-10.9-18.5-21.1-29-30.5c-0.6-0.6-1.6,0.4-0.9,0.9
				c10.3,9.2,19.9,19.2,28.6,30c-4.2-1.8-8.3-3.9-12.5-5.8c-2.6-1.1-5.7-1.5-8.3-0.8c-12-13.8-22.9-28.4-32.8-43.8
				c-11.5-18-20.4-37.3-30.8-55.9c-5.5-9.9-11.6-19.3-19.1-27.8C232.3,149.4,239.7,149.9,247.1,150.7z M264.4,153.9
				c7.6,7.5,15.2,14.9,22.9,22.4c-6.3-0.8-13.1-1-19.2,0.6c-4.8-9.7-11.1-18.4-18.8-25.9c5,0.6,10.1,1.3,15,2.2
				C264.2,153.4,264.2,153.6,264.4,153.9z M344.8,199.8c0.2,0.2,0.4,0.5,0.6,0.7c0.2,0.3,0.6,0.3,0.8,0.1
				c10.3,6.1,20,13.4,28.6,21.7c8.1,7.8,16.3,16.6,21.1,26.8c2.8,5.9,4.6,13,3,19.4c-2.6,10.3-13.6,6.7-21.2,5.1
				c-11.9-2.5-23.6-5.4-35.3-8.7c-12-3.4-24.7-6.7-34.7-14.6c-10.5-8.3-18-20.3-25.6-31.1c-7.7-10.9-15.2-22-22.5-33.2
				c7.8-8,20-7.1,30.2-5.6c10.1,1.5,20,4,29.7,7.5C328.3,191.3,336.8,195.2,344.8,199.8z M410.5,399.8c3.8,5.6,7.5,11.1,11.3,16.7
				c-8.3-2.1-16.3-5.6-24.2-9.8c0.1-0.2,0.1-0.5-0.1-0.7c-5.1-4.8-7.6-11.8-10.6-18c-3.2-6.8-6.5-13.6-9.7-20.3
				c-0.4-0.8-1.5-0.1-1.1,0.7c3.4,7.2,6.9,14.3,10.3,21.5c2.5,5.2,4.7,10.8,8.5,15.3c-3.6-2-7.1-4.1-10.6-6.3c0-0.1,0-0.3-0.1-0.5
				c-6.5-10.2-13-20.3-19.5-30.5c-0.5-0.7-1.6,0-1.1,0.7c6.2,9.6,12.3,19.3,18.5,29c-5.2-3.2-10.3-6.6-15.4-9.7
				c-4.6-7.6-9.2-15.3-13.6-23.1c4.8,1.6,9.8,2.6,14.8,2.6c9.8,0,15.3-5.4,18.3-12.8c3.4,4.3,7,8.4,10.9,12.2
				c-1.8,8.5-1.8,17.5,3.6,24.7C403.2,394.8,406.6,397.6,410.5,399.8z M424.2,405.5c2.5,4.5,5.3,8.7,8.3,12.8
				c-3-0.2-5.9-0.7-8.8-1.4c-3.6-5.3-7.2-10.6-10.8-15.9c3.5,1.6,7.4,2.9,11.4,3.6C424.1,404.9,424,405.2,424.2,405.5z M393.8,427.6
				c-0.9-1.4-3.1-0.1-2.2,1.4c-0.3-0.6-0.8-3-1.1-5c1.1,1.4,3,2.2,4.6,2.8C394.6,427,394.2,427.3,393.8,427.6z M404.2,417.6
				c0,0.3,0,0.6,0,1c-0.2-0.5-0.4-1-0.6-1.6C403.9,417.2,404.1,417.4,404.2,417.6z M394.1,417C394.1,417,394.1,417,394.1,417
				c0,0-0.1-0.1-0.1-0.2C394,416.9,394.1,417,394.1,417z M397.9,416c0.2,0.5,0.4,0.9,0.5,1.4c-0.2,0.2-0.4,0.5-0.4,0.8
				c-0.5-0.8-1-1.5-1.5-2.3c-0.1-0.2-0.2-0.5-0.3-0.7c0.1,0,0.2,0,0.4-0.1C396.8,414.9,397.3,415.3,397.9,416z M393.4,422.8
				c-0.6-0.7-1-1.6-1.1-2.9C392.6,420.8,393,421.8,393.4,422.8z M401.8,428.8c0,0.1,0.1,0.1,0.1,0.2c-0.1,0-0.1,0-0.2,0
				C401.8,428.8,401.8,428.8,401.8,428.8z M406.1,428.8c0.5,0,1,0.1,1.5,0.1c0.1,0.1,0.2,0.2,0.2,0.3c0.7,1,2,0.6,2.4-0.2
				c0.3,0,0.6,0,1,0c0.3,0.1,0.7,0.1,1,0c0.3,0,0.7,0,1,0c-0.3,0.5-0.3,1.1,0.1,1.6c-2.2-0.2-4.5-0.5-6.7-0.9
				C406.4,429.4,406.2,429.1,406.1,428.8z M420,430.2c0.4-0.1,0.8-0.1,1.2-0.2c0,0,0,0,0,0c-0.4,0.2-0.9,0.4-1.3,0.6
				C420,430.5,420,430.4,420,430.2z M425.5,428.9c0.2-0.1,0.4-0.1,0.7-0.2c0.5,0.3,1,0.7,1.5,1c-0.7-0.2-1.5-0.3-2.2-0.4
				C425.5,429.2,425.5,429.1,425.5,428.9z M417.3,423.3c0,1,0,1.9,0,2.9c-0.2,0-0.4,0-0.6,0c-1.1-1.6-2.2-3.2-3.2-4.9
				c-0.6-1-2-0.8-2.4,0.2c-0.7-0.9-1.5-1.8-2.3-2.7c3.1,1.2,6.3,2.3,9.6,3.2C417.9,422.1,417.3,422.5,417.3,423.3z M395.2,412.8
				c-0.1,0-0.1,0.1-0.1,0.1c-0.2-0.3-0.5-0.4-0.8-0.4c-0.2-0.3-0.4-0.6-0.6-0.9c0.6,0.3,1.2,0.7,1.8,1
				C395.5,412.7,395.4,412.7,395.2,412.8z M425,424.4c-0.6-0.4-1.5-0.2-1.9,0.4c-0.5,0.1-1.1,0.3-1.6,0.4c-0.5-0.9-1.1-1.8-1.6-2.6
				c-0.1-0.1-0.1-0.2-0.2-0.3c2.8,0.7,5.6,1.3,8.4,1.8C427,424.1,426,424.3,425,424.4z M349.4,377.8c-4.5-6.8-8.9-13.7-13.4-20.5
				c0.9,0.5,1.8,0.9,2.8,1.4c4,1.9,8.1,3.8,12.4,5.4c4.2,7.5,8.6,14.8,13,22.2C359.2,383.1,354.3,380.2,349.4,377.8z M399.3,358.5
				c-0.7,2.1-1.4,4.3-1.9,6.6c-3.8-3.8-7.4-7.8-10.7-12.1c1.1-3.1,1.7-6.5,2-10c2.9,4.9,6.4,9.3,10.6,13.2c0.3,0.3,0.6,0.2,0.9,0
				C399.9,356.9,399.6,357.7,399.3,358.5z M334.2,356.3c-0.1,0.2-0.1,0.4,0,0.6c4.3,6.6,8.6,13.1,12.9,19.7
				c-3.9-1.9-7.8-3.6-11.8-5.2c-5.3-7.7-10.6-15.4-15.9-23.1C324.3,351.1,329.2,353.8,334.2,356.3z M332.2,377.3
				c0.7,4.9,1.5,9.8,2.2,14.8c-1.5-1-3-1.9-4.5-2.8c-0.3-3.9-0.4-7.8-0.4-11.7c0-1.7-2.7-1.7-2.7,0c0,3.4,0.1,6.8,0.3,10.2
				c-1.2-0.6-2.4-1.2-3.5-1.8c-0.6-3.4-1.1-6.7-1.5-10.1c-0.2-1.7-2.9-1.7-2.7,0c0.4,2.9,0.8,5.8,1.3,8.7c-1.8-0.8-3.6-1.6-5.5-2.3
				c-0.3-3.3-0.7-6.6-1-9.9c-0.2-1.7-2.8-1.7-2.7,0c0.3,3,0.6,5.9,0.9,8.9c-0.9-0.3-1.8-0.7-2.8-1c-0.1-3.2-0.2-6.5-0.3-9.7
				c0-1.7-2.7-1.7-2.7,0c0.1,3,0.2,5.9,0.3,8.9c-0.8-0.2-1.5-0.5-2.3-0.7c-0.5-0.1-1,0-1.2,0.3c-0.1-2.5-0.3-5.1-0.5-7.6
				c-0.1-1.7-2.8-1.7-2.7,0c0.1,2.3,0.3,4.5,0.4,6.8c-1.6-1.1-3.3-2.2-4.9-3.3c0-2.4,0-4.7,0-7.1c0-1.7-2.7-1.7-2.7,0
				c0,1.8,0,3.6,0,5.4c-1.1-0.7-2.3-1.4-3.5-2.1c0-1.1,0-2.2,0-3.3c0-1.7-2.6-1.7-2.7,0c0,0.2,0,0.4,0,0.6c-0.3-1.2-2.3-1.6-2.6-0.1
				c-0.4,1.8-0.7,3.5-0.9,5.3c-1.2-0.2-2.5-0.5-3.7-0.7c0-2.3,0-4.6,0-7c0-1.7-2.7-1.7-2.7,0c0,2.2,0,4.4,0,6.5
				c-1.5-0.2-3-0.5-4.4-0.7c0-2.9,0.1-5.7,0.1-8.5c0-0.4-0.1-0.7-0.4-1c17.2,2.3,34.2,5.5,50.9,11.4
				C326.3,374.9,329.3,376,332.2,377.3z M330.1,392.5c1.6,1,3.2,2,4.8,3c0.2,1.1,0.3,2.3,0.5,3.4c-1.6-0.5-3.2-1.1-4.8-1.6
				C330.4,395.8,330.3,394.1,330.1,392.5z M327.8,396.4c-0.8-0.3-1.6-0.5-2.4-0.8c-0.4-2.1-0.9-4.3-1.2-6.5c1.1,0.5,2.1,1.1,3.2,1.7
				C327.5,392.7,327.6,394.6,327.8,396.4z M279.8,375.7c1.1,0.2,2.2,0.4,3.4,0.6c0,0.4-0.1,0.9-0.1,1.3c-1.1-0.5-2.1-1.1-3.2-1.6
				C279.8,375.9,279.8,375.8,279.8,375.7z M285.8,376.8c0.4,0.1,0.8,0.1,1.1,0.2c0,0.9,0,1.8,0,2.7c-0.5-0.3-0.9-0.5-1.4-0.8
				C285.6,378.3,285.7,377.5,285.8,376.8z M287,369.6C287,369.6,286.9,369.6,287,369.6c-0.1-0.2,0-0.4,0-0.5
				C287,369.3,287,369.5,287,369.6z M286.4,372.3c0.2,0.1,0.4,0.2,0.6,0.3c0,0.6,0,1.1,0,1.7c-0.3,0-0.5-0.1-0.8-0.2
				C286.2,373.6,286.3,372.9,286.4,372.3z M289.6,374.2c0.6,0.4,1.1,0.7,1.7,1c-0.6-0.1-1.1-0.2-1.7-0.4
				C289.6,374.7,289.6,374.4,289.6,374.2z M289.6,377.6c1.2,0.2,2.4,0.5,3.5,0.8c0,1.8,0,3.5,0,5.2c-1.2-0.8-2.3-1.6-3.5-2.3
				C289.6,380.1,289.6,378.8,289.6,377.6z M295.8,384.4c0-2.1,0-4.2,0-6.3c1.7,1.1,3.4,2.3,5.1,3.5c0.2,2.9,0.3,5.7,0.5,8.5
				c-1.8-1.6-3.7-3.1-5.7-4.6C295.8,385.1,295.8,384.7,295.8,384.4z M309.7,383c1,0.3,2,0.7,3,1.1c0.1,1,0.2,2.1,0.3,3.1
				c-1.1-0.8-2.1-1.7-3.2-2.5C309.8,384.1,309.7,383.6,309.7,383z M307.1,382.7c-0.4-0.3-0.8-0.6-1.2-0.9c0.4,0.1,0.8,0.2,1.2,0.4
				C307,382.3,307.1,382.5,307.1,382.7z M270.2,363.3c-0.1,2.7-0.1,5.4-0.1,8.2c-0.9-0.1-1.9-0.2-2.8-0.4c0-3.1-0.1-6.3-0.1-9.4
				c1.3,0.1,2.6,0.3,3.8,0.5C270.6,362.4,270.2,362.7,270.2,363.3z M264.5,361.4c0,3.1,0.1,6.3,0.1,9.4c-1.5-0.2-2.9-0.3-4.4-0.5
				c0-0.5,0-1.1,0-1.6c0.2,0,0.3,0,0.5,0c1.7,0.1,1.7-2.5,0-2.7c-0.2,0-0.3,0-0.5,0c0-1.7,0.1-3.4,0.1-5.1
				C261.7,361.1,263.1,361.2,264.5,361.4z M264.7,376.2c-1.5,0-2.9,0-4.4,0.1c0-0.3-0.1-0.5-0.1-0.8c0-0.8,0-1.7,0-2.5
				c1.5,0.1,3,0.3,4.4,0.5C264.6,374.4,264.7,375.3,264.7,376.2z M253.2,376.4c-0.4-2.8-0.8-5.5-1.2-8.3c1.6,0.1,3.2,0.2,4.7,0.4
				c0.1,0.5,0.1,1,0.2,1.6c-0.2,0-0.4,0-0.6-0.1c-1.7-0.1-1.7,2.5,0,2.7c0.3,0,0.6,0.1,0.9,0.1c0.1,0.9,0.2,1.9,0.3,2.8
				c0,0.3,0,0.5,0,0.8C256.1,376.3,254.7,376.3,253.2,376.4z M217.5,373.6c0.9,0,1.8,0,2.7,0c0.2,0.8,0.3,1.5,0.4,2.2
				c-0.8,0-1.7-0.1-2.5-0.1C217.9,375,217.7,374.3,217.5,373.6z M196.4,364.9c1.7,0.9,3.4,1.9,5,2.9c0.3,1,0.6,2.1,1,3.1
				c-1.4,0-2.8,0-4.2,0C197.5,368.9,197,366.9,196.4,364.9z M193.4,352.4c-0.4-1.7-2.9-1-2.6,0.7c0.5,2.3,1,4.6,1.6,6.9
				c-0.4-0.2-0.7-0.4-1.1-0.5c-0.5-2.6-1-5.3-1.4-7.9c-0.1-0.4-0.3-0.7-0.5-0.8c2.4,0.6,4.8,1.2,7.2,1.8c1.2,3.9,2.4,7.8,3.6,11.6
				c-1.6-0.9-3.1-1.7-4.7-2.5C194.8,358.6,194,355.5,193.4,352.4z M222.1,325.2c0.2,0.4,0.5,0.8,0.7,1.2c-7.2-0.5-14.4-1.3-21.6-2.8
				C208.1,324.7,215.1,325.1,222.1,325.2z M256.4,365.7c-1.6-0.1-3.2-0.2-4.8-0.4c-0.2-1.4-0.4-2.7-0.6-4.1c-0.2-1.7-2.8-1-2.6,0.7
				c0.1,1,0.3,2.1,0.4,3.1c-1-0.1-1.9-0.1-2.9-0.2c-0.2-1.9-0.5-3.7-0.8-5.6c3.8,0.4,7.5,0.8,11.3,1.2c-0.4,0.2-0.6,0.5-0.5,1.1
				C256.1,363,256.3,364.4,256.4,365.7z M243.3,364.7c-1.2-0.1-2.5-0.2-3.7-0.3c-0.2-1.8-0.4-3.7-0.6-5.5c0-0.1-0.1-0.2-0.1-0.3
				c1.3,0.1,2.6,0.3,4,0.4c-0.2,0.3-0.3,0.6-0.2,1C242.9,361.6,243.1,363.1,243.3,364.7z M236.9,364.2c-1.6-0.1-3.1-0.2-4.6-0.4
				c-0.2-2-0.3-3.9-0.3-5.9c1.5,0.2,3,0.3,4.4,0.5c-0.1,0.2-0.1,0.3-0.1,0.5C236.5,360.7,236.7,362.4,236.9,364.2z M227.6,363.5
				c-0.6-2.1-1.3-4.2-2.1-6.3c1.2,0.1,2.5,0.3,3.8,0.4c0,2,0.1,4,0.2,6C228.9,363.6,228.3,363.5,227.6,363.5z M229.8,366.3
				c0.2,1.5,0.5,3.1,0.8,4.6c-0.3,0-0.6,0-1,0c-0.4-1.6-0.8-3.2-1.2-4.7C228.9,366.2,229.4,366.3,229.8,366.3z M218.2,349.6
				c-5.6-7.4-10.8-15-15.6-22.9c3.4,0.6,6.9,1.2,10.4,1.6c5.6,7.6,11.1,15.2,16.7,22.8C225.8,350.5,222,350.1,218.2,349.6z
				 M185,321.9c-0.1,0.2-0.1,0.4,0.1,0.5c6.1,8.1,12.3,16.2,18.4,24.3c0.5,0.7,1.7,0,1.1-0.7c-5.9-7.9-11.9-15.7-17.8-23.5
				c1.2,0.4,2.4,0.8,3.6,1.2c3.4,1,6.9,1.9,10.4,2.6c4.8,7.9,9.9,15.6,15.5,23c-8.9-1.2-17.7-2.9-26.3-5.1
				c-6.4-9.2-12.4-18.7-17.9-28.4C176.2,318.1,180.5,320.2,185,321.9z M203.4,353.9c1.3,5,2.7,10,4.2,15c-1.3-1-2.6-1.9-4-2.7
				c-1.4-4.3-2.7-8.7-4.1-13C200.9,353.4,202.2,353.6,203.4,353.9z M204.9,370.1c0.4,0.2,0.7,0.5,1.1,0.8c-0.3,0-0.6,0-0.8,0
				C205.1,370.7,205,370.4,204.9,370.1z M211.1,370.9c-1.7-5.5-3.3-11-4.7-16.5c1.4,0.2,2.8,0.5,4.1,0.7c-0.1,0.2-0.1,0.4-0.1,0.7
				c0.9,5.1,2.1,10.1,3.5,15.1C213,370.9,212,370.9,211.1,370.9z M213.1,355.5c3.2,0.5,6.4,0.9,9.6,1.3c0,0.1,0,0.3,0.1,0.5
				c0.7,2,1.4,4,2,6c-0.7-0.1-1.5-0.1-2.2-0.2c-1.7-0.1-1.7,2.5,0,2.7c1,0.1,2,0.2,3,0.2c0.5,1.6,0.9,3.3,1.3,5c-1.6,0-3.1,0-4.7,0
				c-1-4.1-2.2-8.2-3.2-12.2c-0.4-1.7-3-1-2.6,0.7c1,3.8,2.1,7.6,3.1,11.5c-0.9,0-1.9,0-2.9,0C215.3,365.8,214,360.7,213.1,355.5z
				 M223.3,375.9c-0.1-0.8-0.3-1.6-0.4-2.4c1.6,0,3.1,0,4.7,0c0.2,0.8,0.4,1.7,0.5,2.5C226.5,376.1,224.9,376,223.3,375.9z
				 M230.3,373.6c0.3,0,0.6,0,0.9,0c0.2,0.9,0.4,1.7,0.7,2.6c-0.4,0-0.8,0-1.1,0C230.6,375.3,230.4,374.4,230.3,373.6z M233.9,373.4
				c0.9-0.6,0.8-2.3-0.6-2.4c-0.3-1.5-0.6-2.9-0.8-4.4c1.5,0.1,3.1,0.2,4.6,0.4c0.3,3.1,0.6,6.3,0.9,9.4c-1.1,0-2.2,0-3.4-0.1
				C234.4,375.3,234.2,374.3,233.9,373.4z M240,367.1c1.2,0.1,2.5,0.2,3.7,0.3c0.4,3,0.7,6,1,9c-1.2,0-2.4,0-3.6,0
				C240.8,373.3,240.4,370.2,240,367.1z M246.4,367.6c1,0.1,2,0.2,3,0.2c0.4,2.8,0.8,5.7,1.2,8.5c-1,0-2.1,0-3.1,0
				C247.1,373.4,246.7,370.5,246.4,367.6z M248.7,352.8c-5.7-0.5-11.5-1.1-17.3-1.7c-5.6-7.6-11.1-15.1-16.7-22.7
				c3.2,0.4,6.5,0.6,9.7,0.8c4.7,7.7,9.8,15.2,15.3,22.3c0.5,0.7,1.5-0.3,0.9-0.9c-5.3-6.8-10.2-13.9-14.7-21.3
				c2.3,0.1,4.6,0.2,7,0.2c4.3,7.4,9,14.7,14,21.6c0.5,0.7,1.6,0,1.1-0.7c-4.9-6.8-9.4-13.8-13.6-21c2.6,0,5.2,0,7.9,0
				c5,8.1,10,16.1,15,24.2C254.5,353.4,251.6,353.1,248.7,352.8z M131.1,215.5c0-0.1-0.1-0.1-0.1-0.2c0.8-3.3,1.6-6.7,2.5-10.1
				c0.3,0.2,0.6,0.5,0.9,0.7c0,0,0.1,0,0.1,0C133.2,209.2,132.1,212.3,131.1,215.5z M130.6,217c-0.1,0.3-0.2,0.6-0.3,0.9
				C130.4,217.6,130.5,217.3,130.6,217C130.6,217,130.6,217,130.6,217z M256.5,214.9c-5.1-7.8-10-16.4-15.8-24c0,0,0,0,0-0.1
				c0-0.1-0.1-0.1-0.1-0.1c-1.5-1.9-3-3.8-4.6-5.5c-2.5-2.9-5-5.8-7.5-8.6c3.7,2.5,7.1,5.4,10.3,8.6c12.2,12.2,19.8,27.1,26.4,42.7
				C262.2,223.5,259.3,219.2,256.5,214.9z M227.5,177.5c-2.8-2.1-5.9-3.9-9.3-5.3c-6-2.5-12.6-4.2-19.1-5.6c0.6,0,1.3,0,1.9,0.1
				c8.4,0.5,16.2,3.2,23.3,7.3C225.4,175.2,226.4,176.3,227.5,177.5z M152.6,176.6C152.6,176.6,152.6,176.6,152.6,176.6
				c-3.2,3.3-6.1,6.9-8.6,10.8c-0.4-0.8-0.9-1.7-1.4-2.5C145.2,181.6,148.4,178.7,152.6,176.6z M143.1,188.6c-1.9,2.9-3.6,6-5.1,9.2
				c-1.1,2.3-2.1,4.6-3.1,7c-0.4-0.3-0.8-0.6-1.2-0.9c1.8-6.5,4.1-12.7,7.9-17.9C142.2,186.8,142.7,187.7,143.1,188.6z M147.3,297.3
				c7.2,6.5,14.6,12.4,22.6,17.2c5.6,10,11.7,19.7,18.2,29.2c-5.6-1.5-11.1-3.4-16.4-5.6c-9.3-14.4-18.4-29-27.4-43.6
				C145.2,295.4,146.2,296.3,147.3,297.3z M165.5,352.8c-2.3-1.6-4.7-3.3-6.9-5c-0.3-2.1-0.5-4.3-0.4-6.6c0-1.7-2.6-1.7-2.7,0
				c0,1.5,0,2.9,0.2,4.3c-0.8-0.6-1.5-1.2-2.3-1.8c-0.6-2.7-0.8-5.5-0.9-8.4c3.9,2.4,7.9,4.5,12.1,6.5c-0.7,0.1-1.3,0.7-1.1,1.6
				C163.9,346.6,164.7,349.7,165.5,352.8z M165.2,364.4c-2.8-3.9-4.8-8.2-5.9-12.8c2.4,1.8,4.9,3.5,7.3,5.2c1.1,3.5,2.3,7,3.7,10.5
				C168.6,366.4,166.9,365.4,165.2,364.4z M141.4,345.4c-1.5-6.8-2.6-13.7-3.3-20.6c1.2,1,2.4,2.1,3.7,3.1c-0.4,0.3-0.6,0.7-0.5,1.3
				c1,6.6,2.1,13.2,3.6,19.8C143.7,347.8,142.5,346.6,141.4,345.4z M149.7,333.6c0,2.6,0.1,5.1,0.5,7.6c-1.5-1.2-3-2.5-4.5-3.8
				c-0.1-0.1-0.2-0.2-0.4-0.2c-0.4-2.5-0.9-5-1.2-7.6C145.9,331,147.8,332.3,149.7,333.6z M146,341.1c1.6,1.4,3.2,2.7,4.9,4
				c1,4.4,2.6,8.7,4.7,12.8c-2.5-1.9-4.9-3.9-7.3-5.9C147.5,348.4,146.7,344.8,146,341.1z M154.3,347.9c0.6,0.5,1.2,0.9,1.8,1.4
				c0.6,3.1,1.5,6.1,2.7,9C156.9,354.9,155.4,351.5,154.3,347.9z M133.4,320.4c0.6,0.6,1.3,1.3,1.9,1.9c0,0.1-0.1,0.2-0.1,0.4
				c0.5,6.4,1.4,12.7,2.6,19c-0.6-0.7-1.2-1.5-1.9-2.2C134.9,333.1,134,326.8,133.4,320.4z M168,369.1c1.1,0.6,2.2,1.2,3.3,1.8
				c0.2,0.1,0.4,0.1,0.5,0.1c0,0.1,0.1,0.1,0.1,0.2c-1.4-0.5-2.8-1.1-4.2-1.7C167.8,369.4,167.9,369.2,168,369.1z M175.3,372.3
				c-2-4.3-3.7-8.7-5.1-13.1c0.6,0.4,1.1,0.8,1.7,1.1c1.5,4.3,3.1,8.5,4.8,12.6c-0.4-0.1-0.9-0.3-1.4-0.5
				C175.3,372.4,175.3,372.3,175.3,372.3z M168.9,355.2c-1.2-4.1-2.2-8.3-3-12.5c0-0.1-0.1-0.2-0.1-0.3c7.4,3.4,15.2,6.1,23.1,8.2
				c-0.8,0-1.7,0.6-1.5,1.7c0.3,1.9,0.6,3.8,0.9,5.7c-1.3-0.6-2.6-1.3-3.8-2c-0.3-0.9-0.5-1.8-0.8-2.6c-0.5-1.6-3.1-0.9-2.6,0.7
				c0,0,0,0,0,0c-0.5-0.3-1.1-0.6-1.6-1c-0.1-0.8-0.3-1.7-0.4-2.5c-0.2-1.6-2.6-1-2.6,0.6c-1.3-0.9-2.6-1.8-3.8-2.9
				c-0.6-0.5-1.4-0.4-1.9,0.1c-0.8-1-2.7-0.2-2.3,1.2c0.6,2.2,1.3,4.4,2,6.6C170,355.8,169.4,355.5,168.9,355.2z M188.9,361.1
				c0.5,2.3,1,4.7,1.6,7c-0.9-0.5-1.9-1-2.8-1.5c-0.7-2.4-1.4-4.8-2.2-7.2C186.6,360,187.7,360.5,188.9,361.1z M171.7,350.9
				c1.7,1.4,3.5,2.6,5.4,3.8c0.4,2.2,0.8,4.3,1.3,6.5c-1.4-0.9-2.8-1.7-4.2-2.6C173.2,356,172.4,353.5,171.7,350.9z M180.1,356.5
				c0.7,0.4,1.4,0.8,2.1,1.2c0.7,2.3,1.4,4.7,2.1,7c-0.9-0.5-1.9-1.1-2.8-1.6C181,360.9,180.5,358.7,180.1,356.5z M196.2,378.2
				c-0.2-0.3-0.4-0.5-0.7-0.6c-0.6-1.7-1.3-5.5-1.5-6.2c-0.5-2-1-3.9-1.5-5.9c-0.2-1-0.4-1.9-0.6-2.9c0.4,0.2,0.9,0.5,1.3,0.7
				c0.7,2.6,1.4,5.2,2.2,7.8c-1.1,0.5-1,2.5,0.6,2.5c0.1,0,0.1,0,0.2,0c0.5,1.7,1.1,3.3,1.7,5C197.3,378.4,196.8,378.3,196.2,378.2
				C196.2,378.2,196.2,378.2,196.2,378.2z M200.8,379c-0.6-1.8-1.2-3.6-1.8-5.4c1.4,0,2.8,0,4.2,0c0.6,2.1,1.3,4.1,1.9,6.2
				c0,0.1,0.1,0.1,0.1,0.2c-1.5-0.2-2.9-0.5-4.4-0.8C200.8,379.1,200.8,379,200.8,379z M207.7,379.1c-0.6-1.8-1.1-3.6-1.7-5.5
				c1,0,2.1,0,3.1,0c0.7,2.1,1.3,4.2,2,6.3c0.5,1.6,3.1,0.9,2.6-0.7c-0.5-1.4-0.9-2.8-1.4-4.2c0.4-0.3,0.6-0.8,0.5-1.3
				c0.6,0,1.3,0,1.9,0c0.2,0.7,0.4,1.4,0.6,2.1c-1.5,0.1-1.5,2.6,0.2,2.6c0.2,0,0.5,0,0.7,0c0.4,1.2,0.8,2.3,1.2,3.5
				c-3.3-0.5-6.7-1-10-1.5C207.7,380,207.9,379.6,207.7,379.1z M231.9,381.1c0-0.4-0.2-0.6-0.4-0.9c-0.1-0.5-0.2-1-0.2-1.4
				c0.5,0,1,0,1.5,0c0.4,1.2,0.9,2.5,1.4,3.7c0.6,1.6,3.2,0.9,2.6-0.7c-0.4-1-0.8-2-1.1-2.9c0.9,0,1.8,0,2.7,0
				c0.2,2.1,0.4,4,1.4,5.7c-2.6-0.3-5.1-0.6-7.7-1c0-0.1,0-0.1,0-0.2C232,382.7,231.9,381.9,231.9,381.1z M244.2,383.8
				c0-1.7-2.7-1.7-2.7,0c0-1.6-0.1-3.2-0.3-4.8c1.2,0,2.5,0,3.7,0c0.2,2.1,0.4,4.2,0.5,6.3c0,0,0,0,0,0c-0.5-0.1-1-0.1-1.5-0.2
				C244.2,384.9,244.2,384.5,244.2,383.8z M248.2,385.7c0.2-1.1,0.5-2.2,0.7-3.3c0.2-0.9-0.4-1.5-1.1-1.6c0-0.6-0.1-1.2-0.1-1.8
				c1.1,0,2.2,0,3.2,0c0.3,2.4,0.7,4.8,1,7.3C250.7,386.1,249.4,385.9,248.2,385.7C248.1,385.7,248.2,385.7,248.2,385.7z
				 M254.2,383.3c-0.2-1.4-0.4-2.9-0.6-4.3c1.4,0,2.7,0,4.1-0.1c0.1,2.8,0.2,5.5,0.3,8.2c-0.9-0.1-1.9-0.3-2.8-0.4
				c0.1-0.6,0.3-1.2,0.4-1.8C255.8,384,255,383.3,254.2,383.3z M261.4,385.2c-0.2-2.1-0.5-4.2-0.7-6.3c1.4,0,2.7,0,4.1-0.1
				c0,0.5,0,1,0,1.5c0,2.3-0.6,5.5,0.1,8c-0.7-0.1-1.4-0.2-2.1-0.4c0.1-0.3,0.1-0.6,0.2-1.1C263,385.9,262.1,385.2,261.4,385.2z
				 M267.2,388.6c1.7-1.1,0.2-11.9,0.2-14c0-0.3,0-0.5,0-0.8c0.4,0,0.7,0.1,1.1,0.1c0.1,0.3,0.4,0.5,0.8,0.7
				c0.3,0.1,0.6,0.2,0.9,0.3c0,4.8,0,9.6,0.1,14.5c-0.4-0.1-0.8-0.1-1.2-0.2C268.6,388.5,267.9,388.1,267.2,388.6z M272.8,387.8
				c-0.1-4-0.1-8-0.1-11.9c1.5,0.6,3,1.2,4.5,1.8c0,1.3,0,2.5,0,3.8c0,2.2-0.7,6.2-0.5,9.3c-0.9-0.2-1.8-0.4-2.7-0.6
				c0.1-0.1,0.1-0.3,0.2-0.4C274.7,388.7,273.7,387.7,272.8,387.8z M280,391.7c0-0.4,0-0.9-0.2-1.4c0-0.7,0-1.5,0-2.2
				c0-2.6,0-5.1,0-7.7c0-0.5,0-1,0-1.4c1,0.5,2,1,3,1.5c-0.3,4-0.2,8,0.1,12C281.9,392.2,281,391.9,280,391.7z M285.3,387.9
				c0-2,0-4,0.1-6.1c0.5,0.3,1,0.6,1.5,0.9c0,0.9,0,1.9,0,2.8c0,2.2-0.6,5.3-0.3,8c-0.2-0.1-0.5-0.1-0.7-0.2
				c0.1-1.4,0.1-2.8,0.2-4.2C286.1,388.5,285.7,388.1,285.3,387.9z M290.9,394.9c-0.1-0.1-0.2-0.2-0.2-0.4c-0.2-0.4-0.6-0.5-1-0.6
				c0.1-0.5,0.1-1.1-0.1-1.7c0-0.7,0-1.5,0-2.2c0-1.9,0-3.7,0-5.5c1.2,0.8,2.4,1.6,3.5,2.4c0,1.3,0,2.6,0,3.9c0,1.6-0.1,3.2-0.1,4.8
				C292.3,395.4,291.6,395.1,290.9,394.9C290.9,394.9,290.9,394.9,290.9,394.9z M304.5,397.6c-0.1-1.1-0.1-2.2-0.2-3.2
				c0.4-0.5,0.5-1.2-0.1-1.7c0,0,0,0,0,0c-0.2-3-0.4-6.1-0.5-9.1c1.2,0.8,2.3,1.7,3.5,2.5c0.1,5,0.3,10,0.5,15
				c-0.6-0.2-1.2-0.5-1.8-0.7c0.1-0.3,0.2-0.6,0.4-0.9C306.7,398.3,305.4,397.2,304.5,397.6z M310.3,402c-0.1-4.6-0.3-9.3-0.4-13.9
				c1.2,0.9,2.3,1.8,3.5,2.8c0.4,4.4,0.9,8.7,1.3,13.1c-1.1-0.4-2.1-0.9-3.2-1.3C311.3,402.3,310.8,402,310.3,402z M317.2,399.4
				c-0.1,0.3-0.1,0.6-0.2,0.9c-0.2-2.3-0.5-4.7-0.7-7c0.6,0.5,1.2,1,1.8,1.5c1.3,1.1,3.2-0.8,1.9-1.9c-1.3-1.1-2.7-2.3-4.1-3.4
				c-0.1-1.5-0.3-2.9-0.4-4.3c1.9,0.8,3.9,1.6,5.7,2.5c0.4,2.3,0.8,4.6,1.3,6.9c0,0,0,0-0.1,0c-1.6-0.5-2.3,2-0.7,2.6
				c0.5,0.2,0.9,0.3,1.4,0.5c0.7,3.6,1.5,7.2,2.4,10.8c-2.4-1-4.8-2-7.2-3c0.5-1.8,1-3.5,1.4-5.3
				C320.2,398.5,317.7,397.8,317.2,399.4z M328.2,408.9c0.5-2.6,0.5-2,0.3-4.7c-0.1-0.9-0.9-1.3-1.6-1.2c-0.3-1.4-0.6-2.9-1-4.3
				c0.7,0.2,1.4,0.5,2.1,0.7c0.4,3.6,1,7.2,1.6,10.8c-0.6-0.2-1.2-0.5-1.8-0.7C328.1,409.3,328.2,409.1,328.2,408.9z M333.8,407.8
				c-0.1-1.1-1.2-1.5-2-1.2c-0.3-2.1-0.6-4.2-0.9-6.3c1.6,0.5,3.3,1.1,4.9,1.7c0.2,1.2,0.4,2.4,0.5,3.6c0.3,2,0.2,6.6,2.1,8.2
				c-1.6-0.6-3.2-1.3-4.7-1.9C334,410.6,334,409.4,333.8,407.8z M394,429.8c0.1,0,0.1,0.1,0.2,0.1c1.7,0.5,3.5,0.9,5.2,1.2
				c-2-0.2-3.9-0.5-5.9-0.8C393.8,430.2,393.9,430,394,429.8z M432.6,429.2c-0.4-0.5-0.9-1-1.3-1.5c2.1,0,4.3,0,6.5,0
				C436.1,428.2,434.3,428.7,432.6,429.2C432.6,429.2,432.6,429.2,432.6,429.2z M362.2,184.2c24.7,27.5,48.1,56.3,70,86.1
				c-2.2-0.6-4.3-0.6-6.4-0.2c-11.1-13.7-22.2-27.4-33.4-41.1c-0.5-0.7-1.5,0.3-0.9,0.9c11,13.5,21.9,27,32.9,40.5
				c-4.9,1.5-9.1,5.6-11.5,10.4c-2.2,4.3-2.8,9-2.6,13.7c-4.5-5.4-9-10.7-13.6-16c4.9-2.7,7-8.9,6.9-15.7
				c-0.3-11.7-7.1-22.2-14.3-30.9c-8.1-9.7-17.4-18.4-27.6-25.8c-8.9-10.5-17.7-20.9-26.5-31.4c-0.5-0.6-1.5,0.3-0.9,0.9
				c7.7,9.1,15.5,18.3,23.2,27.4c-5.2-3.6-10.7-6.8-16.3-9.8c-6.8-7.9-13.9-15.4-21.5-22.6c-0.6-0.6-1.6,0.4-0.9,0.9
				c6.8,6.4,13.2,13,19.3,20c-2.8-1.4-5.6-2.7-8.4-3.9c-3.6-1.5-7.2-2.9-10.9-4.2c-8.9-7.2-17.1-15.1-24.6-23.8
				c-0.6-0.6-1.5,0.3-0.9,0.9c6.7,7.8,14.1,15.1,22,21.7c-8.4-2.7-17-4.6-25.8-5.9c0-0.1-0.1-0.2-0.2-0.4
				c-7.7-7.6-15.5-15.2-23.2-22.7c2.6,0.4,5.1,0.9,7.7,1.4C304.3,160.8,334.2,170.4,362.2,184.2z M223.3,149.2
				c0,0.1,0.1,0.2,0.2,0.3c14.3,15.9,23.2,35.5,33,54.3c10,19.2,21.5,37.5,34.5,54.8c4.9,6.4,9.9,12.6,15.2,18.7
				c-0.7,0.3-1.3,0.7-1.8,1.2c-1.2,0.1-2.4,1.4-1.8,2.9c-0.3,1-0.4,2.2-0.2,3.5c0.2,1.2,1.2,1.6,2.1,1.4c3,11.5-3.8,23.3-6.4,34.5
				c-2.2,9.6-0.8,15.2,7.9,20c3.6,2,7.2,4,10.8,6.1c0,0,0,0,0,0.1c5.4,7.9,10.9,15.7,16.3,23.6c-23.8-9.3-48.5-13.8-74-16.6
				c-5-8.1-10.1-16.3-15.1-24.4c0.9,0,1.9,0,2.8,0c2.2,0,4.5-0.1,6.8-0.3v0c3.9,8.6,8.8,16.5,14.7,23.9c0.5,0.7,1.5-0.3,0.9-0.9
				c-5.7-7.1-10.5-14.8-14.3-23c1.5-0.1,2.9-0.3,4.4-0.5c5.2,8.8,10.4,17.5,15.6,26.3c0.4,0.7,1.6,0.1,1.1-0.7
				c-5.1-8.6-10.2-17.2-15.3-25.9c6.7-1.1,13.1-3.2,18.2-7.4c8.9,12.8,17.2,25.9,25.2,39.3c0.4,0.7,1.6,0.1,1.1-0.7
				c-8-13.5-16.4-26.7-25.3-39.5c1.6-1.5,3.1-3.2,4.4-5.2c0.4-0.6,0.2-1.2-0.2-1.6c0.2-0.3,0.5-0.5,0.7-0.9
				c10.1-13.3,6.8-33.4,1.1-47.6c-3.6-9-8.4-17.5-13.5-25.8c-8.2-20.8-16.7-41.4-33.2-57.1c-5-4.8-10.7-8.9-16.9-12
				c-6.3-6.8-12.8-13.4-19.5-19.8c4.6-0.5,9.3-0.8,13.9-0.9C219,149.2,221.1,149.2,223.3,149.2z M201.6,150.2
				c-0.1,0.2,0,0.4,0.2,0.6c5.9,5.7,11.7,11.6,17.4,17.5c-4.9-2.1-10.2-3.6-15.6-4.1c-3-0.3-5.9-0.3-8.9-0.1
				c-3.8-3.8-7.5-7.5-11.3-11.3C189.4,151.8,195.5,150.9,201.6,150.2z M146.2,168.8c1.9,1.6,3.5,3.5,4.9,5.6c-4.1,2.2-7.3,5-10,8.2
				c-1.3-1.8-2.7-3.6-4.3-5.2C139.7,174.4,142.9,171.5,146.2,168.8z M112.3,219.9c3.7,5,7.7,9.8,12.1,14.3
				c-1.1,8.1-1.5,16.2-0.3,24.4c0.2,1.3,0.4,2.6,0.7,3.8c-5.2-8.8-10.4-17.6-15.5-26.4c0-0.4,0.1-0.8,0.1-1.2
				C110,229.7,111,224.7,112.3,219.9z M115.2,316.5c-1.6-8.8-2.5-17.7-2.9-26.6c0.9,1.9,1.8,3.7,2.8,5.6c-0.1,0.1-0.1,0.3-0.1,0.5
				c0.1,7.9,0.5,15.7,1.4,23.5C116,318.5,115.6,317.5,115.2,316.5z M132,344.7c-0.6-2.8-1.2-5.6-1.8-8.4c1.1,1.4,2.2,2.8,3.3,4.2
				c0.5,2.5,1,5,1.6,7.5C134,347,133,345.9,132,344.7z M180,374c-1.6-3.8-3.2-7.6-4.6-11.5c1.2,0.8,2.5,1.5,3.7,2.3
				c0.8,3.3,1.8,6.6,2.8,9.8C181.3,374.4,180.7,374.2,180,374z M440,426.9c0.3-0.7,0.1-1.6-0.8-1.9c-0.3-0.1-0.5-0.1-0.8-0.2
				c2.6,0,5.2-0.2,7.7-0.5C444,425.3,442,426.2,440,426.9z M452.2,416.6c0-0.1,0-0.2-0.1-0.3c-2.4-3.8-4.7-7.6-7.1-11.5
				c2.9-0.5,5.7-1.4,8.2-2.4c1.6,3.3,3.8,6.1,6.6,8.5c0.6,0.5,1.6-0.4,0.9-0.9c-2.7-2.3-4.9-5-6.3-8.1c0.7-0.3,1.4-0.7,2.1-1
				c2-1.1,3.7-2.3,5.3-3.7c2.6,2.8,5.1,5.7,7.7,8.5c0.6,0.6,1.5-0.3,0.9-0.9c-2.5-2.8-5.1-5.7-7.7-8.5c2-1.9,3.7-4.1,5.2-6.5
				c1.2,1.6,2.7,3.1,4.5,4.3c0.7,0.5,1.4-0.7,0.7-1.1c-1.8-1.2-3.2-2.7-4.4-4.4c1.8-3.2,3.1-6.8,4-10.5c2.1,5,5,9.6,8.5,13.8
				C475.3,403.4,465.9,412.8,452.2,416.6z M487.8,367.9c0.2,0.1,0.5,0,0.6-0.2c0.2-0.2,0.3-0.3,0.4-0.5c-0.6,4.1-1.5,8.2-2.7,12.1
				c-0.1-0.5-0.2-1-0.3-1.2c-0.4-0.8-0.8-1.5-1.2-2.2c-0.9-1.4-2-2.6-3.1-3.9c-2.8-3.2-5.9-6.2-6.5-10.7c0-0.3-0.2-0.4-0.4-0.5
				c0-4.2-0.3-8.4-0.8-12.4c2.6,3.8,5.2,7.6,7.9,11.4c1.4,2,2.7,3.9,4,5.9C486.3,366.8,486.7,367.5,487.8,367.9z M481.9,390.4
				c-3.7-4.4-6.5-9.3-8.6-14.7c0,0,0,0,0,0c0.7-3.6,1.1-7.3,1.2-11c1,2.5,2.8,4.7,4.6,6.8c1.5,1.7,3.1,3.3,4.3,5.2
				c0.9,1.4,1.2,3.2,2.1,4.5C484.5,384.3,483.3,387.4,481.9,390.4z M488.9,366.8c0,0,0-0.1,0-0.1c0-0.2-0.1-0.5-0.3-0.6
				c-0.1,0-0.2-0.1-0.3-0.1c-0.5-0.2-1,0.2-1,0.7c-0.4-0.7-1-2.1-1.2-2.5c-0.6-0.9-1.2-1.8-1.8-2.7c-1.1-1.6-2.2-3.2-3.3-4.8
				c-2.2-3.2-4.4-6.4-6.6-9.6c-0.2-0.3-0.5-0.3-0.8-0.2c-0.3-2.1-0.6-4.1-0.9-6.1c-1.2-7.2-3.2-14.2-5.7-21
				c4.5,5.3,9,10.7,13.5,16.1c2.7,3.3,5.3,6.6,8,9.9c0.5,0.6,1,1.5,1.6,2.4C490.1,354.1,489.8,360.4,488.9,366.8z"/>
		</g>
		<g>
			<path class="st0" d="M200.7,216c-3.3-2.7-7.5-3.7-11.6-2.4c-1.8,0.5-3.5,1.5-4.8,2.8c-0.1,0.1-0.5,0.7-0.9,1.4
				c-7,4.5-9,17.6-3.9,23.8c5.8,7,18.7,8.1,24.2,0.4C209.2,234.5,208,222.1,200.7,216z M181.2,233.8c-0.1-2.4,0.1-5.3,1-7.8
				c2.8-0.5,2.9-2.9,4-5.1c0.5-0.2,1-0.4,1.6-0.6c1.4-0.3,1.7-1.6,1.2-2.6c3.7-2.4,7.5-0.4,10.2,2.9c-1.8,0.2-3.8,1.4-5.1,2.1
				c-7.7,4.1-8.2,11.6-7.1,19.2C183.6,240.6,181.3,238,181.2,233.8z"/>
		</g>
		<g>
			<path class="st0" d="M150.1,324.2c-13.8-20.6-26.4-42.1-37.7-64.2c-0.4-0.8-1.5-0.1-1.1,0.7c11.3,22.1,23.9,43.5,37.7,64.2
				C149.4,325.6,150.6,324.9,150.1,324.2z"/>
		</g>
		<g>
			<path class="st0" d="M267.4,327.7c-0.5-0.7-1.7,0-1.1,0.7c6.6,9.1,13.3,18.1,19.9,27.2c0.5,0.7,1.7,0,1.1-0.7
				C280.6,345.8,274,336.7,267.4,327.7z"/>
		</g>
		<g>
			<path class="st0" d="M295.6,357.9c-2.1-2.4-3.6-5.7-5.4-8.4c-1.8-2.8-3.5-5.5-5.3-8.3c-3.4-5.3-6.7-10.7-10-16.1
				c-0.5-0.7-1.6-0.1-1.1,0.7c5.4,8.7,10.8,17.4,16.4,26c1.2,1.9,2.4,4.4,3.9,6c0.5,0.5,0.9,1.3,1.7,1.2c1.2-0.1,1.4-1.3,0.8-2.1
				C296,356.4,295,357.3,295.6,357.9z"/>
		</g>
		<g>
			<path class="st0" d="M317.7,363.8c0.5,0.7,1.6,0,1.1-0.7c-8.5-11.9-17.1-23.7-25.6-35.5c-0.5-0.7-1.6,0-1.1,0.7
				C300.6,340.1,309.1,352,317.7,363.8z"/>
		</g>
		<g>
			<path class="st0" d="M382.7,369.9c7.1,13.6,15.3,26.4,24.6,38.5c0.5,0.7,1.5-0.3,0.9-0.9c-9.3-12-17.4-24.8-24.5-38.2
				C383.4,368.5,382.3,369.1,382.7,369.9z"/>
		</g>
		<g>
			<path class="st0" d="M400,297.1c2.2,2.7,5.1,8.3,9.3,7.5c0.8-0.1,0.5-1.4-0.4-1.3c-2.7,0.5-4.9-3.4-6.3-5.2
				c-1.5-1.9-3-3.7-4.5-5.6c-3.2-3.9-6.3-7.8-9.5-11.6c-0.5-0.7-1.5,0.3-0.9,0.9C391.8,286.9,395.9,292,400,297.1z"/>
		</g>
		<g>
			<path class="st0" d="M299.7,178c0.6,0.6,1.6-0.4,0.9-0.9c-7.3-6.6-14.6-13.3-21.8-19.9c-0.6-0.6-1.6,0.4-0.9,0.9
				C285.2,164.8,292.4,171.4,299.7,178z"/>
		</g>
		<g>
			<path class="st0" d="M394.8,230.1c0.6,0.6,1.5-0.3,0.9-0.9c-12.2-14.1-24.4-28.2-36.6-42.3c-0.6-0.6-1.5,0.3-0.9,0.9
				C370.4,201.9,382.6,216,394.8,230.1z"/>
		</g>
		<g>
			<path class="st0" d="M339.2,285.8c0.6,0.6,1.5-0.3,0.9-0.9c-6.4-6.9-12.8-13.8-19.2-20.7c-0.6-0.6-1.5,0.3-0.9,0.9
				C326.4,272,332.8,278.9,339.2,285.8z"/>
		</g>
		<g>
			<path class="st0" d="M376.6,295.4c0.6,0.5,1.6-0.4,0.9-0.9c-6.9-5.8-13.8-11.6-20.7-17.4c-0.6-0.5-1.6,0.4-0.9,0.9
				C362.8,283.8,369.7,289.6,376.6,295.4z"/>
		</g>
		<g>
			<path class="st0" d="M386.6,293.1c7.2,8.5,14.6,16.8,22.3,25c0.6,0.6,1.5-0.3,0.9-0.9c-7.1-7.5-13.9-15.1-20.6-22.9
				c0.1-0.2,0.1-0.5-0.1-0.7c-0.5-0.4-1.1-0.9-1.6-1.3c-3.1-3.6-6.1-7.3-9.1-11c-0.5-0.7-1.5,0.3-0.9,0.9c1.6,1.9,3.1,3.8,4.7,5.8
				c-4.4-3.5-8.7-7.1-13.1-10.6c-0.7-0.5-1.6,0.4-0.9,0.9C374.3,283.2,380.5,288.1,386.6,293.1z"/>
		</g>
		<g>
			<path class="st0" d="M266.3,280.6c1.5,3.7,4,9.1,8.4,10.3c4.4,1.2,5.5-1.4,6.1-5.4c1-6.7-2.1-13.2-5-19c-3.8-7.4-8-14.7-12-22.1
				c-0.8-3.1-2.3-6-5.9-6.1c-2.9-0.1-5,2.1-5.2,5c-0.5,5.4,5.4,10.7,7.4,15.5C262.9,265.8,263.5,273.6,266.3,280.6z M257.4,249
				c-2.2-2.6-0.8-2.9,4.2-1.1c0.1,0.9,0.9,1.3,1.6,1.2c3.1,5.6,6.2,11.2,9.2,16.8c2,3.7,4.1,7.6,5.1,11.7c0.5,1.9,1.8,8.1,0.2,9.5
				c-1.6-0.1-3.1-0.3-4.7-0.5c-1-1.1-1.9-2.3-2.6-3.6c-3.5-6.3-4.3-13.7-6.3-20.5c-0.8-2.7-1.7-5.2-3-7.7c-0.8-1.5-1.7-2.9-2.6-4.3
				C258.2,250.1,257.8,249.5,257.4,249z"/>
		</g>
		<g>
			<path class="st0" d="M236,208.7c-0.7-0.4-1.7-0.1-2,0.8c-1.8,7,0.8,14,6.5,18.3c0.4,0.3,0.9,0.3,1.2,0.1c1.4,1.4,3,2.5,4.8,3.1
				c2.7,0.9,4.1-0.7,3.9-3.5C249.9,219.6,242.7,212.2,236,208.7z M246.6,228c-1.5,0.5-5.7-5.2-6.3-6.1c-0.5-0.7-1.4-0.7-1.9-0.3
				c-1.7-2.8-2.4-6.2-2-9.6c3.8,2.3,6.8,5.4,9,9.3C246,222.4,248.9,227.2,246.6,228z"/>
		</g>
		<g>
			<path class="st0" d="M328.5,212.9c9.2,6.1,18,10.5,29.3,8.3c1-0.2,1.2-1.6,0.6-2.2c-10.5-11.2-23.8-18.8-38.8-22.1
				c-1.7-0.4-2.4,2.2-0.7,2.6c13.7,3,25.9,9.6,35.8,19.5c-8.2,0.9-15.1-2.1-22.1-6.6c-3-2-6-4-9-6c-1.2-0.8-2.4-1.5-3.5-2.4
				c-2.3-1.8-5.2-7.6-0.7-7.9c1.7-0.1,1.7-2.7,0-2.7c-1.4,0.1-2.8,0.1-4.2,0.2c-0.6,0-1,0.4-1.3,1
				C310.1,203.5,322.7,209.1,328.5,212.9z"/>
		</g>
		<g>
			<path class="st0" d="M357.4,225.4c-1-1.3-3.3,0-2.3,1.3c2.4,3.1,6.3,4.1,9.9,2.6c0.7-0.3,0.8-1.2,0.5-1.8c-0.9-1.8-3-2.6-4.9-1.9
				c-0.7,0.2-0.9,0.9-0.9,1.5C358.9,226.7,358,226.1,357.4,225.4z"/>
		</g>
		<g>
			<path class="st0" d="M370,400.2c1.5,8.3,2.9,16.6,4.4,24.9c0.3,1.7,2.9,1,2.6-0.7c-1.5-8.3-2.9-16.6-4.4-24.9
				C372.3,397.8,369.7,398.5,370,400.2z"/>
		</g>
		<g>
			<path class="st0" d="M488.1,436c-4.5-2.8-8.7-6.4-14.4-4.7c-5.4,1.6-9.7,6.7-13.6,10.7c-0.3,0-0.5,0.1-0.8,0.4
				c-0.5,0.5-0.9,1-1.3,1.6c-0.8,0.1-1.1,0.9-1,1.6c-1.9,3.4-2.4,7.3-2.4,11.4c0,7.2,1.8,9.3,7.3,13.8c5.2,4.3,7,7.2,13.7,5
				c5.8-1.9,14.6-5.4,18.4-10.2c3.6-4.5,2-13.7,2-19C496.1,438.9,494.2,439.9,488.1,436z M469.5,436.8c5.1-4.2,9.7-3.3,14.8,0
				c1.4,0.9,2.8,1.6,4.1,2.4c0,0.2,0.1,0.3,0.2,0.5c2,3.4-6.5,5.6-8.8,6.7c-2.4,1.2-4.7,2.7-6.9,4.4c-2.6-3.1-7.9-4.6-11.9-5.8
				C463.9,442.1,466.5,439.2,469.5,436.8z M480.5,471.1c-2.2-2.2-4-4.6-5.5-7.2c-0.1-0.1-0.2-0.2-0.3-0.2c0.1-0.8,0.2-1.7,0.3-2.5
				c2,3.3,4.4,6.4,7.2,9.1C481.7,470.5,481.1,470.8,480.5,471.1z M478.1,472.3c-1.7-1.5-3.1-3.4-3.9-5.6c0.1-0.4,0.2-0.8,0.3-1.2
				c1.4,2.3,3,4.4,4.9,6.3C478.9,471.9,478.5,472.1,478.1,472.3z M471.5,466.3c-2.2-4.2-4.4-8.5-6.6-12.7c2.3,3.5,4.4,7.2,6.3,11
				c0.1,0.3,0.4,0.4,0.6,0.5C471.7,465.5,471.6,465.9,471.5,466.3z M471.8,455.7c-0.7-1.3-1.5-2.6-2.3-3.9
				C470.6,452.8,471.4,454.1,471.8,455.7z M466.2,450.7c-0.4-0.6-0.7-1.1-1.1-1.7c0.6,0.2,1.2,0.5,1.7,0.8
				C466.4,450,466.2,450.3,466.2,450.7z M462.5,449.1c-0.2-0.4-0.4-0.8-0.6-1.1c0.5,0.1,0.9,0.3,1.4,0.5
				C463,448.5,462.7,448.8,462.5,449.1z M458.9,454.9c-0.4-0.7-1-0.8-1.5-0.5c0.1-1,0.2-1.9,0.4-2.9c2.7,5.5,5.5,11,8.5,16.3
				C463.6,463.6,461.2,459.3,458.9,454.9z M457.4,457.8c0,0-0.1,0-0.1,0c0-0.1,0-0.1,0-0.2C457.3,457.7,457.4,457.8,457.4,457.8z
				 M459.1,448.3c-0.1-0.1-0.1-0.2-0.2-0.3c0.1-0.3,0.3-0.6,0.5-0.9c0.2,0.1,0.4,0.1,0.6,0.2c-0.5,0.4-0.8,1-0.4,1.7
				c3.3,6.4,6.6,12.8,10,19.1c0.3,0.6,0.8,0.7,1.3,0.6c-0.1,0.4-0.3,0.8-0.4,1C466.4,462.7,462.7,455.6,459.1,448.3z M475.2,458.7
				c0-0.4,0-0.9,0-1.3c2.3,4,4.9,7.9,7.8,11.6C479.9,465.9,477.3,462.5,475.2,458.7z M472.5,473.5c0-0.1-0.1-0.1-0.1-0.2
				c0.1-0.1,0.2-0.3,0.3-0.5c0.3-1.2,0.7-2.5,1-3.9c0.8,1.5,1.8,2.8,3,4C475.3,473.3,473.9,473.6,472.5,473.5z M493.3,458.8
				c-2.1-3.4-4.6-6.5-7.4-9.4c-0.6-0.6-1.5,0.3-0.9,0.9c2.8,2.9,5.3,6,7.4,9.4c0.2,0.3,0.5,0.4,0.7,0.3c-0.3,1.3-0.8,2.4-1.4,3.4
				c0-0.1,0-0.3-0.1-0.5c-2.5-3.7-5-7.4-7.5-11c-0.5-0.7-1.6,0-1.1,0.7c2.5,3.7,5,7.4,7.5,11c0.3,0.4,0.8,0.4,1.1,0.1
				c-0.5,0.8-1.1,1.4-1.8,2c-3.2-4.3-6.4-8.5-9.7-12.8c-0.5-0.7-1.7,0-1.1,0.7c3.3,4.3,6.5,8.6,9.8,13c-1.2,0.9-2.6,1.7-4.1,2.5
				c-3.5-4.5-6.7-9.3-9.4-14.3c-0.1-0.2-0.2-0.3-0.4-0.3c-0.1-0.5-0.2-0.9-0.4-1.3c0.1-0.1,0.2-0.2,0.4-0.3
				c4.1,4.5,7.9,9.2,11.4,14.2c0.5,0.7,1.6,0,1.1-0.7c-3.5-5-7.4-9.7-11.5-14.3c3.8-2.6,7.9-4.1,12.1-6.2c1.9-0.9,3.3-2.5,3.6-4.2
				c0.9,1,1.5,2.2,1.9,4C494.3,449,493.8,455.1,493.3,458.8z"/>
		</g>
		<g>
			<path class="st0" d="M472.6,443.3c2.4,0,5-0.6,7.4-0.9c1.3-0.2,3.5,0,4.4-1.3c1.9-2.5-3-4.9-4.7-5.4c-3.4-1.1-7.2-0.5-9.2,2.4
				c-0.3,0-0.5,0.2-0.7,0.4C467.9,440.9,470,443.3,472.6,443.3z M477.4,437.9c0.9,0.1,1.9,0.4,2.7,0.8c0.4,0.2,0.8,0.4,1.1,0.7
				c0.1,0,0.1,0.1,0.1,0.1c-0.6,0.6-4,0.5-4.9,0.6c-1,0.1-2,0.3-2.9,0.4c-0.2,0-1,0-1.6,0c0-0.1,0.1-0.1,0.2-0.2
				C473.2,438.2,475.2,437.6,477.4,437.9z"/>
		</g>
		<g>
			<path class="st0" d="M290.4,416.2c0-0.3-0.1-0.5-0.4-0.8c-0.5-0.5-0.9-0.9-1.4-1.3c0-0.8-0.8-1.2-1.5-1.1
				c-3.3-2.1-7.2-2.9-11.4-3.1c-7.2-0.4-9.4,1.4-14.2,6.6c-4.5,4.9-7.7,6.7-5.7,13.4c1.7,5.8,4.4,14.2,8.7,18.5
				c4.1,4.1,12.7,3.1,18.1,3.4c2.1,0.1,5.6,0.9,7.6-0.2c2.1-1.2,2.9-4.6,4.1-6.5c2.9-4.5,7.1-8.2,6.2-14.1
				C299.6,425.3,294.3,420.4,290.4,416.2z M275.7,427.3c1.7-0.8,3.4-1.6,5-2.5C279.4,426.4,277.9,427.1,275.7,427.3z M277.7,414.2
				c0.6-0.3,0.8-0.9,0.6-1.4c0.9,0.1,1.8,0.3,2.7,0.5c-5.6,2.4-11.2,4.9-16.8,7.5C268.7,418.5,273.2,416.2,277.7,414.2z
				 M274.9,412.6C274.9,412.6,274.9,412.6,274.9,412.6C274.9,412.6,275,412.6,274.9,412.6C274.9,412.6,274.9,412.6,274.9,412.6z
				 M258.5,426.7C258.5,426.6,258.5,426.6,258.5,426.7c0.2,0.1,0.4,0.2,0.6,0.3c1.1,0.4,2.4,0.8,3.8,1.2c-1.5,0.7-2.8,1.6-4,2.7
				C258.6,429.5,258.4,428.2,258.5,426.7z M267.3,426c-0.3,0.1-0.4,0.3-0.5,0.5c-0.4-0.1-0.8-0.2-1.1-0.3c4.3-2,8.7-3.9,13-5.9
				C275,422.4,271.2,424.3,267.3,426z M259.4,432.3c1.6-1.6,3.5-2.8,5.7-3.5c0.4,0.1,0.8,0.2,1.2,0.3c-2.3,1.2-4.5,2.7-6.4,4.4
				C259.7,433.1,259.5,432.7,259.4,432.3z M260.3,434.9c2.3-2,4.8-3.7,7.5-5.1c0.1-0.1,0.2-0.1,0.2-0.2c0.8,0.2,1.6,0.3,2.5,0.5
				c-3.5,1.8-6.6,4.1-9.5,6.7C260.8,436.1,260.5,435.5,260.3,434.9z M273,430.3c0.4,0,0.9,0,1.3,0c-4.2,2.1-8.2,4.4-12,7.1
				C265.5,434.6,269.1,432.2,273,430.3z M282.3,422.3c-0.2-0.3-0.5-0.5-0.8-0.6c0.5-0.3,1.1-0.6,1.6-0.9
				C282.8,421.3,282.5,421.8,282.3,422.3z M283.9,418.9c-0.1-0.3-0.4-0.5-0.6-0.7c0.4-0.2,0.8-0.3,1.1-0.5
				C284.2,418.1,284.1,418.5,283.9,418.9z M285.2,415.7c-0.4-0.5-1-0.8-1.7-0.5c-6.6,3-13.1,5.9-19.7,8.9c-0.6,0.3-0.8,0.8-0.7,1.2
				c-0.4-0.2-0.7-0.3-1-0.5c7.2-3.5,14.5-6.8,21.8-9.9c0.2-0.1,0.4-0.2,0.5-0.3c0.3,0.2,0.6,0.3,0.9,0.5
				C285.4,415.3,285.3,415.5,285.2,415.7z M283.9,449.2c-2.8,0.3-7.8,0-12-0.9c3.5-1.9,6.7-4.2,9.7-6.8c0.6-0.6-0.3-1.5-0.9-0.9
				c-3,2.6-6.3,4.9-9.8,6.8c-0.3,0.1-0.4,0.4-0.3,0.6c-2-0.6-3.7-1.3-4.7-2.3c-0.3-0.3-0.6-0.7-0.9-1.1c0,0,0,0,0,0
				c4.5-3,9.1-6.1,13.6-9.1c0.7-0.5,0-1.6-0.7-1.1c-4.5,3-9.1,6.1-13.6,9.1c0,0-0.1,0.1-0.1,0.1c-0.8-1.3-1.5-2.8-2.2-4.3
				c0,0,0,0,0,0c4.8-3.3,9.8-6.2,15-8.7c0.2-0.1,0.3-0.2,0.3-0.4c0.5-0.1,0.9-0.2,1.3-0.3c0.1,0.1,0.2,0.2,0.3,0.4
				c-4.7,3.8-9.7,7.4-14.9,10.6c-0.7,0.5-0.1,1.6,0.7,1.1c5.2-3.2,10.1-6.8,14.9-10.6c0.9,1.5,1.8,3,2.6,4.6c1.2,2.6,1.8,5.5,3,8.1
				c0.8,1.7,2,3,3.5,3.5C287.5,448.4,286,449,283.9,449.2z M296.5,437.7c-0.8,1.4-1.8,2.6-2.7,3.8c-0.9,1.2-1.6,2.3-2.4,3.3
				c0,0-0.1,0-0.1,0c-1.3,0.6-3.3-1.4-3.7-2.5c-0.2-0.6-0.4-1.2-0.6-1.9c-0.5-1.5-1-2.9-1.6-4.3c-1.1-2.7-2.6-5.2-4.2-7.6
				c3.3-2.5,5-7.5,6.5-11.5c2.2,2.5,4.6,5,6.7,7.7C297.1,428.4,298.9,433.4,296.5,437.7z"/>
		</g>
		<g>
			<path class="st0" d="M293.7,426.7c0-0.3-0.1-0.5-0.4-0.8c-2.3-2-4.8,0.2-4.9,2.8c-0.1,2.4,0.3,5,0.5,7.4c0.1,1.4-0.1,3.5,1.1,4.5
				c2.5,1.9,5-2.8,5.6-4.5C297,432.7,296.6,428.9,293.7,426.7z M293.7,433.6c-0.2,1-0.6,2-1.1,2.8c-0.1,0.2-0.3,0.4-0.4,0.6
				c-0.8,1-1,1.2-0.6,0.7c0,0,0-2.1,0-2.2c-0.1-0.8-0.1-1.6-0.2-2.5c-0.1-0.8-0.1-1.6-0.2-2.5c0-0.2,0-1.7,0.1-2.5
				c0.1,0.1,0.1,0.1,0.2,0.2C293.5,429.5,294.1,431.5,293.7,433.6z"/>
		</g>
		<g>
			<path class="st0" d="M278.6,438.4c-3.8,2.3-7.6,4.6-11.5,6.9c-0.7,0.4-0.1,1.6,0.7,1.1c3.8-2.3,7.6-4.6,11.5-6.9
				C280,439.1,279.4,437.9,278.6,438.4z"/>
		</g>
		<g>
			<path class="st0" d="M513.4,274.3c3.3-4.1,1.5-9.4-0.8-13.6c-2.7-4.8-7.4-6.7-12.7-6.4c-3.7,0.3-9.1,0.8-11.3,4.1
				c-1.1,0.4-2,1-2.9,1.8c-0.5,0.1-1,0.6-1.2,1.3c-1.5,2-1.9,4.6-0.4,7.4c0.1,0.2,0.2,0.4,0.4,0.5c1,4.2,3.4,8,7.1,10.5
				c1.2,0.8,2.7,1.7,4.3,2.2c-0.8,1.4,0.3,3.6,2.2,2.9C503.7,283,509.6,279,513.4,274.3z M491.1,274.1c-2.5-3.1-3.5-7-2.9-10.8
				c0.5-0.5,1.1-0.8,1.7-1.1c0.4,0,0.8-0.1,1.1-0.4c0.2,0,0.3-0.1,0.5-0.1c2.6-0.3,5.4,0.9,7.7,2.1c2.7,1.4,4.5,3,4.1,6.3
				c-0.2,2.1-1.3,4.4-2.5,6.1c-1.6,2.2-2.9,2.6-5.3,1.5C493.8,276.8,492.3,275.5,491.1,274.1z M507.2,274.7c-0.6,0.5-1.1,1-1.7,1.4
				c0.6-1.3,1-2.5,1.3-3.6c2.1-7.3-3.2-12-9.5-14c2-0.2,4-0.3,4.8-0.2c4.8,0.3,7.1,3.8,8.4,7.9C511.9,270.3,510.1,272.2,507.2,274.7
				z"/>
		</g>
		<g>
			<path class="st0" d="M79.7,295c0.1-0.2,0.1-0.5,0.1-0.8c6.3-5,7.1-15,0.5-20.8c-7.8-6.7-19.3-4.1-24.5,4
				c-0.3,0.2-0.6,0.6-0.7,1.1c-0.2,0.4-0.4,0.7-0.6,1.1c-0.3,0.7-0.2,1.5,0.1,2c-0.7,6.1-0.5,13.2,5,17c3.3,2.3,7.4,2.4,11.2,1.7
				C74,299.8,78.9,298.7,79.7,295z M75.6,275.1c5.3,2.9,6.9,9.9,3.7,14.4c-0.6-2-1.5-3.9-2.3-5.4c-1.7-3.2-4.2-6.2-7.7-7.6
				c-2-0.8-4.2-1-6.3-0.6C66.6,273.4,71.2,272.7,75.6,275.1z M68.5,280.4c-0.2,0-0.4,0.2-0.5,0.4c-2,5.1-3,10.3-3.1,15.7
				c-0.5-0.1-1-0.3-1.5-0.5c0.3-5.5,0.6-10.9,0.9-16.4C65.7,279.5,67.2,279.8,68.5,280.4z M59.9,293.2c-1.5-2.4-1.7-5.4-1.5-8.4
				c0.2-0.2,0.3-0.5,0.4-0.8c0.5-2.2,2.2-3.6,4.2-4.2c-0.3,5.1-0.6,10.3-0.9,15.5C61.2,294.8,60.4,294.1,59.9,293.2z M68.8,296.9
				c-0.4-3.9,0.1-7.7,1.7-11.3c0.3-0.8-0.8-1.5-1.2-0.7c-1.7,3.9-2.3,7.8-1.8,12c-0.4,0-0.9,0-1.3-0.1c0.1-5.4,1.1-10.6,3.1-15.6
				c0-0.1,0.1-0.2,0-0.3c1.4,1,2.9,2.7,4.1,4.6c-0.3,0-0.7,0.2-0.8,0.6c-0.3,3.3-0.6,6.5-0.8,9.8c0,0.1,0,0.2,0,0.2
				C70.9,296.5,69.9,296.8,68.8,296.9z M73.2,295.4c0.2-3,0.5-6,0.8-9c1.1,2,1.7,4.2,1.4,6c-1,0.4-1.3,1.4-1.2,2.3
				C73.8,295,73.5,295.2,73.2,295.4z"/>
		</g>
		<g>
			<path class="st0" d="M533,362.4c-3-0.1-6,0.2-8.8,1.2c-0.7,0.2-1.4,0.5-2.1,0.8c1.1-2.1,1.8-4.4,2.1-6.9c0.2-1.9,0.2-3.9-0.1-5.8
				c-0.4-2.7-1.9-5.3-1.9-8.1c0-1.6-2.3-2.8-3.4-1.4c-6.8,8.1-8.5,16-4.5,25.9c0,0.1,0.1,0.2,0.2,0.3c-0.2,0.6-0.1,1.4,0.3,1.9
				c-0.1,1.6-0.1,3.3-0.2,5c0,0.4-0.1,0.8-0.1,1.2c-0.7-2-2-3.6-4.2-4.6c-0.9-0.4-2,0-2,1.1c0,1.9,0.2,4,0.9,5.8
				c0.7,1.6,1.9,3,3,4.4c0.1,0.1,0.1,0.1,0.2,0.2c-0.9,1.8-2.2,3.4-3.8,4.9c-1.2,1.2,0.6,3.1,1.9,1.9c2.9-2.7,5.1-6,6-9.9
				c0.5-2,0.6-4,0.7-6h0c0.5,0.1,1,0.1,1.4,0c2.6,0.1,5-1,7.3-2.2c3-1.7,6.1-3.5,8.3-6.3C535.4,364.5,534.8,362.5,533,362.4z"/>
		</g>
		<g>
			<path class="st0" d="M100.2,348.9c-2.6,1.2-5,2.9-7,5c-0.6,0.6-1.1,1.2-1.6,1.9c-0.1-2.5-0.5-5-1.5-7.4c-0.7-1.8-1.7-3.5-2.9-5.1
				c-1.6-2.1-4-3.6-5.2-6c-0.8-1.5-3.3-1.2-3.7,0.5c-2.2,10.4,0.1,18.1,8.3,24.9c0.1,0.1,0.2,0.1,0.3,0.2c0.2,0.6,0.5,1.1,1.1,1.4
				c0.6,1.3,1.3,2.6,2,4c0.2,0.5,0.5,1,0.7,1.5c-1.5-1.2-3.9-2-5.8-1.9c-1,0.1-1.7,1.1-1.2,2c0.9,1.6,1.8,3.2,3.2,4.4
				c1.5,1.2,3.2,2,5,2.6c0.1,0,0.1,0,0.2,0c0,2-0.3,4-1,6.2c-0.5,1.6,2,2.3,2.6,0.7c1.3-4,1.6-8.1,0.5-12.2c-0.5-1.8-1.2-3.4-2.1-5
				c0.4-0.1,0.8-0.3,1.1-0.6c2.2-1,3.9-3.1,5.3-5.1c2-3,4-6.2,4.6-9.8C103.5,349.4,101.9,348.2,100.2,348.9z"/>
		</g>
		<g>
			<path class="st0" d="M454.4,207.2c0.1,0,0.2,0,0.3-0.1c0.5,0.3,1.2,0.5,1.8,0.3c1.9,0.7,3.9,1.3,5.8,2c0.1,0,0.1,0.1,0.2,0.1
				c-2.1,0-4.1,0.8-5.8,2.6c-0.6,0.8-0.4,1.9,0.6,2.2c1.7,0.5,3.5,1,5.3,0.9c2-0.1,3.8-0.9,5.5-1.6c0.1,0,0.1-0.1,0.2-0.1
				c1.4,1.5,2.6,3.2,3.6,5.2c0.7,1.6,3,0.2,2.3-1.3c-1.8-3.7-4.4-6.8-8-8.9c-1.6-1-3.4-1.6-5.1-2.2c0.3-0.4,0.4-0.9,0.4-1.3
				c2-5.3-0.6-13.4-3.4-17.6c-1-1.5-3.1-1.2-3.6,0.5c-1,2.8-1.6,5.8-1.5,8.8c0,0.7,0.1,1.3,0.1,2c-1.8-1.7-3.8-3.1-6.1-4.2
				c-1.9-0.8-3.8-1.4-5.9-1.7c-2.6-0.3-5.2,0.3-7.8-0.6c-1.6-0.6-3.2,1.5-2.2,2.9C436.8,204.1,443.8,208,454.4,207.2z"/>
		</g>
		<g>
			<path class="st0" d="M218.3,405.3c-0.5-0.2-1-0.1-1.3,0.3c-2.8,0.8-5.5,2.5-7.5,4.6c-4.6,4.6-6.4,12.8-2.5,18.1
				c4.2,5.8,13.1,5.1,13.4-2.8c0.1-3.5,0.6-5.4,3.5-7.6c1.1-0.9,2.4-1.6,3.2-2.9c1.6-2.5,1-5.6-1.2-7.5
				C223.6,405.5,220.9,404.9,218.3,405.3z M217.6,408.3c0.1,0.3,0.2,0.6,0.2,0.9c0,0.4,0.1,1.2,0,1.7c0,0-0.1,0.1-0.1,0.2
				c0,0,0,0.1-0.1,0.1c-0.6,0.5-3.6-0.2-3-0.9c0.3-0.3,0.4-0.6,0.3-1c0-0.1,0.1-0.1,0.1-0.2C215.8,408.8,216.7,408.5,217.6,408.3z
				 M215.1,414.5c-0.3-0.3-0.8-0.5-1.2-0.4c0.1-0.2,0.1-0.3,0.2-0.5c0.4,0.2,0.8,0.3,1.2,0.3C215.2,414.1,215.1,414.3,215.1,414.5z
				 M207.5,421.8c0,0,0.1,0,0.1,0c0,0.2,0,0.4,0,0.5c0,0,0,0.1-0.1,0.1C207.6,422.2,207.5,422,207.5,421.8z M208.3,424.3
				c0,0.2-0.1,0.4-0.1,0.6c-0.1-0.3-0.2-0.6-0.3-0.9C208,424.2,208.2,424.3,208.3,424.3z M213.2,427.7c0.1,0.1,0.2,0.1,0.3,0.2
				c-0.2,0.1-0.3,0.2-0.5,0.3c0-0.1,0.1-0.1,0.1-0.2C213.1,427.8,213.1,427.8,213.2,427.7z M222.1,408.6c-0.1,0-0.3,0-0.4,0
				c-0.1-0.2-0.3-0.3-0.5-0.5C221.6,408.2,221.9,408.4,222.1,408.6z M211.5,428.8c0.1,0,0.1,0,0.2,0
				C211.6,428.8,211.6,428.9,211.5,428.8C211.5,428.8,211.5,428.8,211.5,428.8z M217.8,425.5c-0.3,0.2-0.6,0.4-1,0.5
				c0.1-0.4,0.1-0.9,0.1-1.3c0.3-0.2,0.6-0.5,0.8-0.8C217.8,424.5,217.9,425.1,217.8,425.5z"/>
		</g>
		<g>
			<path class="st0" d="M101.8,167.4c0.1-3.5,0.6-5.4,3.5-7.6c1.2-0.9,2.4-1.6,3.2-2.9c1.6-2.5,1-5.6-1.2-7.6
				c-2.2-2-4.9-2.5-7.6-2.1c-0.5-0.2-1-0.1-1.3,0.3c-2.8,0.8-5.5,2.5-7.5,4.6c-4.6,4.6-6.3,12.8-2.5,18.1
				C92.6,176,101.5,175.3,101.8,167.4z M99,150.2c0.1,0.3,0.2,0.6,0.2,0.9c0,0.4,0.1,1.2,0,1.7c0,0.1-0.1,0.1-0.1,0.2
				c0,0.1,0,0.1-0.1,0.1c-0.7,0.5-3.6-0.2-3-0.9c0.3-0.3,0.3-0.6,0.3-1c0-0.1,0.1-0.1,0.1-0.2C97.2,150.7,98.1,150.4,99,150.2z
				 M96.5,156.4c-0.3-0.3-0.8-0.4-1.2-0.4c0.1-0.2,0.1-0.3,0.2-0.5c0.4,0.2,0.8,0.3,1.2,0.3C96.5,156,96.5,156.2,96.5,156.4z
				 M89.7,166.2c0,0.2-0.1,0.4-0.1,0.6c-0.1-0.3-0.2-0.6-0.3-0.9C89.4,166.1,89.5,166.2,89.7,166.2z M94.6,169.6
				c0.1,0.1,0.2,0.1,0.3,0.2c-0.2,0.1-0.3,0.2-0.5,0.3c0-0.1,0.1-0.1,0.1-0.2C94.5,169.8,94.5,169.7,94.6,169.6z M89,163.7
				c0,0.2,0,0.4,0,0.5c0,0,0,0.1-0.1,0.1C89,164.2,88.9,163.9,89,163.7C89,163.7,89,163.7,89,163.7z M92.9,170.7c0.1,0,0.1,0,0.2,0
				C93,170.8,93,170.8,92.9,170.7C92.9,170.8,92.9,170.7,92.9,170.7z M99.2,167.4c-0.3,0.2-0.7,0.4-1,0.5c0.1-0.4,0.1-0.9,0.1-1.3
				c0.3-0.2,0.6-0.5,0.8-0.8C99.2,166.4,99.3,167,99.2,167.4z M103.5,150.6c-0.2,0-0.3,0-0.4,0c-0.2-0.2-0.3-0.3-0.5-0.5
				C103,150.2,103.3,150.3,103.5,150.6z"/>
		</g>
		<g>
			<path class="st0" d="M367.7,137.9c2.5,5.4,8.4,9.6,14.3,8.8c6.7-0.9,11.9-9.8,4.3-13.4c-2.5-1.2-5.1-1.7-6-4.8
				c-0.6-1.9-0.6-4.1-1.9-5.8c-1.8-2.3-4.9-2.8-7.5-1.4c-2.6,1.4-4.1,3.7-4.7,6.3c-0.2,0.3-0.3,0.7-0.2,1.1
				C365.6,131.7,366.3,135.1,367.7,137.9z M373,133.5c0.1,0.1,0.2,0.2,0.4,0.3c0,0,0.1,0,0.1,0.1c-0.4,0.2-0.7,0.5-0.8,0.9
				c-0.1-0.1-0.3-0.3-0.4-0.4C372.5,134.2,372.8,133.9,373,133.5z M377.4,143.4c0.1,0.1,0.2,0.1,0.4,0.1c0.1,0.1,0.1,0.1,0.2,0.2
				C377.8,143.7,377.6,143.6,377.4,143.4C377.4,143.5,377.4,143.5,377.4,143.4z M370,129.5c0.3,0.1,0.6,0.3,1,0.4
				c0.1,0.1,0.3,0.1,0.4,0.2c0,0.1,0.1,0.1,0.1,0.2c0,0,0,0,0,0c0,0.1-0.1,0.2-0.1,0.2c-0.1,0.5-1.4,3.3-2,2
				c-0.2-0.4-0.5-0.6-0.8-0.6c0-0.6,0-1.1,0-1.7c0-0.3,0.1-0.7,0.1-1C369.1,129.2,369.5,129.3,370,129.5z M379.7,144.1
				c0.1-0.1,0.2-0.2,0.4-0.3c0.2,0.1,0.4,0.2,0.5,0.3C380.3,144.1,380,144.1,379.7,144.1z M385.4,142.5c0.4-0.5,0.5-1.1-0.1-1.7
				c-0.1-0.1-0.2-0.2-0.3-0.3c0.1-0.1,0.3-0.3,0.4-0.5c0.5,0.2,1,0.4,1.5,0.6c0,0.1-0.1,0.2-0.1,0.3
				C386.5,141.5,386,142.1,385.4,142.5z M387.4,138c-1.2-0.7-2.4-1.4-3.7-2c-0.1-0.4-0.2-0.7-0.4-1c0.1,0,0.1,0.1,0.2,0.1
				C385.3,135.7,387.2,136.2,387.4,138z M376.7,125.5c-0.2-0.1-0.4-0.3-0.6-0.4C376.4,125.1,376.6,125.3,376.7,125.5z M370.6,125.3
				c0,0.1,0,0.2-0.1,0.2c-0.2,0.1-0.4,0.1-0.6,0.2C370.1,125.6,370.3,125.4,370.6,125.3z"/>
		</g>
		<g>
			<path class="st0" d="M147.2,401.7c-1.8,0.1-3.3,1.5-3.3,3.3c0,0.3,0,0.6,0,0.9c0,1.7,1.5,3.4,3.3,3.3c1.8-0.1,3.3-1.5,3.3-3.3
				c0-0.3,0-0.6,0-0.9C150.5,403.3,149,401.7,147.2,401.7z"/>
		</g>
		<g>
			<path class="st0" d="M158.7,132.4c1.8-0.1,3.3-1.5,3.3-3.3c0-0.3,0-0.6,0-0.9c0-1.7-1.5-3.4-3.3-3.3s-3.3,1.5-3.3,3.3
				c0,0.3,0,0.6,0,0.9C155.4,130.9,156.9,132.5,158.7,132.4z"/>
		</g>
		<g>
			<path class="st0" d="M333,461.3c-0.3,0.3-0.6,0.6-0.9,0.9c-0.8,0.8-0.8,2.1,0,2.8c0.8,0.8,2.1,0.8,2.8,0c0.3-0.3,0.6-0.6,0.9-0.9
				c0.8-0.8,0.8-2.1,0-2.8C335,460.6,333.7,460.6,333,461.3z"/>
		</g>
		<g>
			<path class="st0" d="M282.3,122.6c1.2,1.2,3.5,1.3,4.7,0c1.2-1.3,1.3-3.4,0-4.7c-0.3-0.3-0.6-0.6-0.9-0.9c-1.2-1.2-3.5-1.3-4.7,0
				c-1.2,1.3-1.3,3.4,0,4.7C281.8,122,282,122.3,282.3,122.6z"/>
		</g>
		<g>
			<path class="st0" d="M522.1,217.9c0-0.3,0-0.6,0-0.9c0-1.7-2.7-1.7-2.7,0c0,0.3,0,0.6,0,0.9C519.4,219.6,522.1,219.6,522.1,217.9
				z"/>
		</g>
		<g>
			<path class="st0" d="M481.6,250.8c0.5,1,1.8,1.2,2.7,0.7c1-0.6,1.2-1.8,0.7-2.7c-0.3-0.6-0.6-1.2-0.9-1.8c-0.5-1-1.8-1.2-2.7-0.7
				c-1,0.6-1.2,1.8-0.7,2.7C481,249.7,481.3,250.3,481.6,250.8z"/>
		</g>
		<g>
			<path class="st0" d="M512.5,324.3c0,1.1,0.9,2,2,2c0.3,0,0.6,0,0.9,0c1,0,2-0.9,2-2c0-1.1-0.9-2-2-2c-0.3,0-0.6,0-0.9,0
				C513.5,322.3,512.5,323.3,512.5,324.3z"/>
		</g>
		<g>
			<path class="st0" d="M504.9,414.7c-1-1-2.8-1.1-3.8,0c-1,1.1-1,2.7,0,3.8c0.3,0.3,0.6,0.6,0.9,0.9c1,1,2.8,1.1,3.8,0
				c1-1.1,1-2.7,0-3.8C505.4,415.3,505.2,415,504.9,414.7z"/>
		</g>
		<g>
			<path class="st0" d="M415.1,457.9c-0.3,0-0.6,0-0.9,0c-1.7,0-1.7,2.7,0,2.7c0.3,0,0.6,0,0.9,0
				C416.8,460.5,416.8,457.9,415.1,457.9z"/>
		</g>
	</g>
	<g class="st5">
		<path class="st6" d="M76.1,332.5c-4.8-2.6-8.7-6.5-11.6-11.7s-4.7-11.5-5.1-18.8c-0.7-12.7,1.3-24.5,6.1-35.6
			c4.8-11.1,12.3-20.2,22.5-27.3c10.2-7.1,22.7-11.1,37.6-12c3.8-0.2,8-0.2,12.4,0.2c4.4,0.3,8.4,1,12.1,2c2.4,0.5,3.6,2.1,3.8,4.8
			c0.1,2.2-0.6,4.3-2.1,6.3c-1.5,2-3.4,3.1-5.5,3.2c-0.7,0-1.2,0-1.5,0c-4.4-0.8-8.1-1.3-11.2-1.6c-3.1-0.3-6.4-0.3-9.8-0.1
			c-10.6,0.6-19.4,3.7-26.6,9.2c-7.1,5.5-12.3,12.6-15.5,21.2c-3.2,8.6-4.5,17.8-4,27.6c0.4,7.1,2.1,12.5,5.1,16.2
			c3,3.7,6.8,5.4,11.3,5.2c5.1-0.3,9.4-2.6,13-7c3.6-4.4,6.7-11.3,9.4-20.8c2.6-9.5,5-22.3,7.2-38.5c0.4-2.4,1.3-4,2.7-4.9
			c1.5-0.9,3.4-1.4,5.9-1.6c5.9-0.3,9,1.4,9.2,5.2c0,0.7,0,1.5-0.2,2.5c-1.7,8.2-3.2,17.2-4.4,27.1c-1.2,9.9-1.7,17.4-1.4,22.5
			c0.3,4.5,1.1,7.7,2.6,9.7c1.4,2,3.5,2.9,6.3,2.7c2.7-0.2,5.2-1.2,7.5-3.1c2.3-1.9,5.2-5.2,8.6-9.7c0.9-1.2,2-1.9,3.3-1.9
			c1.1-0.1,2,0.4,2.6,1.4c0.7,1,1.1,2.3,1.2,4.1c0.2,3.2-0.5,5.9-1.9,7.9c-3.8,5.1-7.6,9.1-11.4,11.9c-3.8,2.8-8.5,4.4-14.2,4.7
			c-5.8,0.3-10.6-1.1-14.4-4.3c-3.8-3.2-6.3-7.8-7.6-13.9c-5.4,13.3-14.2,20.2-26.1,20.9C86.2,336.2,80.9,335.1,76.1,332.5z"/>
		<path class="st6" d="M160.5,327c-1.5-3.3-2.4-8.6-2.8-15.9c-0.6-10.8,0.3-21.2,2.9-31.1c0.6-2.5,1.7-4.3,3.4-5.5
			c1.6-1.2,4-1.9,7.1-2.1c1.7-0.1,2.8,0,3.5,0.4c0.7,0.4,1.1,1.2,1.1,2.3c0.1,1.3-0.4,4.4-1.4,9.1c-0.6,3.4-1.1,6.3-1.5,8.8
			c-0.4,2.5-0.6,5.6-0.7,9.3c1.9-6.6,4.3-12.3,7.1-16.9c2.9-4.7,5.9-8.2,9.1-10.6c3.2-2.4,6.2-3.7,9.1-3.8s5,0.4,6.3,1.6
			c1.3,1.3,2,3.3,2.2,6c0.2,2.7-0.4,7.5-1.6,14.6c-0.5,3-0.8,5.3-1,6.8c3.6-10.5,7.8-18.2,12.6-23.1c4.8-5,9.4-7.6,13.9-7.8
			c5.4-0.3,8.3,2.2,8.6,7.7c0.2,3.2-0.4,9.2-1.8,17.8c-1.2,7.3-1.7,12.2-1.6,14.5c0.2,3.3,1.5,4.9,3.9,4.8c1.7-0.1,3.6-1.2,5.8-3.4
			c2.2-2.2,5-5.7,8.6-10.5c0.9-1.2,2-1.9,3.3-1.9c1.1-0.1,2,0.4,2.6,1.4c0.7,1,1.1,2.3,1.2,4.1c0.2,3.3-0.5,6-1.9,7.9
			c-3.3,4.6-7,8.5-10.9,11.5c-4,3.1-8.6,4.7-13.8,5c-4.2,0.2-7.5-0.8-9.8-3.1c-2.3-2.3-3.6-5.8-3.9-10.5c-0.1-2.3,0.2-6.5,1-12.6
			c0.8-5.3,1.1-9,1-11c-0.1-1.3-0.6-2-1.5-1.9c-1.1,0.1-2.5,1.5-4.4,4.4c-1.8,2.9-3.6,6.7-5.4,11.4c-1.7,4.7-3.1,9.6-4.1,14.8
			c-0.7,4.1-1.6,6.8-2.7,8.2c-1.1,1.4-3,2.2-5.7,2.3c-2.7,0.2-4.9-1-6.4-3.6c-1.5-2.5-2.4-5.7-2.6-9.4c-0.2-3.2,0-7.8,0.5-13.8
			c0.4-5.4,0.5-8.9,0.4-10.6c-0.1-1.3-0.6-2-1.5-1.9c-1.2,0.1-2.7,1.7-4.5,4.8c-1.7,3.1-3.4,7-4.9,11.8c-1.5,4.8-2.7,9.4-3.5,14
			c-0.7,4-1.6,6.7-2.7,8.1c-1.1,1.4-3,2.2-5.6,2.4C164.3,331.8,162,330.3,160.5,327z"/>
		<path class="st6" d="M308.4,296.6c0.7,1,1.1,2.3,1.2,4.1c0.2,3.3-0.5,6-1.9,7.9c-2.9,3.9-7,7.6-12.5,11.1
			c-5.4,3.5-11.4,5.4-17.8,5.8c-8.7,0.5-15.7-1.5-20.8-6c-5.1-4.5-7.9-10.8-8.3-19.1c-0.3-5.7,0.6-11.2,2.7-16.3
			c2.1-5.1,5.3-9.2,9.4-12.4c4.1-3.2,8.9-4.9,14.3-5.2c4.8-0.3,8.8,0.9,11.9,3.7c3.1,2.7,4.8,6.5,5,11.4c0.3,5.7-1.5,10.8-5.3,15.2
			s-10.7,8-20.4,11c2.3,3.7,6.4,5.4,12.2,5.1c3.7-0.2,7.9-1.8,12.6-4.7c4.6-2.9,8.6-6.6,11.9-11c0.9-1.2,2-1.9,3.3-1.9
			C306.8,295.2,307.7,295.6,308.4,296.6z M265.7,284.7c-1.9,3.7-2.7,8.1-2.5,13.2l0,0.2c4.8-1.4,8.6-3.4,11.3-5.9
			c2.7-2.5,4-5.3,3.8-8.4c-0.1-1.6-0.6-2.8-1.5-3.7c-0.9-0.9-2.1-1.3-3.6-1.2C270.1,279.1,267.6,281,265.7,284.7z"/>
		<path class="st6" d="M302.6,319c-1.5-3.3-2.4-8.6-2.8-15.9c-0.6-10.8,0.3-21.2,2.9-31.1c0.6-2.5,1.7-4.3,3.4-5.5
			c1.6-1.2,4-1.9,7.1-2.1c1.7-0.1,2.8,0,3.5,0.4c0.7,0.4,1.1,1.2,1.1,2.3c0.1,1.3-0.4,4.4-1.4,9.1c-0.6,3.4-1.1,6.3-1.5,8.9
			c-0.4,2.5-0.6,5.6-0.7,9.3c2.3-7.3,5.1-13.3,8.3-18c3.2-4.7,6.3-8.1,9.5-10.2c3.2-2.1,6.1-3.2,8.9-3.4c5.4-0.3,8.3,2.2,8.6,7.7
			c0.1,1.1-0.2,3.7-0.7,7.9c-0.5,3.4-0.7,5.5-0.6,6.3c0.2,2.9,1.3,4.3,3.4,4.2c2.3-0.1,5.2-2.1,8.7-6c1-1.1,2.1-1.7,3.3-1.8
			c1.1-0.1,2,0.4,2.6,1.3c0.7,0.9,1.1,2.2,1.2,3.8c0.2,3.1-0.5,5.5-2.1,7.4c-2.2,2.5-4.8,4.8-7.8,6.6c-3,1.9-6.3,2.9-9.8,3.1
			c-4.4,0.2-7.8-0.7-10.2-2.8c-2.4-2.1-3.7-5.1-4-8.9c-0.1-1.2,0-2.5,0.2-3.8c0.1-1.7,0.1-2.8,0.1-3.4c-0.1-1.3-0.6-2-1.5-1.9
			c-1.2,0.1-2.8,1.6-4.7,4.5c-1.9,2.9-3.7,6.7-5.4,11.4c-1.7,4.7-3.1,9.6-4.1,14.8c-0.7,4-1.6,6.7-2.7,8.1c-1.1,1.4-3,2.2-5.6,2.4
			C306.4,323.8,304.1,322.2,302.6,319z"/>
		<path class="st6" d="M360.8,314.9c-2.7-3.7-4.2-8.7-4.5-15c-0.2-3.7,0-8.6,0.6-14.5c0.6-5.9,1.5-11.5,2.8-16.6
			c0.6-2.7,1.5-4.6,2.7-5.7c1.2-1.1,3.2-1.7,5.9-1.8c4.2-0.2,6.5,1.1,6.6,3.9c0.1,2.1-0.4,7-1.6,14.6c-1.5,9.3-2.1,15.5-1.9,18.8
			c0.1,2.5,0.6,4.4,1.3,5.7c0.7,1.3,1.9,1.9,3.5,1.8c1.5-0.1,3.3-1.2,5.4-3.4c2.1-2.2,4.9-5.7,8.4-10.4c0.9-1.2,2-1.9,3.3-1.9
			c1.1-0.1,2,0.4,2.6,1.4c0.7,1,1.1,2.3,1.2,4.1c0.2,3.3-0.5,6-1.9,7.9c-7.7,10.5-15.1,16-22.3,16.4
			C367.5,320.3,363.5,318.6,360.8,314.9z M362.1,250.9c-1.8-1.5-2.8-3.7-3-6.7c-0.2-2.9,0.8-5.4,3-7.5c2.2-2.1,5-3.2,8.4-3.4
			c3.1-0.2,5.6,0.4,7.6,1.8c2,1.4,3.1,3.5,3.2,6.2c0.2,3.3-0.7,6-2.8,8.1c-2.1,2.1-4.9,3.2-8.5,3.4
			C366.6,253.1,364,252.4,362.1,250.9z"/>
		<path class="st6" d="M392.7,312c-4.8-4.4-7.4-10.3-7.8-17.9c-0.4-6.7,0.6-12.7,3-18c2.4-5.2,5.6-9.3,9.7-12.3
			c4.1-3,8.5-4.6,13.1-4.9c4.6-0.3,8.2,0.9,10.9,3.5c2.7,2.6,4.2,6,4.4,10.2c0.2,3.5-0.4,6.5-1.8,9c-1.4,2.5-3.4,3.8-5.9,4
			c-1.6,0.1-2.9-0.2-3.9-0.9s-1.5-1.7-1.6-3c0-0.6,0-1.3,0.1-2c0.1-0.8,0.2-1.3,0.3-1.6c0.3-1.3,0.5-2.5,0.4-3.5
			c-0.1-1.1-0.4-1.9-1-2.5c-0.6-0.6-1.4-0.8-2.4-0.7c-1.9,0.1-3.7,1.1-5.2,2.9c-1.6,1.8-2.8,4.2-3.6,7.2c-0.8,3-1.2,6.2-1,9.7
			c0.5,9.7,5,14.3,13.4,13.8c3.4-0.2,7-1.5,10.9-4.1c3.8-2.5,7.5-6.2,11.1-11c0.9-1.2,2-1.9,3.3-1.9c1.1-0.1,2,0.4,2.6,1.4
			c0.7,1,1.1,2.3,1.2,4.1c0.2,3.2-0.5,5.8-1.9,7.9c-3.6,5.1-8.1,9-13.4,12c-5.3,2.9-10.5,4.5-15.6,4.8
			C404,318.3,397.5,316.3,392.7,312z"/>
		<path class="st6" d="M435.7,310.8c-3.3-3.6-5.1-8.4-5.5-14.5c-0.4-6.7,0.8-13.1,3.6-19.2c2.7-6.1,6.6-11.2,11.5-15.1
			c4.9-3.9,10.3-6,16-6.4c1.8-0.1,3.1,0.2,3.7,0.9c0.7,0.7,1.3,1.9,1.8,3.7c1.7-0.4,3.6-0.7,5.5-0.8c4.1-0.2,6.2,1.1,6.4,4
			c0.1,1.8-0.3,6-1.2,12.6c-1.4,9.7-2,16.4-1.7,20.2c0.1,1.2,0.4,2.2,1.1,2.9c0.7,0.7,1.5,1,2.5,1c1.6-0.1,3.4-1.2,5.6-3.4
			c2.1-2.2,5-5.6,8.6-10.4c0.9-1.2,2-1.9,3.3-1.9c1.1-0.1,2,0.4,2.6,1.4c0.7,1,1.1,2.3,1.2,4.1c0.2,3.3-0.5,6-1.9,7.9
			c-3.2,4.4-6.6,8.2-10.3,11.4c-3.7,3.1-7.3,4.8-10.9,5c-2.7,0.2-5.3-0.6-7.7-2.4c-2.4-1.7-4.3-4.2-5.6-7.4
			c-3.9,7.2-9.2,11-15.8,11.4C443.2,316.1,439,314.4,435.7,310.8z M457.3,299.3c1.5-2.3,2.6-5.2,3.1-8.8l3.3-23.3
			c-3.5,0.3-6.6,1.8-9.5,4.5c-2.8,2.7-5,6.2-6.5,10.5c-1.5,4.3-2.1,8.7-1.9,13.4c0.1,2.6,0.8,4.5,1.9,5.7c1.1,1.2,2.6,1.7,4.4,1.6
			C454,302.8,455.7,301.6,457.3,299.3z"/>
		<path class="st6" d="M493.7,308.2c-1.5-3.3-2.4-8.6-2.8-15.9c-0.6-10.8,0.3-21.2,2.9-31.1c0.6-2.5,1.7-4.3,3.4-5.5
			c1.6-1.2,4-1.9,7.1-2.1c1.7-0.1,2.8,0,3.5,0.4c0.7,0.4,1.1,1.2,1.1,2.3c0.1,1.3-0.4,4.4-1.4,9.1c-0.6,3.4-1.1,6.3-1.5,8.9
			c-0.4,2.5-0.6,5.6-0.7,9.3c2.3-7.3,5.1-13.3,8.3-18c3.2-4.7,6.3-8.1,9.5-10.2c3.2-2.1,6.1-3.2,8.9-3.4c5.4-0.3,8.3,2.2,8.6,7.7
			c0.2,3.2-0.4,9.2-1.8,17.8c-1.2,7.3-1.7,12.2-1.6,14.5c0.2,3.3,1.5,4.9,3.9,4.8c1.7-0.1,3.6-1.2,5.8-3.4c2.2-2.2,5-5.7,8.6-10.5
			c0.9-1.2,2-1.9,3.3-1.9c1.1-0.1,2,0.4,2.6,1.4c0.7,1,1.1,2.3,1.2,4.1c0.2,3.3-0.5,6-1.9,7.9c-3.3,4.6-7,8.5-10.9,11.5
			c-4,3.1-8.6,4.7-13.8,5c-4.2,0.2-7.5-0.8-9.8-3.1c-2.3-2.3-3.6-5.8-3.9-10.5c-0.1-2.3,0.2-6.5,1-12.6c0.8-5.3,1.1-9,1-11
			c-0.1-1.3-0.6-2-1.5-1.9c-1.1,0.1-2.5,1.5-4.3,4.4c-1.8,2.9-3.6,6.7-5.4,11.4c-1.8,4.7-3.2,9.6-4.1,14.8c-0.7,4-1.6,6.7-2.7,8.1
			c-1.1,1.4-3,2.2-5.6,2.4C497.5,313,495.1,311.5,493.7,308.2z"/>
	</g>
	<path class="st6" d="M115.9,389.5c-4,6-8.6,11.5-13.7,16.6c-2.3,2.3,1.2,5.8,3.5,3.5c5.4-5.4,10.2-11.3,14.5-17.6
		C122,389.4,117.6,386.9,115.9,389.5z"/>
	<path class="st6" d="M127.6,403.5c-1.1-0.6-2.8-0.4-3.4,0.9c-0.2,0.3-0.3,0.6-0.5,0.9c0,0-0.1,0.1-0.1,0.1c0,0,0,0-0.1,0.1
		c-0.1,0.1-0.2,0.3-0.4,0.4c-0.1,0.1-0.2,0.2-0.4,0.4c0,0-0.2,0.2-0.3,0.2c-0.1,0.1-0.2,0.1-0.2,0.1c-0.2,0.1-0.4,0.2-0.5,0.3
		c-1.2,0.6-1.6,2.3-0.9,3.4c0.8,1.2,2.2,1.5,3.4,0.9c1.8-1,3.3-2.5,4.2-4.3C129.1,405.8,128.9,404.2,127.6,403.5z"/>
	<path class="st6" d="M168.8,413.5c-2.8,9.6-5.5,19.2-8.3,28.7c-0.9,3.2,3.6,4.2,4.8,1.3c0.3-0.6,0.5-1.3,0.8-1.9
		c0.2-0.5,0.2-0.9,0.1-1.3c2.4-8.5,4.9-17,7.4-25.5C174.5,411.7,169.7,410.4,168.8,413.5z"/>
	<path class="st6" d="M182.1,423.7c-0.3-1.3-1.8-2.1-3.1-1.8c-1.4,0.4-2,1.8-1.8,3.1c0.2,0.9,0.1,1.9-0.3,2.8
		c-0.6,1.2-0.4,2.7,0.9,3.4c1.1,0.6,2.9,0.3,3.4-0.9C182.3,428.2,182.6,426,182.1,423.7z"/>
	<path class="st6" d="M193.1,427.9c-1.4,0.1-2.5,1.1-2.5,2.5v2.7c0,1.3,1.1,2.6,2.5,2.5s2.5-1.1,2.5-2.5v-2.7
		C195.6,429.1,194.4,427.8,193.1,427.9z"/>
	<path class="st6" d="M364.4,454.4c-0.2-3.2-5.2-3.2-5,0c0.6,8.2,0.7,16.4,0.2,24.6c-0.2,3.2,4.8,3.2,5,0
		C365.1,470.8,365,462.6,364.4,454.4z"/>
	<path class="st6" d="M382.1,465c-0.4-2.5-1.5-4.7-3.2-6.5c-2.2-2.4-5.7,1.2-3.5,3.5c1.1,1.2,1.7,2.7,1.9,4.3
		c0.2,1.3,1.9,2.1,3.1,1.8C381.8,467.7,382.3,466.4,382.1,465z"/>
	<path class="st6" d="M397.3,463.7c-1.1-2.2-2.1-4.5-3.2-6.7c-0.6-1.2-2.3-1.5-3.4-0.9c-1.2,0.7-1.5,2.2-0.9,3.4
		c1.1,2.2,2.1,4.5,3.2,6.7c0.6,1.2,2.3,1.5,3.4,0.9C397.6,466.4,397.9,465,397.3,463.7z"/>
</g>
</svg>
